<svg width="139" height="116" viewBox="0 0 139 116" xmlns="http://www.w3.org/2000/svg"><g transform="translate(.82 1)" fill="none" fill-rule="evenodd"><g stroke="#85771C"><path d="M37.683 39.413c-2.726-1.95-5.384-4.265-8.289-5.46C12.824 27.127-4 41.837.847 59.102c2.39 8.522 9.14 15.272 17.519 18.205 2.293.805 5.525 1.334 9.696 1.586 5.032.302 10.175.563 15.43.783.44.018.704.245.79.68.667 3.385 1.202 6.586 2.995 9.614 4.1 6.93 10.933 11.887 16.282 17.869 1.47 1.641 2.699 3.64 3.963 5.466a1.547 1.547 0 0 0 2.582-.062c2.129-3.427 4.244-6.448 7.334-9.34 2.38-2.224 4.73-4.477 7.046-6.757 4.816-4.729 7.764-10.385 8.845-16.969.05-.325.24-.499.57-.522 4.583-.343 9.122-.581 13.618-.714 4.445-.128 7.707-.471 9.786-1.03 9.174-2.465 17.607-9.896 19.565-19.476 1.53-7.506-.488-16.048-6.353-21.027-10.48-8.887-21.014-5.872-30.91 2.403a.343.343 0 0 1-.563-.226c-1.153-9.203-6.997-15.562-14.387-20.815a.553.553 0 0 1-.206-.625 19.45 19.45 0 0 1 3.441-6.229.752.752 0 0 1 .625-.274c3.347.146 5.599-1.092 6.757-3.716C98.362.908 86.345-4.496 84.14 5.44a.985.985 0 0 1-.336.543c-3.1 2.545-5.407 5.682-6.922 9.408a.48.48 0 0 1-.543.289 37.337 37.337 0 0 0-15.128-.062.556.556 0 0 1-.632-.35c-1.438-3.718-3.731-6.794-6.881-9.23a.828.828 0 0 1-.316-.536c-1.319-8.31-12.808-6.448-11.4 1.23.6 3.3 2.862 4.935 6.785 4.903a.749.749 0 0 1 .618.281 26.346 26.346 0 0 1 3.921 6.346.491.491 0 0 1-.199.618C45.256 23.522 40.3 30.298 38.24 39.207c-.082.348-.267.417-.556.206"/><path d="M77.445 25.088c-8.96-3.466-16.992-2.063-24.097 4.21-4.556 4.024-6.742 9.012-6.559 14.963.09 2.891.46 6.057 1.937 8.35 5.315 8.274 12.629 12.078 21.94 11.414 6.435-.453 11.25-2.898 15.267-7.808 5.494-6.716 6.254-13.883 2.28-21.501-2.38-4.56-5.97-7.77-10.768-9.628m16.488 46.67c5.59-.261 11.059-.735 16.406-1.422 9.443-1.208 16.97-6.228 18-15.842.92-8.55-6.607-15.459-15.122-13.179-1.575.421-3.427 1.481-5.556 3.18a331.323 331.323 0 0 0-7.911 6.51c-.692.581-1.227 1.328-1.607 2.239a40.146 40.146 0 0 1-6.126 10.17.426.426 0 0 0-.082.35l1.737 7.795c.032.142.12.208.261.199M9.095 52.955c-.557 10.081 8.48 16.07 17.319 17.326 4.761.678 10.537 1.163 17.326 1.457.138.004.22-.062.247-.2l1.518-7.815a.484.484 0 0 0-.09-.384 53.247 53.247 0 0 1-5.809-9.731c-.476-1.03-1.103-1.891-1.882-2.582-4.541-4.052-7.732-6.726-9.573-8.021-4.484-3.16-11.619-2.452-15.293 1.064-2.307 2.211-3.562 5.173-3.763 8.886M55.01 73.688a23.062 23.062 0 0 0-2.7-.934c-.256-.074-.395.023-.418.288a19.859 19.859 0 0 0 1.07 8.447c.092.256.262.44.51.55 10.3 4.61 20.612 4.632 30.936.068a.673.673 0 0 0 .385-.467c.64-2.66.922-5.357.845-8.09-.01-.334-.174-.448-.495-.343-3.351 1.092-6.881 2.458-10.06 2.96-6.882 1.085-13.573.258-20.074-2.48m23.123 19.16a.179.179 0 0 0-.165-.295c-6.35 1.328-12.682 1.261-18.995-.2a.16.16 0 0 0-.182.078.177.177 0 0 0 .024.204l9.827 10.13a.35.35 0 0 0 .515-.007l8.976-9.91"/><path d="M62.666 41.645a4.326 4.326 0 1 0-8.652 0 4.326 4.326 0 0 0 8.652 0m20.554.02a4.368 4.368 0 1 0-8.735 0 4.368 4.368 0 0 0 8.735 0m-16.358 6.717c-.858-.824-1.675-2.582-3.172-1.697a1.59 1.59 0 0 0-.625 2.04c1.332 2.843 4.518 4.512 7.54 3.51 1.648-.55 4.32-3.14 3.571-5.117a1.25 1.25 0 0 0-2.335-.02c-.72 1.812-3.303 2.877-4.979 1.284"/></g><path d="M38.24 39.207c2.06-8.91 7.016-15.685 14.867-20.327a.491.491 0 0 0 .2-.618 26.346 26.346 0 0 0-3.922-6.346.749.749 0 0 0-.618-.281c-3.923.032-6.185-1.603-6.785-4.903-1.408-7.678 10.081-9.54 11.4-1.23.03.211.144.404.316.536 3.15 2.436 5.443 5.512 6.88 9.23.1.258.368.406.633.35a37.337 37.337 0 0 1 15.128.062.48.48 0 0 0 .543-.289c1.515-3.726 3.823-6.863 6.922-9.408a.985.985 0 0 0 .336-.543C86.345-4.496 98.363.908 95.272 7.926c-1.158 2.624-3.41 3.862-6.757 3.716a.752.752 0 0 0-.625.274 19.45 19.45 0 0 0-3.44 6.229.553.553 0 0 0 .205.625c7.39 5.253 13.234 11.612 14.387 20.815a.343.343 0 0 0 .564.226c9.895-8.275 20.43-11.29 30.91-2.403 5.864 4.979 7.883 13.521 6.352 21.027-1.958 9.58-10.39 17.01-19.565 19.476-2.079.559-5.34.902-9.786 1.03-4.496.133-9.035.371-13.618.714-.33.023-.52.197-.57.522-1.08 6.584-4.029 12.24-8.845 16.97a378.148 378.148 0 0 1-7.046 6.757c-3.09 2.89-5.205 5.912-7.334 9.34a1.547 1.547 0 0 1-2.582.061c-1.264-1.827-2.493-3.825-3.963-5.466-5.35-5.982-12.182-10.94-16.282-17.869-1.793-3.028-2.328-6.229-2.994-9.614-.087-.435-.35-.662-.79-.68-5.256-.22-10.4-.48-15.43-.783-4.172-.252-7.404-.78-9.697-1.586C9.987 74.374 3.236 67.624.847 59.102-4 41.837 12.824 27.127 29.394 33.953c2.905 1.195 5.563 3.51 8.29 5.46.288.21.473.142.555-.206Zm39.205-14.12c-8.96-3.465-16.992-2.062-24.097 4.21-4.556 4.025-6.742 9.013-6.559 14.964.09 2.891.46 6.057 1.937 8.35 5.315 8.274 12.629 12.078 21.94 11.414 6.435-.453 11.25-2.898 15.267-7.808 5.494-6.716 6.254-13.883 2.28-21.501-2.38-4.56-5.97-7.77-10.768-9.628Zm16.488 46.67c5.59-.26 11.059-.734 16.406-1.42 9.443-1.21 16.97-6.23 18-15.843.92-8.55-6.607-15.459-15.122-13.179-1.575.421-3.427 1.481-5.556 3.18a331.323 331.323 0 0 0-7.911 6.51c-.692.581-1.227 1.328-1.607 2.239a40.146 40.146 0 0 1-6.126 10.17.426.426 0 0 0-.082.35l1.737 7.795c.032.142.12.208.261.199ZM9.095 52.956c-.557 10.081 8.48 16.07 17.319 17.326 4.761.678 10.537 1.163 17.326 1.457.138.004.22-.062.247-.2l1.518-7.815a.484.484 0 0 0-.09-.384 53.247 53.247 0 0 1-5.809-9.731c-.476-1.03-1.103-1.891-1.882-2.582-4.541-4.052-7.732-6.726-9.573-8.021-4.484-3.16-11.619-2.452-15.293 1.064-2.307 2.211-3.562 5.173-3.763 8.886Zm45.914 20.733a23.062 23.062 0 0 0-2.698-.934c-.257-.074-.396.023-.42.288a19.859 19.859 0 0 0 1.072 8.447c.091.256.26.44.508.55 10.301 4.61 20.613 4.632 30.937.068a.673.673 0 0 0 .385-.467c.64-2.66.922-5.357.845-8.09-.01-.334-.174-.448-.495-.343-3.351 1.092-6.881 2.458-10.06 2.96-6.882 1.085-13.573.258-20.074-2.48Zm23.123 19.16a.179.179 0 0 0-.165-.296c-6.35 1.328-12.682 1.261-18.995-.2a.16.16 0 0 0-.182.078.177.177 0 0 0 .024.204l9.827 10.13a.35.35 0 0 0 .515-.007l8.976-9.91Z" fill="#0F2222" fill-rule="nonzero"/><path d="M77.445 25.088c4.798 1.859 8.387 5.068 10.768 9.628 3.974 7.618 3.214 14.785-2.28 21.501-4.018 4.91-8.832 7.355-15.266 7.808-9.312.664-16.626-3.14-21.941-11.413-1.477-2.294-1.847-5.46-1.937-8.35-.183-5.952 2.003-10.94 6.559-14.965 7.105-6.272 15.137-7.675 24.097-4.21ZM62.666 41.645a4.326 4.326 0 1 0-8.652 0 4.326 4.326 0 0 0 8.652 0Zm20.554.02a4.368 4.368 0 1 0-8.735 0 4.368 4.368 0 0 0 8.735 0Zm-16.358 6.717c-.858-.824-1.675-2.582-3.172-1.697a1.59 1.59 0 0 0-.625 2.04c1.332 2.843 4.518 4.512 7.54 3.51 1.648-.55 4.32-3.14 3.571-5.117a1.25 1.25 0 0 0-2.335-.02c-.72 1.812-3.303 2.877-4.979 1.284Z" fill="#FACC15" fill-rule="nonzero"/><circle fill="#0F2222" fill-rule="nonzero" cx="58.34" cy="41.645" r="4.326"/><circle fill="#0F2222" fill-rule="nonzero" cx="78.853" cy="41.665" r="4.368"/><path d="M93.933 71.758c-.142.01-.229-.057-.26-.2l-1.738-7.794a.426.426 0 0 1 .082-.35 40.146 40.146 0 0 0 6.126-10.17c.38-.911.915-1.658 1.607-2.239a331.323 331.323 0 0 1 7.91-6.51c2.13-1.699 3.982-2.759 5.557-3.18 8.515-2.28 16.042 4.629 15.121 13.179-1.03 9.614-8.556 14.634-17.999 15.842a203.135 203.135 0 0 1-16.406 1.422ZM12.858 44.069c3.674-3.516 10.81-4.223 15.293-1.064 1.84 1.295 5.032 3.969 9.573 8.02.779.692 1.406 1.553 1.882 2.583a53.247 53.247 0 0 0 5.81 9.73.484.484 0 0 1 .09.385l-1.519 7.815c-.027.138-.11.204-.247.2-6.79-.294-12.565-.779-17.326-1.457-8.838-1.256-17.876-7.245-17.32-17.326.202-3.713 1.457-6.675 3.764-8.886Z" fill="#FACC15" fill-rule="nonzero"/><path d="M66.862 48.382c1.676 1.593 4.258.528 4.98-1.285a1.25 1.25 0 0 1 2.334.021c.749 1.978-1.923 4.567-3.571 5.116-3.022 1.003-6.208-.666-7.54-3.509a1.59 1.59 0 0 1 .625-2.04c1.497-.885 2.314.873 3.172 1.697Z" fill="#0F2222" fill-rule="nonzero"/><path d="M55.01 73.688c6.5 2.737 13.191 3.564 20.072 2.479 3.18-.502 6.71-1.868 10.061-2.96.32-.105.485.01.495.343a30.657 30.657 0 0 1-.845 8.09.673.673 0 0 1-.385.467c-10.324 4.564-20.636 4.542-30.937-.069a.913.913 0 0 1-.508-.55 19.859 19.859 0 0 1-1.071-8.446c.023-.265.162-.362.419-.288.947.265 1.847.577 2.698.934Zm23.122 19.159-8.976 9.91a.35.35 0 0 1-.515.007l-9.827-10.13a.177.177 0 0 1-.024-.204.16.16 0 0 1 .182-.077c6.313 1.46 12.645 1.527 18.995.2a.179.179 0 0 1 .165.294Z" fill="#FACC15" fill-rule="nonzero"/></g></svg>