<svg width="306" height="280" viewBox="0 0 306 280" xmlns="http://www.w3.org/2000/svg"><g fill="none" fill-rule="evenodd"><path d="M245.745 273.353a5.253 5.253 0 0 1-6.615 3.393 59.006 59.006 0 0 1-17.416-9.13c-11.678-8.867-16.89-19.429-17.187-20.05-1.266-2.622-.173-5.773 2.44-7.038a5.238 5.238 0 0 1 7.003 2.431c.105.211 5.286 10.487 16.718 18.084a47.427 47.427 0 0 0 11.678 5.675c2.761.893 4.268 3.87 3.379 6.635" fill="#FFCD01"/><path d="M209.784 243.127c-.39 0-.786.087-1.16.269a2.695 2.695 0 0 0-1.245 3.59c.398.824 9.996 20.274 33 27.753a2.673 2.673 0 0 0 3.374-1.73 2.694 2.694 0 0 0-1.722-3.386c-20.574-6.687-29.455-24.225-29.823-24.97a2.696 2.696 0 0 0-2.424-1.526M241.206 280a7.74 7.74 0 0 1-2.404-.383c-25.055-8.146-35.59-29.493-36.024-30.398-1.873-3.88-.248-8.564 3.62-10.44 3.858-1.872 8.52-.252 10.398 3.61.071.144 8.357 16.357 26.81 22.356a7.746 7.746 0 0 1 4.538 3.882 7.787 7.787 0 0 1 .473 5.963 7.774 7.774 0 0 1-7.411 5.41" fill="#212327"/><path d="M221.034 268c-4.132-3.292-7.453-6.806-10.034-10 1.196.092 2.392.165 3.584.221a61.264 61.264 0 0 0 8.274 7.859c-.626.58-1.245 1.22-1.824 1.92m6.522-5.348a54.335 54.335 0 0 1-5.202-4.332 106.74 106.74 0 0 0 3.831-.151 50.794 50.794 0 0 0 3.815 2.94l-1.469 1.021s-.371.177-.975.522" fill="#292135"/><path d="M140.998 206.128c.013.48-.043.974-.173 1.46-.247.926-5.375 19.029-27.964 29.76-4.7 2.237-10.156 4.154-16.484 5.529a5.038 5.038 0 0 1-1.125.123c-2.419 0-4.596-1.67-5.128-4.124-.625-2.823 1.175-5.615 4.014-6.231 8.678-1.886 15.37-4.931 20.505-8.315 9.977-6.59 14.071-14.497 15.438-17.832.408-.986.575-1.572.582-1.609.748-2.798 3.637-4.456 6.439-3.71a5.23 5.23 0 0 1 3.896 4.95" fill="#FFCD01"/><path d="M135.327 204.105a2.59 2.59 0 0 0-1.315.36 2.654 2.654 0 0 0-1.227 1.625c-.061.23-6.335 22.58-37.678 29.519a2.618 2.618 0 0 0-1.657 1.169c-.38.6-.507 1.316-.357 2.013.302 1.407 1.711 2.36 3.139 2.043 34.5-7.637 41.371-32.317 41.646-33.363a2.69 2.69 0 0 0-.265-2.03 2.625 2.625 0 0 0-2.286-1.336M95.663 246c-3.574 0-6.72-2.574-7.484-6.12a7.823 7.823 0 0 1 1.038-5.859 7.622 7.622 0 0 1 4.818-3.398c28.087-6.217 33.674-25.074 33.897-25.873a7.7 7.7 0 0 1 3.563-4.702 7.52 7.52 0 0 1 5.815-.781 7.63 7.63 0 0 1 4.657 3.62 7.824 7.824 0 0 1 .77 5.9c-.308 1.17-7.97 28.74-45.435 37.033-.54.12-1.092.18-1.639.18" fill="#212327"/><path d="M292.177 203.484a98.79 98.79 0 0 1-2.8 13.543c-8.78 21.303-27.742 33.093-49.878 37.25a99.23 99.23 0 0 1-10.493 1.378c-18.28 1.457-37.886-1.747-55.282-8.666-11.126-4.422-21.35-10.369-29.737-17.583-9.389-8.074-16.487-17.742-19.987-28.658l41.208-102.06c12.047-3.855 25.236-4.593 38.432-2.656l.08.018c11.04 1.63 22.074 5.148 32.439 10.29 8.793 4.36 17.095 9.889 24.5 16.432v.006c9.886 8.727 18.169 19.262 23.88 31.242v.006c6.95 14.576 10.082 31.285 7.638 49.458" fill="#FFCD01"/><path d="M173.8 247c-11.15-4.424-21.395-10.373-29.8-17.59 34.13 3.458 78.827-64.269 59.857-133.41 11.063 1.63 22.12 5.15 32.506 10.293C245.697 182.208 213.806 240.306 173.8 247" fill="#232325"/><path d="M239.528 254.262A47.653 47.653 0 0 1 235.37 256l-6.338-.353L199 253.99c28.14.618 75.982-87.002 61.691-131.99 9.888 8.777 18.173 19.373 23.884 31.423v.006c7.002 32.166-12.4 85.356-45.047 100.833" fill="#232325"/><path d="M291 187a76.662 76.662 0 0 0-4.87-18.377A68.312 68.312 0 0 0 286 164a74.385 74.385 0 0 1 5 23" fill="#FFF0B2"/><path d="M220.31 258c-15.872 0-32.505-3.175-47.703-9.185-11.624-4.592-22.213-10.82-30.62-18.009-10.31-8.815-17.33-18.841-20.863-29.797a2.548 2.548 0 0 1 1.655-3.21 2.564 2.564 0 0 1 3.223 1.65c3.24 10.046 9.741 19.294 19.323 27.488 7.982 6.823 18.07 12.75 29.172 17.136 17.395 6.878 36.725 9.892 54.429 8.49a97.87 97.87 0 0 0 10.284-1.343c16.505-3.082 38.25-11.753 48.188-35.555 5.903-21.147 4.26-42.248-4.75-61.033a1.908 1.908 0 0 1-.047-.103c-5.428-11.285-13.28-21.484-23.343-30.313a4.564 4.564 0 0 1-.111-.103c-7.172-6.284-15.233-11.651-23.962-15.955-10.292-5.075-21.007-8.454-31.85-10.045-.06-.008-.12-.02-.177-.033-13.17-1.908-26.095-1.018-37.387 2.577a2.567 2.567 0 0 1-3.222-1.655 2.55 2.55 0 0 1 1.661-3.206c12.06-3.837 25.819-4.788 39.79-2.749.061.009.122.02.181.033 11.342 1.676 22.537 5.21 33.277 10.507 9.176 4.524 17.652 10.175 25.19 16.796.037.034.075.07.11.105 10.558 9.289 18.805 20.035 24.514 31.94l.047.106c9.532 19.934 11.252 42.287 4.972 64.65a2.55 2.55 0 0 1-.099.288c-8.418 20.302-26.899 34.07-52.041 38.763-3.529.655-7.17 1.13-10.823 1.413-2.968.235-5.98.352-9.019.352" fill="#212327"/><path d="M303.4 248c-.65 0-1.291-.24-1.784-.7-.119-.11-11.976-11.069-21.657-13.507-1.392-.35-2.233-1.75-1.878-3.124.355-1.375 1.77-2.205 3.163-1.854 6.755 1.702 14.052 6.698 18.794 10.41-3.123-21.25-10.508-30.989-10.59-31.094a2.547 2.547 0 0 1 .483-3.601 2.621 2.621 0 0 1 3.645.477c.403.517 9.867 12.994 12.413 40.188a2.561 2.561 0 0 1-1.45 2.545c-.362.175-.752.26-1.138.26" fill="#212327"/><path d="M172 135c0 48.049-38.055 87-85 87-46.944 0-85-38.951-85-87s38.056-87 85-87c46.945 0 85 38.951 85 87" fill="#FFCD01"/><path d="M87.467 222C56.772 222 29.888 205.186 15 180a87.382 87.382 0 0 0 14.269 18.15 87.383 87.383 0 0 1-2.377-2.785c15.394 16.197 36.847 26.248 60.575 26.248A82.331 82.331 0 0 0 123 213.589c-.156.204-.317.41-.483.616A82.357 82.357 0 0 1 87.467 222" fill="#6A9DCC"/><path d="M123 214c.161-.225.317-.45.469-.673A77.275 77.275 0 0 0 125.84 212l.16.33a76.57 76.57 0 0 1-3 1.67m3.136-2-.136-.398a65.35 65.35 0 0 0 1.866-1.602l.134.391a64.18 64.18 0 0 1-1.864 1.609" fill="#292135"/><path d="M173 135.05v-.1.1" fill="#C4981A"/><path d="M130.162 210a33.853 33.853 0 0 1-.162-.29A86.802 86.802 0 0 0 172.999 135H173a86.792 86.792 0 0 1-42.838 75" fill="#9B732C"/><path d="M128.137 212a99.798 99.798 0 0 1-.137-.378 67.513 67.513 0 0 0 1.865-1.622l.135.373c-.614.555-1.237 1.1-1.863 1.627" fill="#2F203F"/><path d="M14 180c-7.615-13.345-12-29.025-12-45.805V134a93.824 93.824 0 0 0 3.224 24.29l-.238-.52A90.835 90.835 0 0 0 14 180" fill="#D8F2FF"/><path d="M87.5 51.09C42.07 51.09 5.109 88.73 5.109 135s36.96 83.91 82.39 83.91c45.432 0 82.392-37.641 82.392-83.91S132.931 51.09 87.5 51.09Zm0 172.91C39.252 224 0 184.075 0 135s39.252-89 87.5-89S175 85.925 175 135s-39.252 89-87.5 89Z" fill="#212327"/><path d="M61.211 171.068c3.487 5.618 9.533 8.821 15.876 8.676 6.74-.137 11.507-4.779 14.708-10.435a.65.65 0 0 1 1.203.392 17.802 17.802 0 0 1-1.345 5.526c-5.281 12.531-22.872 12.91-29.796 1.722-1.016-1.696-1.694-3.582-1.855-5.486a.653.653 0 0 1 1.21-.395M24.59 7.135a4.93 4.93 0 0 0-1.894.367c-1.511.62-2.647 1.982-3.199 3.837-.61 2.052-.44 4.41.482 6.64 1.822 4.416 6.005 6.896 9.325 5.534 1.511-.62 2.647-1.984 3.199-3.837.61-2.052.44-4.41-.482-6.643-.92-2.23-2.464-4.025-4.346-5.053-1.027-.562-2.08-.845-3.085-.845M27.447 29c-4.93 0-9.922-3.5-12.22-9.068-1.367-3.312-1.6-6.881-.657-10.052 1.003-3.369 3.194-5.896 6.17-7.12 2.974-1.221 6.314-.964 9.404.723 2.908 1.589 5.263 4.288 6.63 7.599 1.366 3.312 1.6 6.882.656 10.053-1.003 3.368-3.194 5.896-6.169 7.118a10 10 0 0 1-3.814.747m84.148-23.869c-.659 0-1.297.123-1.895.367-1.512.62-2.648 1.983-3.2 3.835-.611 2.05-.44 4.408.481 6.639.922 2.23 2.466 4.025 4.348 5.052 1.702.929 3.472 1.098 4.983.477 3.32-1.362 4.541-6.061 2.719-10.473-.922-2.23-2.466-4.025-4.35-5.052-1.026-.56-2.08-.845-3.086-.845M114.41 27c-1.853 0-3.744-.498-5.55-1.483-2.908-1.588-5.265-4.285-6.632-7.594-1.367-3.31-1.6-6.879-.656-10.048 1.002-3.366 3.194-5.893 6.171-7.114 2.976-1.222 6.318-.965 9.41.722 2.91 1.588 5.265 4.284 6.633 7.594 2.901 7.025.428 14.724-5.515 17.162-1.24.508-2.54.761-3.86.761" fill="#212327"/><path d="M52.377 59a2.622 2.622 0 0 1-2.445-1.665C45.027 44.746 38.572 34.348 30.75 26.43a2.593 2.593 0 0 1 .035-3.684 2.634 2.634 0 0 1 3.708.034c8.327 8.428 15.167 19.42 20.33 32.674a2.602 2.602 0 0 1-1.499 3.37 2.64 2.64 0 0 1-.947.176m66.32 7a2.82 2.82 0 0 1-.967-.17c-1.39-.508-2.084-1.992-1.55-3.313 7.57-18.742.094-36.812.018-36.993-.556-1.312.11-2.806 1.49-3.336 1.378-.53 2.948.1 3.506 1.41.347.81 8.374 20.073.02 40.757-.412 1.02-1.433 1.645-2.517 1.645" fill="#212327"/><path d="M19.053 14a9.127 9.127 0 0 1-.053-.988c0-2.27.828-4.212 2-5.012-.746.848-1.313 2.059-1.641 3.535A13.43 13.43 0 0 0 19.053 14" fill="#9B9C9E"/><path d="M187.434 204.374c-3.39 6.024-8.453 12.14-15.963 17.603a5.274 5.274 0 0 1-2.16.93c-1.935.366-4.008-.35-5.262-2.005-1.748-2.304-1.262-5.554 1.092-7.265 6.424-4.668 10.625-9.935 13.354-15.068 6.686-12.532 4.576-24.252 4.544-24.417-.543-2.81 1.343-5.517 4.214-6.061h.019c2.878-.532 5.656 1.32 6.193 4.137.175.88 2.934 16.198-6.03 32.146" fill="#FFCD01"/><path d="M187.717 171.062c-.165 0-.333.015-.502.047-1.468.277-2.43 1.667-2.155 3.1.047.247 4.491 24.945-18.81 41.94a2.63 2.63 0 0 0-1.062 1.745c-.105.7.074 1.401.504 1.97a2.711 2.711 0 0 0 2.684 1.025 2.707 2.707 0 0 0 1.097-.476c25.973-18.943 21.119-46.043 20.9-47.188-.245-1.273-1.382-2.163-2.656-2.163M167.884 226c-2.46 0-4.84-1.141-6.332-3.116a7.572 7.572 0 0 1-1.467-5.731 7.652 7.652 0 0 1 3.091-5.07c20.518-14.966 16.852-36.733 16.812-36.95-.796-4.154 2.002-8.195 6.243-8.997 4.289-.793 8.406 1.968 9.21 6.152.243 1.272 5.64 31.38-22.893 52.191a7.861 7.861 0 0 1-3.196 1.384h-.002a7.95 7.95 0 0 1-1.466.137" fill="#212327"/><path d="M259.805 254.137a5.298 5.298 0 0 1-6.519 3.67c-8.05-2.236-14.394-5.85-19.38-10.018l-.007-.006c-14.83-12.392-17.688-29.734-17.837-30.703a5.28 5.28 0 0 1 4.426-6.018 5.295 5.295 0 0 1 6.033 4.403c.094.603 1.494 8.702 7.378 16.852 4.414 6.136 11.375 12.304 22.226 15.316 2.814.783 4.464 3.696 3.68 6.504" fill="#FFCD01"/><path d="M221.69 215.04a2.646 2.646 0 0 0-2.615 3.043c.186 1.2 4.864 29.521 34.526 37.777.233.065.474.099.712.099a2.65 2.65 0 0 0 2.544-1.935 2.645 2.645 0 0 0-1.838-3.254c-26.2-7.294-30.543-32.418-30.716-33.484a2.651 2.651 0 0 0-2.612-2.245M254.313 261a7.74 7.74 0 0 1-2.064-.283c-32.767-9.121-37.954-40.537-38.16-41.87-.642-4.188 2.246-8.116 6.435-8.759 4.178-.636 8.11 2.234 8.762 6.407.149.924 3.964 22.982 27.087 29.42 4.085 1.136 6.481 5.382 5.345 9.462a7.713 7.713 0 0 1-7.405 5.623" fill="#212327"/><path d="m205 99-14-1c4.156.044 8.38.281 12.627.712.06.01.123.019.187.025.378.039.756.08 1.134.121L205 99" fill="#C4B096"/><path d="m208 99-2.945-.585L205 98c1.002.307 2 .64 3 1" fill="#968D9E"/><path d="m223.446 101-16.092-1.7a99.038 99.038 0 0 0-3.801-.655c-.06-.01-.12-.02-.178-.035a91.09 91.09 0 0 0-12.079-1.007l-5.296-.56.204-.384c5.481-.068 10.582-1.37 15.269-3.659.914.111 1.83.238 2.747.376.062.009.122.02.182.034a106.136 106.136 0 0 1 18.06 4.432c.848.286 1.694.586 2.538.895-.512.752-1.027 1.504-1.554 2.263m48.714 34a106.885 106.885 0 0 0-11.693-11.965v-.007A115.348 115.348 0 0 0 244 111c2.24.61 4.56 1.049 6.93 1.322a117.085 117.085 0 0 1 11.283 8.738c.04.035.077.071.114.108a110.51 110.51 0 0 1 10.805 10.887c.635.737 1.258 1.48 1.868 2.23a152.8 152.8 0 0 1-2.84.715" fill="#292135"/><path d="M48.538 118.023c7.685.519 13.226 9.659 12.376 20.416-.848 10.756-7.767 19.056-15.452 18.538-7.684-.519-13.225-9.659-12.376-20.416.85-10.756 7.768-19.056 15.452-18.538" fill="#232325"/><path d="M48.538 118.023c7.685.519 13.226 9.659 12.376 20.416-.848 10.756-7.767 19.056-15.452 18.538-7.684-.519-13.225-9.659-12.376-20.416.85-10.756 7.768-19.056 15.452-18.538" fill="#232325"/><path d="M50.19 131.542c2.232 1.37 2.621 5.146.87 8.43-1.752 3.285-4.98 4.837-7.214 3.466-2.232-1.372-2.622-5.146-.87-8.431 1.752-3.285 4.98-4.837 7.214-3.465" fill="#FFCD01"/><path d="M105.538 118.023c7.685.519 13.226 9.659 12.376 20.416-.848 10.756-7.767 19.056-15.452 18.538-7.684-.519-13.225-9.659-12.376-20.416.85-10.756 7.768-19.056 15.452-18.538" fill="#232325"/><path d="M105.538 118.023c7.685.519 13.226 9.659 12.376 20.416-.848 10.756-7.767 19.056-15.452 18.538-7.684-.519-13.225-9.659-12.376-20.416.85-10.756 7.768-19.056 15.452-18.538" fill="#232325"/><path d="M107.19 131.542c2.232 1.37 2.621 5.146.87 8.43-1.752 3.285-4.98 4.837-7.214 3.466-2.232-1.372-2.622-5.146-.87-8.431 1.752-3.285 4.98-4.837 7.214-3.465" fill="#FFCD01"/></g></svg>
