<svg xmlns="http://www.w3.org/2000/svg" width="244" height="200" viewBox="0 0 244 200"><g fill="none" fill-rule="evenodd"><path fill="#2563EB" fill-rule="nonzero" d="M78.495 199.54c-11.835-.402-22.447-3.912-31.534-11.156-10.347-8.248-17.134-18.833-19.172-32.137-.216-1.408-.472-2.849-.39-4.256.122-2.07-.935-3.022-2.603-3.955-14.753-8.244-22.998-21.032-24.557-37.651-1.57-16.75 4.602-30.722 17.959-41.048 3.05-2.358 4.022-4.334 3.878-8.18-.77-20.529 13.173-38.95 32.671-43.783 1.97-.488 3.969-.967 6.006-.748 1.961.211 3.163-.58 4.295-2.155C70.265 7.212 77.225 2.459 86.052.778c13.762-2.621 25.131 1.838 34.448 12.046.35.384.678.787.974 1.132.744-.018.964-.562 1.285-.952 14.009-17.017 38.922-17.43 53.431-.664 2.423 2.8 4.677 4.095 8.484 4.524 10.223 1.153 18.83 6.036 25.591 13.831 7.969 9.188 12.153 19.76 10.937 32.111-.23 2.333.294 3.954 2.462 5.442 11.075 7.599 17.494 18.335 19.485 31.477 2.943 19.431-6.932 39.449-23.721 47.992-3.067 1.56-2.826 3.945-3.105 6.297-2.426 20.454-13.88 34.239-32.426 41.752-17.858 7.235-35.234 5.228-51.095-6.256-3.742-2.709-6.768-6.173-9.431-9.946-.334-.474-.499-1.118-1.512-1.396-10.338 15.014-25.193 21.37-43.364 21.372m-37.552-37.664c3.753 9.272 9.891 16.426 18.797 21.099 15.305 8.03 32.808 6.656 45.274-3.746 6.53-5.45 10.983-12.074 10.824-21.089-.037-2.127-.763-2.812-2.75-3.149-10.726-1.82-18.365-7.766-22.97-17.61-.795-1.701-.887-3.537-.348-5.29.713-2.32 2.503-3.597 4.864-3.757 2.357-.16 4.273.911 5.384 3.028 1.227 2.34 2.402 4.694 4.343 6.545 3.106 2.961 6.71 4.883 10.885 5.425.602-.758.478-1.383.478-1.97.003-36.937.012-73.874-.029-110.81-.003-3.217-1.042-6.205-2.897-8.868-6.997-10.047-22.885-13.222-34.248-5.097a14.5 14.5 0 0 0-4.614 5.435c.614.442 1.047.73 1.452 1.052 2.128 1.69 3.062 3.925 2.593 6.572-.48 2.704-2.324 4.372-4.882 5.095-3.173.897-5.556-.581-7.47-2.968-2.16-2.694-4.866-3.419-8.226-2.849-7.973 1.353-13.678 5.994-18.064 12.407-4.12 6.027-6.691 12.582-5.57 20.134.186 1.253.682 1.667 1.876 1.643 2.256-.045 4.517-.086 6.77.022 3.617.174 6.29 2.767 6.213 5.885-.078 3.136-2.86 5.6-6.423 5.668-1.43.027-2.86-.011-4.288.022-5.55.13-10.391 2.069-14.637 5.64-13.887 11.678-14.891 33.211-5.113 47.094 8.246 11.707 26.738 18.372 40.04 9.366 2.161-1.462 5.384-.752 7.043 1.078 1.898 2.093 2.122 4.875.516 7.262-1.293 1.922-3.12 3.23-5.171 4.248-6.331 3.14-13.08 3.728-20 3.288-.505-.032-1.038-.305-1.609.274.089 2.907.748 5.795 1.957 8.92m86.82-24.388c.001 1.354.038 2.709-.005 4.061-.053 1.688.695 2.09 2.258 1.682 6.02-1.567 10.528-4.93 13.19-10.666 1.743-3.755 5.03-5.165 8.252-3.706 2.734 1.238 3.76 4.93 2.403 8.476-1.65 4.311-4.268 7.913-7.787 10.885-4.6 3.883-9.965 6.084-15.816 7.208-.983.189-2.058.22-2.036 1.587.036 2.245-.28 4.5.344 6.727 2.501 8.94 8.307 15.254 16.166 19.685 7.566 4.266 15.802 5.2 24.43 4.351 16.673-1.641 31.708-14.59 35.353-30.935.29-1.305 1.063-2.687.242-4.185-4.391.294-8.73.461-13.06-.321-4.517-.817-8.697-2.4-12.333-5.213-2.11-1.631-3.634-3.723-2.98-6.595.953-4.175 5.357-5.8 9.328-3.234 7.087 4.582 14.73 4.454 22.378 2.552 11.925-2.966 22.79-15.526 23.757-30.12.683-10.305-1.81-19.367-9.083-26.869-6.647-6.856-14.343-10.135-23.987-7.014-2.59.839-5.112.208-6.892-2.099-1.578-2.046-2.16-4.326-.942-6.743 1.26-2.497 3.443-3.773 6.185-3.868 3.305-.113 6.618-.092 9.925 0 1.737.048 2.476-.396 2.643-2.342.827-9.648-2.725-17.553-9.534-24.066-4.085-3.908-9.013-6.48-14.642-7.55-1.814-.344-2.832.01-2.728 2.224.151 3.227.036 6.467.026 9.702-.011 3.905-2.35 6.487-5.89 6.511-3.477.025-5.647-2.38-5.685-6.39-.034-3.535-.041-7.071.02-10.606.041-2.32-.552-4.471-1.517-6.527-4.812-10.258-17.165-14.817-28.442-10.424-6.787 2.643-11.645 7.115-12.915 14.647a44 44 0 0 0-.633 7.397c.024 33.777.01 67.553.007 101.778"/><path fill="#2563EB" fill-rule="nonzero" d="M90.407 111.397c-10.51 8.009-24.022 2.083-26.743-9.127-2.734-11.264 6.438-21.692 17.956-20.3 7.212.873 11.877 4.92 14.009 11.61 2.187 6.862.179 12.837-5.223 17.816M76.515 99.562c1.249.03 2.367-.416 3.34-1.123 1.61-1.173 2.581-2.822 2.259-4.809-.372-2.292-1.764-3.88-4.088-4.602-2.008-.623-3.52.165-4.81 1.54-2.927 3.12-1.606 7.016 3.299 8.994m77.62 11.714c10.51 8.008 24.022 2.082 26.743-9.128 2.734-11.264-6.438-21.692-17.957-20.298-7.212.872-11.877 4.92-14.009 11.61-2.186 6.861-.179 12.836 5.223 17.816m13.892-11.836c-1.249.03-2.367-.417-3.34-1.124-1.61-1.172-2.58-2.822-2.259-4.809.372-2.291 1.764-3.88 4.088-4.602 2.008-.623 3.52.165 4.81 1.54 2.927 3.12 1.606 7.016-3.299 8.995"/><circle cx="76.389" cy="93.877" r="6.092" fill="#FFF"/><circle cx="168.007" cy="93.877" r="6.092" fill="#FFF"/></g></svg>
