<svg width="2664" height="3040" viewBox="0 0 2664 3040" xmlns="http://www.w3.org/2000/svg"><g fill="none" fill-rule="evenodd"><path d="M2527.95 1650.06c-275.65 165.03-556.5 306.09-720.72 361.98-17.25 5.83-33.17 10.76-47.7 14.63-10.42 2.82-20.08 5.12-28.97 6.88 0 0-238.59 0-221.77-170.19.15-1.53.34-3.06.53-4.58 5.4-44.17 24.48-72.85 43.45-90.98 22.47-21.37 44.89-28.01 44.89-28.01s112.97-65.25 258.48-145.9c237.98-131.79 562.95-304.61 623.57-300.22 45.36 3.31 64.2 37.1 61.52 73.34-.52 6.69-1.76 13.53-3.72 20.27-14.15 48.91-61.1 94.94-64.01 97.8 4.96-2.39 133.42-63.91 163.25 14.69 31.12 82.12-52.44 116.59-108.8 150.29" fill="#62ED2E"/><path d="M2527.95 1650.06c-275.65 165.03-556.5 306.09-720.72 361.98-17.25 5.83-33.17 10.76-47.7 14.63l-32.51-150.02s113.68 32.51 275.12-37.62c220.52-95.8 320.63-276.45 318.38-355.85-2.25-79.45 130.7 39.19 220.67-116.07l.04-.1c-.52 6.69-1.76 13.53-3.72 20.27-14.15 48.91-61.1 94.94-64.01 97.8 4.96-2.39 133.42-63.91 163.25 14.69 31.12 82.12-52.44 116.59-108.8 150.29m-671.81-56.17c-65.25 85.19-140.54 154.22-220.09 203.79-22.47-11.52-49.96-22.13-83.28-29.88 22.47-21.37 44.89-28.01 44.89-28.01s112.97-65.25 258.48-145.9" fill="#31C418"/><path d="M1730.52 2053.55c-9.37 0-17.74-6.62-19.6-16.16-2.13-10.84 4.94-21.35 15.78-23.47 135.27-26.5 460.54-183.17 791-381.02 6.62-3.96 13.62-7.94 20.75-12 61.03-34.69 99.54-61.37 79.58-114.06-4.3-11.35-11.24-18.59-21.84-22.77-34.16-13.49-93.88 9.2-114.01 19.08-8.86 4.35-19.57 1.59-25.21-6.5-5.65-8.08-4.58-19.07 2.55-25.89.44-.43 45.85-44.45 58.78-89.03 5.56-19.17 3.67-38.11-5.05-50.65-7.25-10.43-19.02-16.3-34.98-17.47-.58-.04-1.2-.06-1.85-.06-73.59 0-570.16 271.03-868.73 443.56-9.57 5.52-21.8 2.25-27.32-7.32-5.53-9.56-2.26-21.79 7.31-27.32 1.96-1.13 198.73-114.74 404.9-226.01 421.73-227.61 470.32-224.06 488.6-222.74 35.6 2.6 54.95 20.2 64.9 34.51 15.78 22.69 19.66 53.54 10.64 84.64-5.27 18.16-14.4 35.74-24.34 51.21 25.54-5.25 54.17-6.79 78.43 2.75 20.96 8.26 36.39 24.11 44.62 45.84 33.59 88.65-42.01 131.63-97.21 163-6.87 3.91-13.6 7.74-19.98 11.55-333.98 199.96-664.54 358.67-803.85 385.95-1.3.26-2.6.38-3.87.38" fill="#371A45"/><path d="M1606.32 2647.46c-212.12 57.66-363.75 77.83-363.75 103.79 0 25.91 68.55 241.41-70.38 258.57-233.43 28.78-262.82-25.91-253.79-80.26.05-.34.1-.62.19-.96 9.85-53.78 86.29-64.92 86.29-64.92s-168.8-145.76-107.7-321.58c37.09-106.75 127.06-145.23 200.21-158.23 59.42-10.57 107.75-4.4 107.75-4.4s436.93 258.29 401.18 267.99" fill="#62ED2E"/><path d="M908.83 2574.41c1.84-8.51 4.23-17.1 7.24-25.76 24.05-69.22 74.84-115.36 151.06-137.3-.81 8.67-1.34 17.42-1.46 26.25-60.66 18.79-123.71 57.79-156.84 136.81" fill="#D0FAC0"/><path d="M1606.32 2647.46c-212.12 57.66-363.75 77.83-363.75 103.79 0 25.91 68.55 241.41-70.38 258.57-233.43 28.78-262.82-25.91-253.79-80.26.05-.34.1-.62.19-.96 11.48 16.64 39.68 36.38 108.38 36.38 118.93 0 185.58-21.94 191.5-81.84 5.88-59.9-17.87-154.27-24.47-168.7-22.76-50.2-197.39-121.76-105.17-315.08 2.58-5.41 5.4-10.57 8.56-15.49 59.42-10.57 107.75-4.4 107.75-4.4s436.93 258.29 401.18 267.99" fill="#31C418"/><path d="M1168.92 2397.69c-22.86 0-55.01 1.97-89.01 10.26-83.34 20.34-138.47 67.68-163.84 140.7-55.82 160.67 100.32 298.53 101.9 299.91l32.96 28.59-43.16 6.32c-.58.09-63.05 9.99-69.62 49.37-2.93 17.6-.32 29.54 8.49 38.73 17.95 18.73 71.22 37.13 223.11 18.39 22.56-2.78 39.01-11.68 50.29-27.21 33.46-46.06 15.57-138.34 6.97-182.69-2.99-15.4-4.42-23.05-4.42-28.83 0-32.37 44.25-42.61 175.6-73 48.91-11.31 108.26-25.04 173.76-42.26-55.18-42.92-219.34-146-373.22-237.06-5.32-.48-15.83-1.22-29.81-1.22m-109.52 640.15c-70.9 0-116.84-12.72-141.64-38.59-17.65-18.42-24.07-42.98-19.07-72.99 6.76-40.5 40.62-61.76 67.79-72.46-47.11-50.97-138.39-173.8-88.19-318.28 29.82-85.84 96.7-143.5 193.4-166.73 71.34-17.14 133.38-9.5 135.99-9.17l4.09.52 3.55 2.1c1.02.6 103.05 60.97 203.35 123.69 213.43 133.48 211.72 146.2 209.54 162.3-1.21 8.98-7.59 16.09-16.63 18.55-77.78 21.13-147.97 37.37-204.37 50.43-62.21 14.39-126.38 29.23-143.91 39.29.72 4.32 1.9 10.37 2.98 15.95 9.67 49.88 29.8 153.69-13.88 213.81-17.9 24.65-44.06 39.25-77.75 43.4-44.05 5.44-82.34 8.18-115.25 8.18" fill="#371A45"/><path d="m1297.93 1775.31-27.11 109.57-64.35 260.53s-19.26-.56-51.77-3.15c-121.66-9.56-428.47-47.14-602.24-187.68-26.25-21.22-47.76-43.79-65.02-67.12h-.05c-93.6-126.16-64.917-276.02-5.02-373.64a519.727 519.727 0 0 1 41.69-58.28c165.65-200.68 466.53-266.13 558.84-156.41 168.85 200.68-154.69 298.73-144.9 418.05 6.6 80.5 168.03 78.83 272.44 69.22 50.39-4.59 87.49-11.09 87.49-11.09" fill="#62ED2E"/><path d="m1261.26 1923.65-54.79 221.77s-433.83-12.77-654.02-190.84c-26.24-21.23-47.75-43.79-65-67.12 4.2 3.73 198.86 173.05 469.77 146.09 166.46-16.58 260.96-74.76 304.04-109.9" fill="#31C418"/><path d="M1206.47 2165.4c-.19 0-.39-.01-.59-.01-17.99-.53-443.15-15.02-666.01-195.27-166.657-134.81-157.537-331.57-74.565-466.76 107.305-174.84 305.635-265.62 444.515-275.98 84.25-6.29 151.16 14.62 188.38 58.88 117.89 140.13 14.48 240.79-61.03 314.29-42.22 41.09-82.1 79.91-79.23 114.99.75 9.09 5.09 16.35 13.67 22.82 62.81 47.45 284.94 16.64 365.23.76 10.85-2.14 21.36 4.9 23.5 15.74 2.15 10.83-4.9 21.36-15.73 23.5-31.34 6.2-308.72 58.67-397.11-8.07-17.57-13.27-27.75-31.08-29.42-51.48-4.42-53.87 42.02-99.07 91.18-146.93 78.31-76.22 152.28-148.21 58.33-259.87-28.73-34.16-83.68-50.03-154.8-44.74-129.04 9.62-313.45 94.16-413.39 257.01-68.426 111.49-92.291 287 65.63 414.73 212.31 171.73 637.75 186.27 642.03 186.39 11.04.33 19.72 9.55 19.4 20.59-.33 10.84-9.21 19.41-19.99 19.41" fill="#371A45"/><path d="M1843.04 2638.19c-96.47 52.25-251.69 67.98-399.55 54.73-69.5-6.25-261.73 6.32-341.8-170.52-43.55-96.23 13.62-233.71 53.01-380.14 14.34-53.16 26.35-107.47 30.31-161.44 0 0-8.51-55.45-9.47-109.76-.04-3.48-.09-6.93-.09-10.37.05-28.21-10.47-54.26 34.99-74.29 27.78-12.24 76.49-22.23 161.34-29.07 73.86-5.92 133.38-.62 180.99 10.47 33.32 7.75 60.81 18.36 83.28 29.88 68.46 35.09 90.97 78.98 90.97 78.98 28.88 45.31 55.6 90.54 80.22 135.38 61.33 111.62 109.76 220.81 147 322.59 43.22 118.07-10.28 248.87-111.2 303.56" fill="#62ED2E"/><path d="M1843.04 2638.19c-96.47 52.25-251.68 67.98-399.55 54.73-69.5-6.25-261.73 6.32-341.8-170.52-8.85-19.55-13.53-40.73-15.06-63.38 82.66 166.5 268.95 154.5 337.12 160.67 147.86 13.24 303.08-2.49 399.55-54.74 85.09-46.13 136.48-146.33 124.58-247.44 2.15 5.74 4.25 11.43 6.36 17.12 43.22 118.07-10.28 248.87-111.2 303.56" fill="#31C418"/><path d="M1735.1 1871.53c28.09 37.5 53.87 76.7 77.97 116.9 12.1 20.08 23.6 40.5 34.96 61.02 11.05 20.68 22.02 41.41 32.37 62.46 20.68 42.11 40.13 84.83 58.32 128.1 9.09 21.64 17.83 43.42 26.26 65.33 8.28 21.16 16.79 45.9 21.04 70.61 3.78 24.91 4.35 50.22 1.65 75.2-2.81 25.01-9.52 49.41-18.85 72.66-9.29 23.33-22.27 45.14-37.82 64.86-15.61 19.65-33.63 37.72-54.62 51.93-42.29 28.84-88.74 43.8-135.4 55.23-46.81 10.65-94.19 16.68-141.57 19.04-47.37 2.72-94.8 2.2-142-1.34l-17.55-1.32c-5.4-.43-11.08-.73-16.82-1.02-11.49-.56-23.27-1.06-35.09-1.8-23.67-1.45-47.68-3.8-71.55-8.09-23.9-4.15-47.69-10.41-70.86-18.99-23.12-8.71-45.51-20.11-66.21-34.28a273.904 273.904 0 0 1-55.23-50.98c-15.96-19.39-29.13-40.89-39.56-63.37-1.41-2.69-2.59-5.85-3.83-8.87-1.2-3.05-2.53-6.08-3.58-9.17-1.83-6.24-4.15-12.43-5.36-18.76l-2.11-9.46-1.46-9.49c-1.13-6.34-1.39-12.64-1.98-18.94-1.7-25.24.56-49.86 4.17-73.8 7.46-47.89 20.63-93.32 33.84-138.14 26.39-89.71 55.58-176.44 71.23-266.91l.01-.04c.9-5.23 5.87-8.73 11.1-7.83 4.61.79 7.88 4.76 7.96 9.27.93 47.63-6.41 94.95-16.45 140.96-10.01 46.11-23.74 90.9-36.46 135.44-12.63 44.51-24.86 88.92-31.23 133.14-3.04 22.06-4.78 44.08-3.44 65.34 1.51 21.27 5.57 41.56 14.52 60.1 18.08 39.58 45.77 73.68 80.92 98.33 17.66 12.19 36.95 22.2 57.32 30 20.44 7.68 41.79 13.47 63.72 17.39 21.91 4.05 44.29 6.38 67.05 7.9 11.39.77 22.85 1.32 34.6 1.95 5.89.33 11.82.66 18.02 1.19l17.25 1.38c45.58 3.67 91.41 4.39 136.97 2.01 45.55-2.42 90.8-8.53 134.69-18.74 21.84-5.43 43.37-11.77 64.04-19.8 20.57-8.23 40.34-17.97 57.54-29.99 17.58-11.96 32.7-27.39 45.89-44.13 13.13-16.82 24.16-35.48 31.95-55.47 7.88-19.9 13.66-40.73 16-62.05 2.25-21.29 1.72-42.78-1.47-63.91-3.79-21.22-10.48-40.65-18.96-62.88a2248.92 2248.92 0 0 0-25.11-64.46 2362.08 2362.08 0 0 0-56-126.6c-9.9-20.84-19.94-41.64-30.33-62.26l-15.51-30.98-15.83-30.85c-21.28-41.05-43.27-81.78-65.24-122.74-2.5-4.66-.75-10.48 3.91-12.98 4.24-2.28 9.42-1.04 12.21 2.7" fill="#371A45"/><path d="M1942.57 2312.76c64.29 112.74 211.43 522.79 260.87 542.49 68.66 27.35 169.1 141.71-115.78 162.51-229.95 16.78-279.8-282.31-385.93-371.55 0 0-29.87-22.07-54.7-39.78" fill="#62ED2E"/><path d="M2087.66 3017.76c-229.94 16.78-279.8-282.29-385.92-371.55 0 0-29.88-22.08-54.7-39.76 0 0 25.4-6.36 55.67 5.05 184.75 69.59 148.47 345.03 398.43 330.34 86.22-5.06 137.06-21.13 164.26-39.53 31.51 43.88 16.01 101.3-177.74 115.45" fill="#31C418"/><path d="M1959.18 2303.29c8.66 14.99 16.15 29.91 23.48 44.9 7.28 14.99 14.29 30 21.1 45.06 13.59 30.13 26.68 60.33 39.69 90.54 25.94 60.42 51.66 120.79 77.98 180.63 13.19 29.9 26.63 59.64 40.82 88.71 7.11 14.52 14.43 28.88 22.13 42.68 3.86 6.9 7.82 13.66 11.92 20.03 4.05 6.3 8.43 12.46 12.4 16.78.96 1.02 1.89 1.92 2.57 2.51.66.59 1.19.84.51.47-1.15-.5.92.39 1.82.75 1.12.46 2.22.94 3.3 1.43 2.18.95 4.31 1.99 6.42 3.03 8.41 4.23 16.35 9.03 23.91 14.45 15.02 10.89 29.05 23.68 40.01 41.23 5.38 8.76 9.93 19.07 11.67 30.99 1.84 11.84-.05 25.38-5.58 36.34-5.4 11.07-13.24 19.47-21.23 26.08-8.06 6.55-16.47 11.52-24.87 15.71-16.85 8.29-33.85 13.52-50.72 17.72-16.91 4.19-33.75 7.16-50.56 9.5-16.8 2.34-33.56 4.03-50.29 5.3l-6.27.48-6.63.33c-4.43.28-8.89.28-13.35.3-8.91 0-17.87-.51-26.8-1.49-35.77-3.8-70.9-16.64-100.77-36.19-30-19.54-54.93-44.73-76.3-71.5-42.67-53.87-72.53-113.91-104.45-170.46-7.99-14.13-16.12-28.03-24.48-41.54-8.41-13.44-16.83-26.73-26.36-38.67-4.62-6.07-9.49-11.9-14.62-17.19-1.19-1.2-2.4-2.37-3.56-3.63l-4.64-3.91-9.33-7.84c-12.38-10.56-24.72-21.22-36.62-32.6l-.14-.13c-3.85-3.68-3.98-9.78-.31-13.63 3.07-3.2 7.82-3.82 11.55-1.81 14.65 7.92 28.87 16.57 43.06 25.32l10.58 6.65 5.3 3.34c1.93 1.45 3.8 2.98 5.7 4.5 6.99 5.79 13.39 11.95 19.43 18.35 23.79 25.98 41.37 54.98 57.85 83.77 16.52 28.78 32.08 57.57 48.59 85.36 16.48 27.8 33.9 54.68 53.62 79.09 19.72 24.33 41.92 46.11 67.19 62.27 25.24 16.16 53.54 26.21 83.14 29.18 7.4.75 14.86 1.13 22.36 1.07 3.76-.06 7.5-.07 11.28-.35l5.66-.32 6-.5c16-1.34 31.91-3.07 47.61-5.39 15.7-2.3 31.21-5.18 46.16-9.02 14.95-3.76 29.38-8.64 42.05-14.81 6.29-3.11 12.05-6.62 16.75-10.42 4.64-3.82 8.06-7.87 9.86-11.62 1.84-3.75 2.31-7.22 1.75-11.6-.62-4.35-2.57-9.5-5.79-14.68-6.38-10.45-16.84-20.56-28.35-28.81-5.78-4.17-11.94-7.88-18.19-11.03-1.57-.77-3.13-1.55-4.71-2.23l-6.18-2.68c-4.4-2.16-7.2-4.36-9.67-6.42-2.43-2.08-4.42-4.09-6.26-6.07-7.11-7.82-12.09-15.23-16.95-22.69-4.77-7.45-9.1-14.87-13.25-22.31-8.28-14.87-15.85-29.8-23.16-44.78-14.58-29.96-28.14-60.1-41.43-90.31-26.51-60.41-51.3-121.29-76.71-181.76-12.67-30.24-25.41-60.41-38.54-90.27-13.11-29.74-26.33-59.84-41.37-87.24l-.1-.19c-5.08-9.26-1.7-20.88 7.56-25.96 9.13-5.01 20.57-1.77 25.76 7.2" fill="#371A45"/><path d="M1215.39 2427.7c7.11 39.14 40.4 65.83 74.27 59.68 0 0 20.07-3.63 35.2-29.05 15.12-25.41 13.35-52.93 13.35-52.93-2.3-12.67-7.34-24.08-14.32-33.43 11.19 36.2-1.02 72.58-28.94 83.31-29.46 11.35-65.26-10.37-79.95-48.53-.2-.51-.4-1.02-.55-1.55-.72 7.28-.45 14.83.94 22.5" fill="#4EAD33"/><path d="M1215.53 2428.45c0-.04-.01-.08-.02-.12.01.04.02.08.02.12m-.03-.21-.03-.12.03.12m-.04-.21-.03-.12.03.12m10.77-.34c-4.45-6.22-8.27-13.25-11.23-20.94-.2-.51-.4-1.02-.55-1.55-.7 7.1-.46 14.46.84 21.93-6.78-38.88 14.95-75.25 48.66-81.37 3.28-.59 6.55-.88 9.79-.88 23.18 0 44.86 14.74 56.64 37.46a75.772 75.772 0 0 0-6.49-10.37c2.54 8.22 3.88 16.45 4.09 24.39-11.92-12.34-27.55-19.68-43.91-19.68-3.24 0-6.51.28-9.78.88-24.38 4.42-42.45 24.6-48.06 50.13m-10.87-.19c-.01-.04-.01-.07-.02-.11.01.04.01.07.02.11m-.04-.2c0-.04-.01-.08-.02-.13.01.05.02.09.02.13" fill="#D0FAC0"/><path d="M1224.92 2453.8c-4.27-7.39-7.48-15.74-9.27-24.75 0-.01 0-.03-.01-.04l-.03-.16c0-.02-.01-.05-.01-.07l-.03-.13c0-.03-.01-.07-.02-.1 0-.03-.01-.07-.02-.1 0-.04-.01-.08-.02-.12 0-.03-.01-.06-.01-.09l-.03-.12c0-.03-.01-.06-.01-.09l-.03-.12c-.01-.07-.02-.14-.04-.21l-.03-.2c-.01-.04-.01-.07-.02-.11-.01-.03-.01-.06-.02-.09 0-.04-.01-.08-.02-.13 0-.01 0-.03-.01-.04-1.3-7.47-1.54-14.83-.84-21.93.15.53.35 1.04.55 1.55 2.96 7.69 6.78 14.72 11.23 20.94-1.81 8.26-2.32 17.08-1.31 26.11m111.99-46.18c-2.65-4.1-5.65-7.87-8.93-11.26-.21-7.94-1.55-16.17-4.09-24.39 2.4 3.22 4.58 6.69 6.49 10.37 3.6 6.93 6.27 14.61 7.79 22.84v.03c.02.06.03.13.04.19l-1.3 2.22" fill="#CAE6C1"/><path d="M1328.82 2407.13c-4.17-11.1-9.88-21.1-17.64-28.68-7.5-7.77-16.83-12.88-25.97-15.06-4.62-.99-9.2-1.16-13.64-.72a41.63 41.63 0 0 0-12.69 3.76c-7.76 4.11-14.47 10.69-18.96 19.21-9.17 16.88-9.23 39.81-.51 58.48 8.7 18.62 26.24 33.48 48.56 33.84l.62.01c5.32.09 9.56 4.47 9.47 9.79-.07 4.23-2.86 7.78-6.67 9.02-7.46 2.4-15.55 3.27-23.63 2.71-8.1-.64-15.99-3-23.39-6.34-14.77-6.89-26.97-18.53-35.32-32.3-4.43-6.79-7.31-14.39-9.82-22.03-2.13-7.75-3.67-15.71-3.89-23.85-.19-8.11.28-16.34 2.29-24.37 1.83-8.03 4.65-15.94 8.84-23.26 7.95-14.74 21.11-27.55 37.43-34.41a77.485 77.485 0 0 1 25.58-5.62c8.77-.23 17.43 1.35 25.47 4.08 8.1 2.69 15.35 7.01 21.74 12.07 6.43 5.02 11.88 10.98 16.31 17.47 8.97 12.94 13.79 28 14.64 42.78.3 5.31-3.75 9.86-9.06 10.16-4.3.25-8.11-2.37-9.56-6.21l-.2-.53" fill="#371A45"/><path d="M1255.45 2436.21c2.1.35 6.77-8.83 18.61-19.15 14.91 5.4 22.47 12.4 24.28 11.27 1.79-1.13-2.31-11.92-16.38-18.56 10.64-11.27 10.66-22.75 8.55-23.1-2.1-.35-6.73 8.79-18.62 19.15-14.91-5.4-22.46-12.39-24.26-11.27-1.8 1.13 2.26 11.92 16.37 18.56-10.64 11.24-10.65 22.75-8.55 23.1" fill="#371A45"/><path d="M2116.23 768.96c136.15 503.98-362.26 982.45-647.56 1059.53-285.3 77.07-956.86-85.31-1093.013-589.3C239.5 735.22 484.01 185.442 987.99 49.283c503.98-136.153 992.08 215.69 1128.24 719.677" fill="#62ED2E"/><path d="M2116.23 768.96c136.15 503.98-362.26 982.45-647.56 1059.53-285.3 77.07-956.86-85.31-1093.013-589.3C239.5 735.22 484.01 185.442 987.99 49.283c503.98-136.153 992.08 215.69 1128.24 719.677" fill="#62ED2E"/><path d="M1636.05 1797.68c-41.35 25.77-83.9 46.32-126.73 61.1-11.57 4.01-23.14 7.6-34.76 10.75-60.37 16.45-129.6 21.61-203.74 15.35-30.98-2.58-62.86-7.17-95.27-13.82-220.05-44.79-466.72-181.94-651.49-415.51 165.64-200.69 466.53-266.13 558.84-156.42 168.85 200.68-154.69 298.73-144.9 418.05 6.6 80.5 168.04 78.83 272.44 69.22 27.78-12.24 76.49-22.23 161.34-29.06 73.86-5.94 133.38-.62 180.99 10.46 33.32 7.75 60.81 18.36 83.28 29.88" fill="#31C418"/><path d="M2116.23 768.96c136.15 503.98-362.26 982.45-647.56 1059.53-285.3 77.07-956.86-85.31-1093.013-589.3C239.5 735.22 484.01 185.442 987.99 49.283c503.98-136.153 992.08 215.69 1128.24 719.677" fill="#62ED2E"/><path d="M368.36 1101.99c-14.577-105.77-13.283-213.78 4.774-319.03 18.759-110.56 55.994-218.1 111.106-315.638 54.89-97.584 128.37-184.738 216.4-253.605a815.826 815.826 0 0 1 141.53-89.142c50.09-24.748 102.79-44.12 156.85-58.374a821.211 821.211 0 0 1 209.45-27.2c41.12 0 82.25 3.113 122.93 9.388 110.49 16.98 217.19 56.916 313.17 114.612 96.1 57.667 181.43 132.998 252.57 219.763a1049.893 1049.893 0 0 1 104.58 154.286c-125.74-188.83-307.78-331.121-515.18-395.79 19.93 14.529 30.97 31.02 29.92 47.9-2.68 42.627-81.93 73.11-182.96 73.11-10.57 0-21.37-.333-32.35-1.02-115.93-7.32-207.48-51.438-204.51-98.58 1.48-23.512 26.2-43.305 65.01-56.403-48.13 4.302-96.7 12.903-145.42 26.05-431 116.44-672.254 535.503-647.87 969.673" fill="#C0F8AB"/><path d="M1546.49 1789.41c22.55-17.94 46.11-33.38 70.06-48.29 23.51-14.34 46.95-30.23 69.49-46.83 45.19-33.32 87.83-70.21 127.76-109.79 79.58-79.33 149.81-168.65 203.2-267.26 53.66-98.15 90.77-205.99 100.34-316.95 4.87-55.38 2.71-111.28-6.46-166.03-4.58-27.47-10.98-54.23-19.04-81.28-7.91-26.94-16.87-53.57-26.86-79.81-39.85-105-96.85-203.468-167.84-290.406-71.14-86.765-156.47-162.096-252.57-219.763-95.98-57.696-202.68-97.632-313.17-114.612-110.46-17.042-224.25-10.747-332.38 17.812-54.06 14.255-106.76 33.626-156.85 58.374a815.826 815.826 0 0 0-141.53 89.142c-88.03 68.867-161.51 156.02-216.4 253.605C429.128 564.86 391.893 672.4 373.134 782.96c-18.974 110.59-19.438 224.26-2.428 335.14 4.288 27.73 9.719 55.27 16.19 82.55 6.512 27.41 13.817 54.17 23.153 80.23 18.51 52.24 43.799 102.02 74.97 147.93 31.06 45.99 67.86 88.16 108.75 126.03 40.81 37.97 85.74 71.64 133.18 101.34 94.95 59.45 199.79 103.43 308.4 132.63 54.32 14.56 109.68 25.41 165.46 31.99 27.92 3.33 55.8 5.35 83.94 6.53 27.99 1.7 55.94 3.86 84.06 7.68l.18.03c5.36.72 9.11 5.66 8.38 11.02-.51 3.82-3.18 6.83-6.61 7.98-14.36 4.77-28.98 7.36-43.54 9.03-14.53 1.65-29.23 2.32-43.75 2.12-29.02-.47-58.19-2.83-87.06-5.99-57.83-6.49-115.03-17.38-171.22-32.11-112.24-29.63-221.05-74.11-320.15-135.91-49.43-30.98-96.41-66.22-139.29-106.18-42.96-39.84-81.82-84.39-114.736-133.19-33.037-48.7-59.923-101.71-79.418-157.33-9.867-27.8-17.554-56.31-24.175-84.52-6.645-28.36-12.205-56.97-16.584-85.76-17.348-115.17-16.554-233.12 3.452-347.92 19.787-114.77 58.757-226.47 116.448-327.942 28.834-50.716 62.324-98.841 100.134-143.376 37.85-44.486 80.15-85.265 126.18-121.338a852.904 852.904 0 0 1 148.2-93.343c52.45-25.915 107.59-46.19 164.07-61.071 112.97-29.855 232.27-36.476 347.89-18.625 115.67 17.779 227.11 59.545 327.06 119.636 100.08 60.057 188.67 138.318 262.46 228.32 73.64 90.185 132.69 192.209 173.98 301.009 10.36 27.19 19.64 54.78 27.84 82.7 8.22 27.74 15.37 56.64 20.22 85.56 9.905 57.98 12.38 117.25 7.42 175.79-9.88 117.29-47.94 230.61-103.27 333.11-27.69 51.33-59.75 100.15-95.05 146.38a1174.108 1174.108 0 0 1-115.62 130.36c-41.66 40.51-86.07 78.22-133.26 112.31-23.71 16.97-47.58 33.31-73.3 48.05-25.42 13.9-51.98 26.06-80.98 32.86-5.26 1.24-10.52-2.02-11.76-7.29-.9-3.8.56-7.6 3.43-9.88l.11-.09" fill="#371A45"/><path d="M612.06 1304.76c-33.9 81.84-12.11 253.99 171.87 374.06 183.97 120.07 410.71 52.77 445.5-43.46 26.7-73.89-1.91-234.26-185.88-354.33s-396.78-60.06-431.49 23.73" fill="#371A45"/><path d="M1198.52 1486.93c-23.75-33.56-55.34-67.17-96.4-98.77-1.25-3.83-2.9-7.6-4.97-11.3-24.81-44.18-73.67-61.86-73.67-61.86s1.41-10.59-1.75-24.09c3.64 2.21 7.27 4.5 10.89 6.87 90.26 58.91 141.2 127.02 166.06 188.41-.05.25-.11.5-.16.74m-579.35-122.9c1.33-19.44 5.28-36.93 11.36-51.61 10.86-26.21 45.42-50.55 92.44-65.08 27.23-8.43 60.23-13.73 96.51-13.73 19.05 0 39.01 1.46 59.51 4.71-22.75 4.05-47.09 10.76-72.23 19.85-50.45 18.24-104.18 46.12-154.81 81.52a.55.55 0 0 1-.09.07c-.04.02-.05.03-.08.06a715.521 715.521 0 0 0-32.61 24.21" fill="#AFA3B5"/><path d="M1000.43 1723.07c-45.59 0-95.48-8.24-144.96-28.89.07-.42.15-.85.24-1.27 7.36-37.49 33.53-60.63 67.13-83.77a395.76 395.76 0 0 0 42.05 2.24c112.67 0 207.43-48.41 228.92-107.89 1.85-5.11 3.43-10.65 4.71-16.56.36.51.71 1.02 1.07 1.52 22.54 56.97 22.65 107.95 11.03 140.1-11.26 31.16-49.21 60.2-101.52 77.7-30.56 10.23-67.89 16.82-108.67 16.82" fill="#2A1A3B"/><path d="M1199.59 1488.45c-.36-.5-.71-1.01-1.07-1.52.05-.24.11-.49.16-.74.31.75.61 1.51.91 2.26" fill="#787383"/><path d="M1912.93 953.31c70.49 53.64 138.36 213.34 39.88 409.72-98.48 196.38-328.26 252.42-406.78 186.79-60.28-50.38-116.32-203.35-17.84-399.72 98.48-196.38 312.54-251.7 384.74-196.79" fill="#371A45"/><path d="M1498.99 1483.15c-32.63-74.43-41.22-192.65 29.2-333.07 11.79-23.5 25.24-44.99 39.9-64.5-14.66 19.52-28.11 41.01-39.9 64.52-70.39 140.38-61.84 258.56-29.21 332.96 0 .03.01.06.01.09m467.09-464.84c-15.4-28.45-34.18-50.56-53.15-65-14.41-10.96-34.45-17.53-58.11-19.46 23.66 1.93 43.71 8.5 58.11 19.46 18.97 14.43 37.75 36.55 53.15 64.99v.01" fill="#C0F8AB"/><path d="M1498.98 1483.06c-32.63-74.4-41.18-192.58 29.21-332.96 11.79-23.51 25.24-45 39.9-64.52 78.3-104.23 191.25-152.33 271.56-152.33 5.2 0 10.26.2 15.17.6 23.66 1.93 43.7 8.5 58.11 19.46 18.97 14.44 37.75 36.55 53.15 65 .77 14.83.62 30.22-.57 46.14-9.88-12.54-20.37-22.94-30.92-30.97-17.39-13.23-43.03-20.06-73.3-20.06-95.35 0-236.69 67.77-311.44 216.84-31.97 63.71-47.66 122.88-52.21 175.45-7.97-8.78-15.67-19.38-22.72-31.61 1.83 42.38 11.02 79.14 24.05 108.9 0 .02.01.04.01.06" fill="#AFA3B5"/><path d="M1634.76 1576.02c-36.67 0-67.98-8.84-88.73-26.17-9.05-7.57-18-17.46-26.35-29.46 8.35 11.99 17.3 21.87 26.35 29.43 20.76 17.35 52.08 26.2 88.76 26.2 22.22 0 46.41-3.25 71.4-9.83-25 6.58-49.2 9.83-71.43 9.83m358.55-326.14c0-.05.01-.08.02-.12-.01.04-.02.08-.02.12m.08-.4c.03-.16.07-.31.1-.46-.03.15-.06.3-.1.46m.11-.5c16.25-76.64 8-143.97-11.85-196.49 0-.01-.01-.03-.01-.04-.04-.09-.07-.19-.11-.28-4.58-12.1-9.79-23.41-15.45-33.87v-.01c30.26 55.86 47.47 136.18 27.42 230.69" fill="#46A32C"/><path d="M1634.79 1576.02c-36.68 0-68-8.85-88.76-26.2-9.05-7.56-18-17.44-26.35-29.43-7.52-10.79-14.54-23.31-20.71-37.39-3.04-23.73-3.73-49.59-1.33-77.29 4.21 4.63 8.49 8.76 12.79 12.36 20.76 17.35 52.1 26.2 88.78 26.2 102.08 0 245.58-68.52 318-212.95 29.9-59.67 44.48-115.93 48.3-166.87 12.52 15.89 24.07 35.21 33.5 57.49-3.4-25.28-9.46-48.54-17.36-69.45 19.85 52.52 28.1 119.85 11.85 196.49-.01.01-.01.03-.01.04-.03.15-.07.3-.1.46-.02.08-.04.19-.06.28-.01.04-.02.07-.02.12-7.7 35.87-20.76 73.78-40.52 113.17-56.65 112.99-156.81 179.52-246.6 203.14-24.99 6.58-49.18 9.83-71.4 9.83m346.85-523.57c-.04-.09-.07-.18-.11-.28.04.09.07.19.11.28" fill="#2A1A3B"/><path d="M1981.53 1052.17c-4.58-12.09-9.79-23.4-15.45-33.86v-.01c5.66 10.46 10.87 21.77 15.45 33.87" fill="#83AB7D"/><path d="M1498.97 1483c-13.03-29.76-22.22-66.52-24.05-108.9 7.05 12.23 14.75 22.83 22.72 31.61-2.4 27.7-1.71 53.56 1.33 77.29m500.04-361.06c-9.43-22.28-20.98-41.6-33.5-57.49 1.19-15.92 1.34-31.31.57-46.14 5.66 10.46 10.87 21.77 15.45 33.86.04.1.07.19.11.28 0 .01.01.02.01.04 7.9 20.91 13.96 44.17 17.36 69.45" fill="#787383"/><path d="M630.53 1312.42c-32.82 79.23-3.53 240.1 164.33 349.65 111.51 72.79 235.44 70.55 314.24 44.18 52.31-17.5 90.26-46.54 101.52-77.7 24.26-67.13-2.61-216.3-178-330.77-112.06-73.15-233.43-74.02-309.65-50.44-47.02 14.53-81.58 38.87-92.44 65.08m370.01 450.55c-71.39 0-152.11-18.17-227.54-67.4-197.55-128.93-214.89-312.83-179.42-398.46 15.59-37.64 58.45-69.71 117.57-87.99 109.96-34 238.31-13.38 343.33 55.16 194.71 127.08 222.18 299.22 193.76 377.87-15.61 43.19-61.7 80.38-126.45 102.04-34.11 11.41-75.79 18.78-121.25 18.78m839.4-809.77c-15.88 0-33.39 2.09-51.75 6.35-77.72 18.02-182.14 79.89-242.12 199.51-93.89 187.23-41.98 329.64 12.79 375.42 25.42 21.25 72.83 27.22 126.83 16 81.35-16.9 189.55-77.38 249.24-196.42 89.85-179.17 34.14-332.89-34.11-384.83-13.93-10.6-35.3-16.03-60.88-16.03Zm-205.3 642.86c-41.64 0-77.1-10.55-101.43-30.89-64.17-53.64-127.13-216.19-22.9-424.04 56.22-112.1 156.72-194.55 268.85-220.55 60.28-13.98 113.45-7.85 145.88 16.82 73.76 56.12 151.39 223.73 45.65 434.59-66.09 131.79-186.35 198.85-276.86 217.66-20.67 4.29-40.56 6.41-59.19 6.41Zm-246.7-13.56c10.2 10.16 13.89 23 8.26 28.66-5.65 5.67-18.5 2.03-28.7-8.13s-13.9-22.99-8.25-28.66c5.64-5.67 18.49-2.03 28.69 8.13m22.71-6.13c-3.7 13.91-.43 26.85 7.3 28.91 7.73 2.06 17-7.56 20.69-21.47 3.7-13.91.43-26.86-7.3-28.92-7.73-2.05-17 7.57-20.69 21.48" fill="#371A45"/><path d="M482.35 1513.82c115.31-187.89 380.62-312.12 492.99-272.78 55.43 19.4 48.11 73.96 48.11 73.96s48.88 17.71 73.68 61.87c25.27 44.99-13.09 100.04-66.17 152.05-73.51 72.04-160.76 90.23-175.25 163.99-7.93 40.31 34.73 82.42 209.53 125.04 0 0-130.79 22.69-243.13-25.47-197.14-84.49-339.76-278.66-339.76-278.66" fill="#62ED2E"/><path d="M1105.08 1408.81c.15-7.05-.8-13.95-2.99-20.67.01.01.02.02.03.02 2.17 6.71 3.11 13.61 2.96 20.65" fill="#C3BAC7"/><path d="M1102.12 1388.16c-.01 0-.02-.01-.03-.02a61.685 61.685 0 0 0-4.96-11.27c-24.8-44.16-73.68-61.87-73.68-61.87s1.42-10.59-1.73-24.09h.01c3.16 13.5 1.75 24.09 1.75 24.09s48.86 17.68 73.67 61.86c2.07 3.7 3.72 7.47 4.97 11.3" fill="#E7E3E9"/><path d="M1021.73 1290.91h-.01c-.68-2.93-1.58-6-2.75-9.13 1.17 3.13 2.07 6.2 2.76 9.13" fill="#C3BAC7"/><path d="M651.95 1339.69c50.63-35.4 104.36-63.28 154.81-81.52-50.46 18.25-104.17 46.11-154.81 81.52" fill="#E7E3E9"/><path d="M489.02 1522.52c-4.35-5.6-6.65-8.7-6.65-8.7 41.64-67.87 102.88-127.45 169.41-174 .02-.02.06-.04.08-.06a.55.55 0 0 0 .09-.07c50.64-35.41 104.35-63.27 154.81-81.52 43.75-15.83 85.06-24.41 119.85-24.41 18.24 0 34.68 2.36 48.73 7.28 25.7 9.01 37.91 25.57 43.63 40.74 1.17 3.13 2.07 6.2 2.75 9.13 3.15 13.5 1.73 24.09 1.73 24.09s48.88 17.71 73.68 61.87c2.08 3.69 3.72 7.45 4.96 11.27 2.19 6.72 3.14 13.62 2.99 20.67-.34 15.5-5.96 31.71-15.3 48.21 1.87-13.81-.23-27.19-7.27-39.77-24.8-44.12-73.66-61.86-73.66-61.86s7.32-54.54-48.14-73.95c-14.04-4.92-30.5-7.28-48.73-7.28-119.25 0-315.44 100.99-422.96 248.36" fill="#D0FAC0"/><path d="M1065.25 1837.95c-1.57 0-3.16-.18-4.75-.57-167.35-40.8-236.56-86.55-224.42-148.33 10.63-54.1 53.68-82.36 99.26-112.28 27.14-17.82 55.21-36.24 81.63-62.13 58.41-57.26 78.93-99.12 62.72-127.98-20.69-36.84-62.69-52.72-63.11-52.88l-15.01-5.55 2.06-15.89c.44-3.8 3.34-39.04-34.9-52.43-49.52-17.33-137.46 1.84-229.51 50.03-101.39 53.08-188.81 131.21-239.82 214.34-5.78 9.42-18.09 12.36-27.511 6.58-9.414-5.78-12.36-18.09-6.584-27.51 54.685-89.1 147.765-172.51 255.365-228.85 103.07-53.96 200.74-73.52 261.28-52.34 45.92 16.08 59.97 53.55 61.74 80 18.31 9.2 51.03 29.56 70.88 64.92 35.04 62.38-22.95 130.39-69.61 176.13-29.2 28.62-60.26 49.01-87.67 66.99-41.66 27.36-74.57 48.96-81.96 86.56-6.57 33.42 62.56 69.55 194.64 101.76 10.74 2.61 17.31 13.43 14.7 24.16-2.23 9.15-10.41 15.27-19.42 15.27m279.89-183.83c12.19 1.54 24.78 3.38 36.25 3.81 11.58.55 22.42-.21 31.95-2.71 9.59-2.44 17.82-6.75 25.9-13.25 7.93-6.69 15.35-15.63 23.22-25.98l.24-.31c3.32-4.37 9.55-5.21 13.91-1.9 2.73 2.08 4.08 5.35 3.89 8.53-.92 14.7-6.24 29.65-16.06 42.8-5.06 6.46-11.29 12.27-18.38 17-7.1 4.72-15.09 8.01-23.15 10.12-16.26 4.16-32.61 3.18-47.17-.72-7.32-1.98-14.29-4.63-20.85-8.01-6.61-3.51-12.6-7.11-18.59-12.42-4.05-3.61-4.42-9.81-.82-13.87a9.78 9.78 0 0 1 8.51-3.23l1.15.14" fill="#371A45"/><path d="M2138.47 1441.67c89.16-45.56 246.08-116.02 278.07-63.4 37.96 62.43-90.69 100.1-93.64 105.94-2.95 5.84-5.34 70.37-32.06 100.75" fill="#62ED2E"/><path d="M2129.77 1424.65c42.06-22.84 85.33-43.7 130.87-60.86 22.84-8.47 46.16-16.2 71.14-21.15 12.51-2.45 25.41-4.3 39.3-4.391 6.94-.03 14.19.44 21.81 1.92 7.55 1.5 15.69 4.11 23.57 8.99 3.92 2.39 7.73 5.44 11.07 9 1.72 1.73 3.21 3.68 4.67 5.64l2.01 3.03c.65 1.02 1.04 1.78 1.57 2.69 3.92 6.97 7.13 15.27 8.21 24.45 1.18 9.13-.17 18.83-3.26 27.08-3.05 8.36-7.59 15.25-12.4 21.19-9.82 11.71-20.89 19.81-31.92 26.86-11.09 6.98-22.38 12.7-33.65 17.88-5.62 2.58-11.26 5.02-16.76 7.34l-7.96 3.39-3.26 1.48c-.44.2-.66.34-.52.23.38-.27.45-.22 2.01-1.59l.45-.46c.49-.48.95-1 1.38-1.55.44-.56.84-1.14 1.19-1.74.33-.53.78-1.46.74-1.37.27-.5.5-1.04.68-1.59l-2.46 13.87c-1.06 5.97-2.38 12.03-3.83 18.1-3.02 12.1-6.86 24.28-12.56 36.01-5.58 11.68-13.01 23.32-23.84 32.17-4.13 3.39-10.22 2.77-13.6-1.37-2.51-3.05-2.82-7.18-1.14-10.49l.38-.77c9.29-18.24 12.81-40.03 15.71-62.19.75-5.56 1.33-11.18 1.99-16.92l1-8.79.64-4.77.47-2.86c.23-1.11.35-2.08 1.2-4.7.31-.88.67-1.77 1.07-2.62 0 0 .5-1 .88-1.6.42-.67.88-1.33 1.37-1.96.48-.62 1-1.22 1.54-1.77l.67-.64c2.1-1.87 2.8-2.21 3.79-2.89 1.41-.88 2.49-1.45 3.37-1.92 1.82-.94 3.3-1.63 4.75-2.32l8.27-3.81c5.32-2.44 10.48-4.85 15.54-7.35 10.09-4.98 19.78-10.31 28.55-16.2 8.74-5.85 16.61-12.44 21.81-19.08 2.56-3.28 4.48-6.51 5.39-9.33.96-2.85 1.21-5.21.82-7.82-.35-2.58-1.4-5.58-3.34-8.86-.23-.36-.51-.92-.68-1.13-.16-.21-.31-.42-.45-.65-.36-.38-.63-.82-1.03-1.16-.72-.73-1.56-1.42-2.72-2.07-4.41-2.73-13.32-4.45-23.02-4.31-9.79.06-20.43 1.5-31.12 3.64-21.44 4.4-43.29 11.24-64.87 18.99-43.23 15.72-85.84 35.06-128.09 55.15l-.06.03c-9.54 4.54-20.95.48-25.49-9.06-4.38-9.21-.7-20.19 8.15-25.02" fill="#371A45"/><path d="M878.07 1645.7c15.61-22.36 104.47-71.9 106.58-116.42 2.81-59.62-19.97-122.1-70.59-121.91-18.72.07-45.81 6.56-62 36.7-12.23 22.78 3.55 56.34-.7 57.65-10.89 3.35-83.8-16.73-138.92 41.06" fill="#62ED2E"/><path d="M862.39 1634.75c6.07-8.37 11.08-12.53 16.17-17.27 5.05-4.54 10.01-8.68 14.93-12.72 9.83-8.06 19.37-15.86 28.52-23.73 9.1-7.87 17.74-15.94 25.1-24.24 7.35-8.12 13.39-17.01 15.39-23.8.57-1.69.74-3.12.86-4.38.07-.15.07-1.05.09-1.72l.06-2.12.04-4.23c-.01-5.63-.17-11.28-.66-16.87-.99-11.16-2.95-22.18-6.15-32.42-3.23-10.19-7.62-19.68-13.17-27.08-5.58-7.46-12.07-12.42-19.31-14.61-3.71-1.13-7.38-1.6-12-1.52-4.72.1-9.33.78-13.65 1.93-8.66 2.34-16 6.82-21.96 13.41l-2.19 2.55-2.01 2.81c-.73.88-1.24 2-1.89 2.98l-.93 1.51-.53.98c-1.22 2.41-2.06 6.01-2.21 10.43-.17 4.42.31 9.47 1.21 14.91.46 2.74 1.02 5.58 1.64 8.76.32 1.63.65 3.3.99 5.48.17 1.16.36 2.32.47 4.31l.05 1.59c0 .75-.05 1.71-.13 2.54-.01.51-.35 2.69-.81 4.15l-.37 1.19c-.08.27-.55 1.4-.89 2.05-.75 1.52-1.71 2.98-2.78 4.26-.41.52-1.39 1.53-2.35 2.32-.98.82-2.07 1.55-3.2 2.18-1.13.63-2.3 1.14-3.45 1.53l-.75.21-2.05.47c-.63.13-1.5.29-1.94.33l-1.24.11c-1.83.16-2.89.13-4.09.14-2.22-.03-4.01-.14-5.74-.25l-9.49-.71c-6.02-.51-11.8-.83-17.54-.97-11.47-.3-22.68.48-33.69 2.31-21.97 3.84-42.6 13.26-61.38 27.83l-.14.11c-4.21 3.26-10.27 2.5-13.53-1.71-2.7-3.47-2.64-8.22-.17-11.6 7.98-10.92 17.98-20.71 29.48-28.66 11.5-7.95 24.43-14.02 37.88-18.04 13.42-4.13 27.36-6.13 41.01-6.77 6.83-.32 13.62-.23 20.16-.04l9.32.37c1.41.04 2.77.06 3.68.03.37-.01.89-.04.62-.05l-.84.12c-.31.06-.61.14-.89.23l-.47.15a17.8 17.8 0 0 0-3.21 1.37c-1.05.57-2.05 1.26-2.94 2.02-.89.74-1.76 1.71-2.14 2.13-.98 1.11-1.83 2.4-2.49 3.76-.29.56-.68 1.61-.75 1.79l-.31.89c-.38 1.08-.59 2.89-.61 2.99-.05.45-.07 1.01-.06 1.37v.42c.02.42-.02.02-.1-.37l-.78-3.77c-.66-2.98-1.4-6.29-2.05-9.74-1.3-6.92-2.34-14.41-2.24-22.57.1-8.12 1.35-17.19 5.43-26.21.52-1.08 1.1-2.34 1.6-3.24l1.45-2.55c1.01-1.69 1.87-3.42 3.04-5.05l3.38-4.93 3.81-4.71c10.5-12.43 25.27-21.92 40.82-26.41 7.75-2.31 15.66-3.61 23.51-3.86 7.92-.33 16.92.44 25.25 2.91 8.42 2.43 16.41 6.43 23.29 11.45 6.89 5.04 12.7 10.98 17.58 17.24 9.78 12.59 16 26.32 20.35 40.05 4.33 13.75 6.78 27.63 8.04 41.49.61 6.94.9 13.87.82 20.79l-.11 5.2-.1 2.6c-.04.9-.04 1.57-.18 2.98-.41 5-1.37 9.79-2.78 14.06-2.78 8.68-6.8 15.83-11.06 22.21-4.3 6.35-8.92 11.99-13.67 17.16-9.57 10.31-19.61 19.15-29.7 27.49-10.05 8.36-20.34 16.03-30.2 23.59-4.91 3.79-9.78 7.51-14.27 11.13-4.39 3.48-8.91 7.68-10.33 9.44l-1.07 1.32c-6.63 8.19-18.64 9.46-26.84 2.83-7.92-6.41-9.34-17.88-3.46-26.04" fill="#371A45"/><path d="M833.89 1439.11c15.98-13.66 34.42-23.71 52.81-32.08 18.41-8.39 36.98-15.28 54.1-23.25 17.07-7.94 32.73-17.12 43.66-29.27 11.07-12.03 17.42-26.93 20.32-43.6 1.8-10.42 11.71-17.39 22.13-15.58 10.42 1.81 17.39 11.72 15.58 22.13-.09.52-.2 1.04-.33 1.54l-.02.1c-2.85 10.85-6.91 21.7-12.61 31.85-5.68 10.15-13.05 19.5-21.49 27.31-17.03 15.8-37.18 24.88-56.23 32-19.21 7.09-38.08 12.38-56.06 18.9-17.94 6.46-35.06 14.15-49.99 24.94l-.04.04c-4.29 3.09-10.27 2.13-13.37-2.16-2.93-4.05-2.18-9.67 1.54-12.87m33.75 40.01c1.11 5.93 2.55 12.39 3.98 18.6 1.46 6.27 3 12.54 4.63 18.79 3.24 12.51 6.83 24.95 10.77 37.3l.02.08c1.62 5.06-1.18 10.48-6.25 12.09-4.3 1.37-8.86-.45-11.13-4.13a737.522 737.522 0 0 1-20.07-34.76c-3.21-5.89-6.32-11.83-9.37-17.83-3.08-6.06-6.01-11.92-8.98-18.41l-.07-.15c-4.43-9.67-.18-21.11 9.49-25.55 9.69-4.44 21.12-.18 25.56 9.5.66 1.42 1.14 2.99 1.42 4.47m144.89 1367.04c4.45 2.74 9.85 5.67 14.95 8.3 5.19 2.67 10.47 5.19 15.81 7.57 10.67 4.73 21.61 8.79 32.73 11.59l.29.08c5.15 1.3 8.27 6.53 6.97 11.68-1.09 4.32-4.94 7.21-9.19 7.28-13.1.19-26.02-1.07-38.75-3.07-6.35-1.01-12.67-2.2-18.96-3.56-6.39-1.42-12.38-2.82-19.15-4.82l-.36-.11c-10.23-3.03-16.07-13.79-13.03-24.02 3.04-10.23 13.79-16.05 24.01-13.02 1.66.49 3.28 1.24 4.68 2.1" fill="#371A45"/><path d="M616.4 825.42c-4.21-6.86-223.608-141.36-408.074-47.82-154.912 78.55-166.881 317.57-169.155 338.33-31.202 37.54-26.3 104.73 39.873 107.24 52.788 1.99 70.189-64.36 38.795-105.93-1.904-22.98 57.909-442.88 429.72-194.28l68.84-97.54" fill="#62ED2E"/><path d="M607.87 830.65c1.47 2.15 1.11 1.38.98 1.44l-.92-.62-2.34-1.47c-123.28-67-292.538-102.42-414.4-17.78-78.75 59.54-110.26 161.34-125.882 255.54-2.604 16.18-4.525 33.99-6.254 50.33a19.469 19.469 0 0 1-4.503 10.63c-11.37 13.45-16.721 33.93-12.488 49.31 4.607 16.77 18.149 23.89 35.61 24.99 39.186 3.62 44.127-49.74 24.208-73.73-3.12-3.8-4.134-8.44-4.106-13.08.774-27.11 6.856-53.7 14.006-79.68 40.234-144.84 147.025-246.79 303.414-195.2 50.81 16.35 96.095 43.21 137.925 73.32 4.48 3.23 5.5 9.48 2.27 13.97-3.09 4.29-8.97 5.41-13.39 2.65-42.84-26.21-87.971-48.93-135.09-61.48-105.621-28.48-182.678 14.09-229.02 110.6-20.16 42.12-34.342 88.45-40.018 134.99l-.043.5a.77.77 0 0 0-.058-.29l-3.966-10.4c27.804 36.54 27.993 96.2-11.843 125.41-27.432 18.67-62.891 15.95-90.84-2.1-41.262-28.78-37.292-90.26-7.331-125.35l-4.5 10.59c9.334-138.55 56.806-303.45 196.539-361.93 131.313-54.79 286.74-14.28 401.26 61.15l2.91 2.22 1.63 1.35c12.9 9.98-3.37 27.57-13.76 14.12" fill="#371A45"/><path d="M1528.02 583.58c-1.82-7.84 60.09-257.622 257.14-320.442 165.48-52.755 341.75 109.12 357.94 122.314 48.57 4.844 92.23 56.154 46.85 104.375-36.2 38.473-95.16 3.412-101.98-48.236-14.76-17.702-352.05-274.861-442.46 163.169l-117.49-21.18" fill="#62ED2E"/><path d="M1518.28 585.84c-.59-3.63-.2-3.9-.24-4.92l.22-2.1.52-3.63c13.29-67.22 41.57-130.574 79.4-187.744 49.89-74.498 126.59-137.131 217.18-152.532 54.6-9.058 111.76 1.597 162.08 21.519 66.43 26.192 125.4 66.314 178.29 113.508l-10.64-4.39c82.67 9.758 116.89 101.05 43.33 150.985-52.21 31.084-114.76-18.307-120.27-72.323l4.47 10.189a.77.77 0 0 0 .16.25l-.38-.328c-.66-.54-3.57-2.982-4.35-3.557-54.73-40.543-119.74-73.41-187.98-79.95-136.23-13.296-197.83 123.273-224.77 235.963-1.3 5.39-6.76 8.69-12.14 7.35-5.1-1.27-8.3-6.29-7.45-11.39 8.67-50.8 22.08-101.72 46.81-149.024 75.25-146.566 222.86-148.78 353.13-73.873 23.33 13.488 46.32 28.163 65.9 46.93 3.29 3.332 5.94 7.608 6.25 12.209 2.85 24.078 25.45 50.049 50.45 46.768 21.31-4.445 39.09-34.084 26.37-54.03-7.78-13.93-25.96-24.76-43.5-26.366-7.65-.075-15.28-8.581-20.88-12.798-83.47-66.79-187.95-130.695-298.58-116.781-80.2 12.78-147.52 65.449-196.53 130.873-38.61 52.312-69.34 112.407-86.84 175.312l-.22 1.08c-.13.05.15.85-.31-1.71 2.81 12.75-16.25 17.36-19.48 4.51" fill="#371A45"/></g></svg>