<svg width="1945" height="2879" viewBox="0 0 1945 2879" xmlns="http://www.w3.org/2000/svg" xmlns:xlink="http://www.w3.org/1999/xlink"><defs><path d="M867.31 32.22c-3.38 8.7-4.91 18.43-4.15 28.86 1.96 26.58 17.82 52.18 41.17 68.92-77.55 23.36-173.32 40.64-278.64 46.37 15.51-21.31 21.76-49.11 15.64-76.42-4.57-20.42-15.69-37.66-30.46-50.27 103.07-2.08 188.01-9.22 256.44-17.46Zm-634.69.04c68.37 8.22 153.21 15.35 256.13 17.42-14.77 12.61-25.89 29.85-30.46 50.27-6.12 27.31.13 55.11 15.64 76.42-105.23-5.73-200.92-22.98-278.44-46.31 23.4-16.74 39.3-42.36 41.26-68.98.76-10.42-.76-20.13-4.13-28.82ZM14.99 0c14.98 0 41.46 4.99 80.86 11.83a87.074 87.074 0 0 0-5.96 5.57c-4.9 5.04-9.2 10.69-12.67 16.9A79.253 79.253 0 0 0 74 40.76a71.09 71.09 0 0 0-4.04 11.81c-3.15 7.43-5.17 14.94-6.09 22.31-26.6-16.04-45.86-32.79-56.32-49.33C-4.27 6.84-2.52 0 14.99 0Zm1069.64 0c17.53 0 19.27 6.83 7.44 25.55-10.42 16.48-29.58 33.17-56.05 49.17-1.32-10.38-4.81-21.03-10.57-31.33a94.84 94.84 0 0 0-4.55-7.35c-.31-.58-.62-1.16-.94-1.74-3.47-6.2-7.77-11.86-12.66-16.89a91.453 91.453 0 0 0-5.56-5.23C1042.26 5.16 1069.4 0 1084.63 0Z" id="a"/></defs><g fill="none" fill-rule="evenodd"><g transform="translate(422.68 2544.97)"><mask id="b" fill="#fff"><use xlink:href="#a"/></mask><g/><path fill="#DAAAE6" mask="url(#b)" d="M-.1 176.37h1099.8V0H-.1z"/></g><path d="M106.84 2497.98c1.37-8.92 4.21-18.11 8.51-27.46 44.68-45.68 117.39-91.32 210.57-130.32 20.69-8.66 42-16.88 63.86-24.65-.35 6.46-.53 12.86-.53 19.19 0 1.95.1 3.88.3 5.79-126.4 44.13-224.94 99.79-282.71 157.45m1731.3 0c-57.77-57.67-156.34-113.33-282.74-157.46.2-1.91.3-3.83.3-5.78 0-6.34-.17-12.74-.53-19.2 21.88 7.77 43.19 15.99 63.9 24.66 93.17 39 165.88 84.64 210.56 130.31 4.3 9.36 7.15 18.55 8.51 27.47" fill="#DAAAE6"/><path d="M972.49 2222c-234.84 0-464.47 41.98-646.57 118.2-160.76 67.29-260.63 154.36-260.63 227.24 0 151.62 415.45 279.72 907.2 279.72 491.76 0 907.21-128.1 907.21-279.72 0-72.88-99.87-159.95-260.63-227.24-182.1-76.22-411.73-118.2-646.58-118.2m0 656.85c-526.48 0-938.89-136.79-938.89-311.41 0-88.49 102.08-181.97 280.08-256.48 185.89-77.8 419.86-120.65 658.81-120.65 238.96 0 472.93 42.85 658.82 120.65 177.99 74.51 280.08 167.99 280.08 256.48 0 174.62-412.41 311.41-938.9 311.41" fill="#371A45"/><path d="M972.49 2222c-234.84 0-464.47 41.98-646.57 118.2-160.76 67.29-260.63 154.36-260.63 227.24 0 151.62 415.45 279.72 907.2 279.72 491.76 0 907.21-128.1 907.21-279.72 0-72.88-99.87-159.95-260.63-227.24-182.1-76.22-411.73-118.2-646.58-118.2m0 656.85c-526.48 0-938.89-136.79-938.89-311.41 0-88.49 102.08-181.97 280.08-256.48 185.89-77.8 419.86-120.65 658.81-120.65 238.96 0 472.93 42.85 658.82 120.65 177.99 74.51 280.08 167.99 280.08 256.48 0 174.62-412.41 311.41-938.9 311.41" fill="#371A45"/><path d="M1895.55 2567.43c0 163.24-413.26 295.56-923.06 295.56-509.79 0-923.05-132.32-923.05-295.56 0-34.7 18.66-70.97 52.96-106.59-8.11 16.62-12.35 33.12-12.35 49.28 0 156.08 395.09 282.59 882.44 282.59 487.36 0 882.44-126.51 882.44-282.59 0-16.16-4.23-32.66-12.35-49.28 34.3 35.62 52.97 71.89 52.97 106.59" fill="#E5E5E5"/><path d="M1895.55 2567.43c0 163.24-413.26 295.56-923.06 295.56-509.79 0-923.05-132.32-923.05-295.56 0-19.35 5.81-39.2 16.92-59.11-2.23 8.61-3.35 17.12-3.35 25.56 0 160.84 407.18 291.22 909.48 291.22 502.31 0 909.49-130.38 909.49-291.22 0-8.44-1.12-16.95-3.36-25.56 11.11 19.91 16.93 39.76 16.93 59.11" fill="#FFF"/><path d="M75.33 2525.67c-6.64 14.41-10.05 28.44-10.05 41.76 0 151.62 415.45 279.72 907.21 279.72 491.76 0 907.21-128.1 907.21-279.72 0-13.32-3.4-27.35-10.05-41.76-11.2 76.9-105.49 147.21-268.35 199.37-168.19 53.85-391.5 83.51-628.81 83.51-237.3 0-460.62-29.66-628.81-83.51-162.86-52.16-257.14-122.46-268.35-199.37m897.16 353.17c-526.49 0-938.9-136.79-938.9-311.41 0-38.47 19.31-78.03 57.4-117.58 5.41-5.63 14.11-6.46 20.5-2 6.39 4.47 8.57 12.93 5.16 19.94-7.14 14.61-10.75 28.85-10.75 42.33 0 67.05 90.19 134.38 247.45 184.74 165.14 52.88 385.03 82 619.14 82 234.12 0 454-29.12 619.15-82 157.26-50.36 247.45-117.69 247.45-184.74 0-13.48-3.62-27.72-10.75-42.33a15.855 15.855 0 0 1 5.16-19.94c6.38-4.46 15.08-3.63 20.49 2 38.09 39.54 57.4 79.1 57.4 117.58 0 174.62-412.41 311.41-938.9 311.41" fill="#371A45"/><path d="M1064.01 2644.92c12.54 55.98-26.86 114.02-91.52 114.02-64.65 0-104.06-58.04-91.52-114.02 9.84-43.94 50.03-73.18 91.52-73.18 41.49 0 81.68 29.24 91.52 73.18" fill="#B554CC"/><path d="M1038.38 2641.32c9.02 40.3-19.35 82.09-65.89 82.09s-74.91-41.79-65.89-82.09c7.09-31.63 36.02-52.67 65.89-52.67 29.87 0 58.8 21.04 65.89 52.67" fill="#FFED48"/><path d="M972.49 2723.41c-45.53 0-73.69-40.01-66.41-79.5 5.49 29.8 30.54 54.61 66.41 54.61s60.92-24.81 66.41-54.61c7.28 39.49-20.88 79.5-66.41 79.5" fill="#FFCB4A"/><path d="M905.26 2649.74c.27-2.8.71-5.61 1.34-8.42a66.06 66.06 0 0 1 9.58-22.32 66.259 66.259 0 0 0-9.58 22.32c-.62 2.81-1.07 5.62-1.34 8.42m37.61-54.06c9.2-4.55 19.35-7.04 29.62-7.04 8.98 0 17.87 1.91 26.11 5.43-8.24-3.52-17.13-5.42-26.11-5.42-10.27 0-20.42 2.48-29.62 7.03" fill="#CF90DE"/><path d="M1040.01 2654.4c-.1-3.49-.47-6.99-1.11-10.49-.57 3.08-1.35 6.1-2.32 9.05-9.35-28-36.32-46.19-64.09-46.19-27.77 0-54.74 18.2-64.09 46.2a69.95 69.95 0 0 1-2.32-9.06c-.63 3.46-1 6.91-1.11 10.35.05-1.5.14-3.01.29-4.52.27-2.8.72-5.61 1.34-8.42a66.259 66.259 0 0 1 9.58-22.32c6.75-10.08 16.09-18.07 26.69-23.32 9.2-4.55 19.35-7.03 29.62-7.03 8.98 0 17.87 1.9 26.11 5.42 13.27 5.66 24.84 15.52 32.36 28.38a65.985 65.985 0 0 1 7.42 18.87c.51 2.29.9 4.57 1.17 6.86.25 2.08.4 4.15.46 6.22" fill="#FFF388"/><path d="M1039.43 2665.34c-.25-1.97-.6-3.92-1.05-5.89-.49-2.21-1.1-4.38-1.8-6.49.97-2.95 1.75-5.97 2.32-9.05.64 3.5 1.01 7 1.11 10.49.1 3.68-.09 7.35-.58 10.94m-133.88 0c-.49-3.64-.69-7.35-.58-11.08.11-3.44.48-6.89 1.11-10.35.57 3.08 1.35 6.1 2.32 9.06-.7 2.1-1.31 4.27-1.8 6.48-.45 1.97-.8 3.92-1.05 5.89" fill="#FFDD89"/><path d="M972.49 2604.49c-23.6 0-45.28 17.32-50.43 40.3-3.45 15.44.29 31.92 10.02 44.07 9.66 12.06 24.01 18.7 40.41 18.7 16.4 0 30.75-6.64 40.41-18.7 9.73-12.15 13.47-28.63 10.02-44.07-5.15-22.98-26.83-40.3-50.43-40.3Zm0 134.76c-26.22 0-49.35-10.86-65.14-30.58-15.93-19.88-21.83-45.69-16.21-70.81 8.45-37.7 42.66-65.06 81.35-65.06s72.9 27.36 81.35 65.06c5.62 25.12-.28 50.93-16.2 70.81-15.8 19.72-38.93 30.58-65.15 30.58Z" fill="#371A45"/><path d="M1633.29 2420.03c42.93 9.35 77.45 45.03 65.14 77.08-12.31 32.06-61.84 35.45-99.99 13.67-29.94-17.1-43.46-45.15-35.56-65.72 7.9-20.58 36.73-32.37 70.41-25.03" fill="#FFED48"/><path d="M1565.84 2477.98c-5.6-11.33-6.77-23-2.97-32.92 1.86-4.84 4.88-9.19 8.84-12.92-3.96 3.73-6.97 8.08-8.83 12.92-3.81 9.92-2.64 21.58 2.96 32.92m17.64-53.8c8.4-4.06 18.67-6.34 30.04-6.34 5.95 0 12.2.62 18.64 1.95-6.44-1.32-12.69-1.95-18.64-1.95-11.36 0-21.64 2.28-30.04 6.34" fill="#CF90DE"/><path d="M1572.05 2488.01a63.977 63.977 0 0 1-6.21-10.03c-5.6-11.34-6.77-23-2.96-32.92 1.86-4.84 4.87-9.19 8.83-12.92 3.31-3.11 7.27-5.79 11.77-7.96 8.4-4.06 18.68-6.34 30.04-6.34 5.95 0 12.2.63 18.64 1.95l1.13.24c29.91 6.52 55.76 25.82 64.49 47.78-12.15-16.02-33.15-29.05-56.67-34.16-6.83-1.49-13.47-2.19-19.77-2.19-24.75 0-44.35 10.82-50.64 27.21-3.42 8.89-2.83 19.17 1.35 29.34" fill="#FFF388"/><path d="M1698.44 2497.11c-12.32 32.06-61.86 35.46-100 13.66-17.28-9.87-29.1-23.4-34.47-37.03 5.29 5.27 11.66 10.12 19.02 14.33 38.14 21.8 87.68 18.4 100-13.66 3.62-9.42 3.19-19.16-.32-28.43 15.15 14.82 22.52 33.51 15.77 51.13" fill="#FFCB4A"/><path d="M1613.55 2433.69c-18.64 0-32.24 7.58-35.87 17.05-4.64 12.07 4.8 32.68 28.62 46.28 19.77 11.29 44.31 14.87 61.07 8.89 8.23-2.93 13.71-7.81 16.27-14.48 2.56-6.67 1.76-13.96-2.4-21.65-8.44-15.65-29.07-29.42-51.32-34.26-5.76-1.26-11.26-1.83-16.37-1.83Zm35.33 106.83c-19.27 0-39.91-5.48-58.29-15.98-35.74-20.41-53.61-56.23-42.5-85.16 11.11-28.94 48.37-43.61 88.58-34.83 31.72 6.91 59.49 26.14 72.47 50.18 8.61 15.97 10.03 32.59 4.08 48.07-5.94 15.46-18.11 26.87-35.2 32.96-8.96 3.2-18.86 4.76-29.14 4.76Z" fill="#371A45"/><path d="M497.14 2588.36c-25.81 46.21-6.11 99.19 51.21 105.44 57.33 6.25 107.5-39.11 111.08-87.75 2.8-38.17-25.15-66.83-61.94-70.84-36.79-4.01-80.09 16.88-100.35 53.15m950.99 0c25.82 46.21 6.11 99.19-51.21 105.44s-107.5-39.11-111.08-87.75c-2.8-38.17 25.15-66.83 61.94-70.84 36.79-4.01 80.09 16.88 100.35 53.15" fill="#B554CC"/><path d="M499.9 2579.28c-21.08 37.75-4.99 81.03 41.84 86.14 46.83 5.11 87.83-31.95 90.75-71.69 2.29-31.19-20.55-54.59-50.6-57.87-30.06-3.28-65.43 13.78-81.99 43.42" fill="#FFED48"/><path d="M541.74 2665.42c45.82 4.99 86.07-30.38 90.5-69.15-14.4 28.05-47 49.16-83.08 45.22-36.09-3.93-53.91-30.53-50.55-59.79-19.09 37.17-2.68 78.72 43.13 83.72" fill="#FFCB4A"/><path d="M496.68 2585.73c.96-2.17 2.03-4.32 3.22-6.46 3.47-6.21 7.77-11.86 12.67-16.9-4.9 5.04-9.2 10.69-12.67 16.91a77.497 77.497 0 0 0-3.22 6.45" fill="#E7C8EF"/><path d="M553.85 2538.24c6.85-1.83 13.79-2.78 20.57-2.78.72 0 1.43.01 2.14.03h-.02c-.71-.02-1.42-.03-2.12-.03-6.78 0-13.72.96-20.57 2.78" fill="#CF90DE"/><path d="M631.42 2601.54c.52-2.58.88-5.19 1.07-7.81.6-8.24-.54-15.93-3.12-22.86 2.58 6.93 3.73 14.62 3.13 22.86-.2 2.62-.56 5.23-1.08 7.81m-23.74-56.92c-7.5-4.67-16.28-7.72-25.79-8.76-1.77-.19-3.55-.32-5.35-.37h.02c1.79.05 3.57.17 5.33.37 9.51 1.03 18.29 4.09 25.79 8.76" fill="#CF90DE"/><path d="M630.3 2606.28c.9-3.3 1.56-6.64 1.94-10.01-1.49 2.9-3.17 5.73-5.03 8.46-1.06-27.95-22.78-48.4-50.72-51.45-2.46-.27-4.95-.4-7.47-.4-26.09 0-54.59 14.17-70.77 37.78-.11-2.94.01-5.93.36-8.96a75.019 75.019 0 0 0-4 9.26c.62-1.75 1.31-3.49 2.07-5.23.96-2.17 2.03-4.32 3.22-6.45 3.47-6.22 7.77-11.87 12.67-16.91 11.42-11.72 26.12-20.07 41.28-24.13 6.85-1.82 13.79-2.78 20.57-2.78a67.662 67.662 0 0 1 7.47.4c9.51 1.04 18.29 4.09 25.79 8.76 9.94 6.2 17.61 15.26 21.69 26.25 2.58 6.93 3.72 14.62 3.12 22.86-.19 2.62-.55 5.23-1.07 7.81-.31 1.59-.69 3.17-1.12 4.74" fill="#FFF388"/><path d="M626.4 2616.94a59.187 59.187 0 0 0 .81-12.21c1.86-2.73 3.54-5.56 5.03-8.46-.38 3.37-1.04 6.71-1.94 10.01a73.296 73.296 0 0 1-3.9 10.66m-134.71-14.69a66.79 66.79 0 0 1 2.92-11.29c1.09-3.1 2.43-6.19 4-9.26-.35 3.03-.47 6.02-.36 8.96a77.961 77.961 0 0 0-3.75 6.04 74.15 74.15 0 0 0-2.81 5.55" fill="#FFDD89"/><path d="M513.74 2587c-8.2 14.68-9.36 30.69-3.11 42.81 5.74 11.13 17.4 18.18 32.83 19.86 17.9 1.92 35.77-3.62 50.27-15.7 13.48-11.22 21.85-26.31 22.95-41.4 1.77-24.09-17.02-38.84-36.51-40.96-25.1-2.78-53.64 12.48-66.43 35.39Zm36.83 94.75c-3.51 0-7.02-.19-10.54-.58-26.34-2.87-46.78-15.95-57.56-36.82-11.14-21.6-9.8-48.81 3.6-72.8 18.94-33.91 60-55.51 97.54-51.44 39.69 4.32 67.5 36.48 64.68 74.79-1.74 23.61-14.23 46.73-34.28 63.42-18.35 15.29-40.56 23.43-63.44 23.43Z" fill="#371A45"/><path d="M309.24 2420.03c-42.92 9.35-77.45 45.03-65.14 77.08 12.31 32.06 61.85 35.45 99.99 13.67 29.94-17.1 43.46-45.15 35.56-65.72-7.9-20.58-36.72-32.37-70.41-25.03" fill="#FFED48"/><path d="M376.42 2478.52c5.83-11.5 7.11-23.38 3.23-33.46-1.86-4.87-4.9-9.24-8.89-12.98 3.99 3.74 7.03 8.11 8.9 12.98 3.87 10.08 2.6 21.96-3.24 33.46m-17.36-54.34c-8.4-4.06-18.68-6.34-30.04-6.34-5.96 0-12.2.63-18.64 1.95 6.44-1.33 12.68-1.95 18.64-1.95 11.36 0 21.64 2.28 30.04 6.34" fill="#CF90DE"/><path d="M370.49 2488.01c4.17-10.17 4.76-20.45 1.35-29.34-6.3-16.39-25.89-27.21-50.64-27.21-6.3 0-12.94.7-19.77 2.19-23.52 5.11-44.53 18.14-56.67 34.16 8.73-21.96 34.57-41.26 64.49-47.78.37-.08.75-.16 1.13-.24 6.44-1.32 12.68-1.95 18.64-1.95 11.36 0 21.64 2.28 30.04 6.34 4.47 2.15 8.41 4.81 11.7 7.9 3.99 3.74 7.03 8.11 8.89 12.98 3.88 10.08 2.6 21.96-3.23 33.46-1.62 3.21-3.61 6.39-5.93 9.49" fill="#FFF388"/><path d="M244.1 2497.11c12.31 32.06 61.85 35.46 99.99 13.66 17.28-9.87 29.1-23.4 34.48-37.03-5.3 5.27-11.67 10.12-19.03 14.33-38.14 21.8-87.68 18.4-99.99-13.66-3.62-9.42-3.2-19.16.32-28.43-15.15 14.82-22.53 33.51-15.77 51.13" fill="#FFCB4A"/><path d="M328.98 2433.69c-5.11 0-10.6.57-16.37 1.83-22.25 4.84-42.87 18.61-51.32 34.26-4.15 7.69-4.96 14.98-2.39 21.65 2.56 6.67 8.03 11.55 16.26 14.48 16.76 5.98 41.3 2.4 61.08-8.89 23.82-13.6 33.26-34.21 28.62-46.28-3.64-9.47-17.24-17.05-35.88-17.05Zm-35.32 106.83c-10.29 0-20.19-1.56-29.14-4.76-17.09-6.09-29.27-17.5-35.21-32.97-5.94-15.47-4.53-32.09 4.09-48.06 12.98-24.04 40.74-43.27 72.47-50.18 40.22-8.77 77.46 5.88 88.58 34.83 11.11 28.93-6.77 64.75-42.5 85.16-18.38 10.5-39.02 15.98-58.29 15.98Z" fill="#371A45"/><path d="M1442.63 2579.28c21.09 37.75 4.99 81.03-41.84 86.14-46.83 5.11-87.82-31.95-90.74-71.69-2.29-31.19 20.54-54.59 50.6-57.87 30.05-3.28 65.43 13.78 81.98 43.42" fill="#FFED48"/><path d="M1400.79 2665.42c-45.81 4.99-86.06-30.38-90.5-69.15 14.4 28.05 47 49.16 83.09 45.22 36.08-3.93 53.9-30.53 50.54-59.79 19.1 37.17 2.68 78.72-43.13 83.72" fill="#FFCB4A"/><path d="M1311.11 2601.54c-.52-2.58-.88-5.19-1.07-7.81-.62-8.52.63-16.47 3.4-23.58-2.77 7.11-4.02 15.05-3.39 23.58.19 2.62.55 5.23 1.06 7.81" fill="#CF90DE"/><path d="M1443.58 2581.01c-.01-.01-.02-.03-.03-.04-.3-.56-.6-1.13-.92-1.69-3.47-6.21-7.76-11.87-12.65-16.9 4.89 5.03 9.19 10.69 12.66 16.89.32.58.63 1.16.94 1.74" fill="#E7C8EF"/><path d="M1445.94 2585.92c-.73-1.66-1.52-3.31-2.39-4.95.01.01.02.03.03.04a81.44 81.44 0 0 1 2.36 4.91m-57.91-47.85c-6.51-1.68-13.09-2.58-19.54-2.61h-.02c6.45.03 13.05.93 19.56 2.61" fill="#CF90DE"/><path d="M1332.55 2546.14c7.97-5.53 17.59-9.14 28.1-10.28 2.45-.27 4.95-.4 7.46-.4h.38-.37c-2.52 0-5.01.13-7.47.4-10.51 1.14-20.13 4.75-28.1 10.28" fill="#CF90DE"/><path d="M1312.21 2606.16c-.42-1.53-.79-3.07-1.1-4.62-.51-2.58-.87-5.19-1.06-7.81-.63-8.53.62-16.47 3.39-23.58 3.81-9.81 10.5-18.03 19.11-24.01 7.97-5.53 17.59-9.14 28.1-10.28 2.46-.27 4.95-.4 7.47-.4h.37c6.45.03 13.03.93 19.54 2.61 15.41 3.99 30.36 12.41 41.95 24.31 4.89 5.03 9.18 10.69 12.65 16.9.32.56.62 1.13.92 1.69a72.844 72.844 0 0 1 4.49 10.33c-1.11-3.22-2.49-6.42-4.12-9.6.35 3.03.47 6.02.37 8.96-16.18-23.61-44.68-37.78-70.77-37.78-2.52 0-5.01.13-7.48.4-27.94 3.05-49.65 23.5-50.72 51.45a79.823 79.823 0 0 1-5.03-8.46c.38 3.33 1.03 6.64 1.92 9.89" fill="#FFF388"/><path d="M1316.14 2616.94c-1.59-3.47-2.9-7.04-3.9-10.67-.01-.02-.01-.03-.01-.04a.145.145 0 0 1-.02-.07c-.89-3.25-1.54-6.56-1.92-9.89 1.49 2.9 3.17 5.73 5.03 8.46-.08 2.1-.04 4.24.12 6.43.14 1.94.37 3.86.7 5.78m134.71-14.69c-.85-1.86-1.78-3.7-2.81-5.55a77.961 77.961 0 0 0-3.75-6.04c.1-2.94-.02-5.93-.37-8.96 1.63 3.18 3.01 6.38 4.12 9.6 1.27 3.65 2.2 7.32 2.81 10.95" fill="#FFDD89"/><path d="M1368.28 2551.29c-1.99 0-3.96.1-5.92.32-19.48 2.12-38.28 16.87-36.51 40.96 1.11 15.09 9.48 30.18 22.96 41.4 14.49 12.08 32.37 17.62 50.26 15.7 15.43-1.68 27.09-8.73 32.83-19.85 6.26-12.13 5.1-28.13-3.1-42.82-11.8-21.12-37.01-35.71-60.52-35.71Zm23.69 130.46c-22.89 0-45.09-8.13-63.44-23.42-20.05-16.7-32.55-39.82-34.29-63.43-2.81-38.31 25-70.47 64.69-74.79 37.55-4.09 78.6 17.53 97.53 51.44 13.4 23.99 14.75 51.2 3.6 72.8-10.77 20.87-31.21 33.95-57.55 36.82-3.52.39-7.04.58-10.54.58Z" fill="#371A45"/><path d="M972.48 1796.77c362.83 0 567.38 331.6 567.38 537.98 0 78.05-245.13 171.21-567.38 171.21-322.26 0-567.38-93.16-567.38-171.21 0-206.38 204.54-537.98 567.38-537.98" fill="#99ECFF"/><path d="M1539.86 2334.75c0 78.04-245.13 171.21-567.38 171.21-322.26 0-567.39-93.17-567.39-171.21 0-83.82 33.75-188.24 98.08-282.76v-.04c94.21-138.25 253.85-255.19 469.31-255.19 215.49 0 375.18 116.98 469.34 255.27 64.33 94.48 98.04 198.94 98.04 282.72" fill="#99ECFF"/><path d="M1441.82 2052.03c-10.14 53.12-135.52 137.93-469.34 118.6-333.95 19.33-459.24-65.52-469.31-118.64v-.04c94.21-138.25 253.85-255.19 469.31-255.19 215.49 0 375.18 116.98 469.34 255.27" fill="#69D0F9"/><path d="M972.49 2466.35c-142.06 0-279.2-18.62-386.2-52.45-112.58-35.57-140.66-72.17-141.58-79.31 0-25.43 3.53-52.8 10.26-80.96 19.93 16.91 58.04 38.97 122.77 60.05 108.58 35.29 248.77 54.74 394.75 54.74 130.8 0 257.01-15.6 359.92-44.28 6.7 26.38 12.44 58.9 12.76 93.88-104.9 31.22-236.53 48.33-372.68 48.33m418.12-63.38c.08-37.6-7.05-70.2-13.71-92.5 58.95-20.12 94.24-40.84 113.14-56.88 6.69 28.24 10.22 55.65 10.22 81.16-.84 6.26-23.53 36.41-109.65 68.22" fill="#C2F4FF"/><path d="M972.47 1812.62c-200.47 0-332.47 101.29-407.9 186.27-88.59 99.8-143.63 228.49-143.63 335.85 0 23.25 39.78 63.33 151.9 99.82 110.11 35.83 252.04 55.56 399.63 55.56 147.6 0 289.53-19.73 399.64-55.56 112.12-36.49 151.9-76.57 151.9-99.82 0-107.36-55.03-236.05-143.63-335.85-75.43-84.98-207.43-186.27-407.91-186.27m0 709.19c-150.83 0-296.24-20.28-409.43-57.11-64.91-21.13-173.79-66.09-173.79-129.96 0-114.79 58.1-251.54 151.62-356.9 112.73-126.98 266.01-196.91 431.6-196.91 165.6 0 318.88 69.93 431.61 196.91 93.52 105.36 151.62 242.11 151.62 356.9 0 63.87-108.88 108.83-173.78 129.96-113.2 36.83-258.61 57.11-409.45 57.11" fill="#371A45"/><path d="M1224.19 1734.4c132.02 197.24 483.47 127.99 483.47 127.99l-9.99-261.78s-215.27-17.9-281.57-54.21c-78.84-39.63-125.88-278.45-307.05-278.45l115.14 466.45" fill="#62ED2E"/><path d="m1109.06 1267.96 115.13 466.44c132.03 197.23 483.47 128 483.47 128l-9.98-261.81s-215.28-17.86-281.58-54.19c-78.84-39.63-125.87-278.44-307.04-278.44" fill="#62ED2E"/><path d="M1707.66 1862.4s-351.44 69.23-483.47-128l-115.13-466.44c38.29 0 70.58 10.67 98.42 27.84 29 17.9 53.19 42.83 74.37 70.18 54.84 70.83 89.39 157.87 134.25 180.42 66.3 36.33 281.58 54.19 281.58 54.19l9.98 261.81" fill="#62ED2E"/><path d="M1207.48 1295.8c-19.8 26-45.39 48.47-75.24 66.11l-23.18-93.95c38.29 0 70.58 10.67 98.42 27.84m-371.8-27.84-23 93.14c-29.5-17.68-54.81-40.08-74.4-65.95 27.63-16.77 59.57-27.19 97.4-27.19" fill="#2BC614"/><path d="M1176.79 1329.15c-50.93 46.24-123.33 75.12-203.64 75.12-80.78 0-153.52-29.22-204.52-75.9 37.39-59.44 122.77-179.27 203.86-179.27 81.41 0 167.2 120.89 204.3 180.05" fill="#2BC614"/><path d="M1682.6 1621.22c-75.45-7.9-242-28.37-283.96-58.95-33.84-24.65-49.25-53-64.87-88.37 24.5 39.47 47.01 72.35 74.96 86.53 59.34 32.31 224.08 50 273.64 54.7l.23 6.09" fill="#D0FAC0"/><path d="m1202.1 1644.93 22.09 89.47c132.03 197.23 483.47 128 483.47 128l-2.41-63.05c-54.69-32.72-104.94-59.41-113.54-52.77-20.12 15.51-21.4 50.71-56.19 55.56-159 22.03-180.68-249.26-276.57-294.03-26.25-12.26-44.58 56.57-56.85 136.82" fill="#2BC614"/><path d="M1567.05 1890.43c-116.61 0-274.38-25.24-356.03-147.22-4.86-7.27-2.91-17.11 4.36-21.98 7.27-4.87 17.11-2.92 21.98 4.35 110.56 165.19 389.68 133.31 453.94 123.49l-8.93-233.94c-49.56-4.7-214.3-22.39-273.64-54.7-31.84-16.15-56.64-56.59-85.34-103.39-49.79-81.2-106.22-173.24-214.34-173.24-8.75 0-15.84-7.1-15.84-15.85s7.09-15.84 15.84-15.84c125.86 0 189.9 104.44 241.36 188.36 25.15 41.02 48.91 79.76 72.81 91.77.16.09.33.17.49.27 62.6 34.28 273.16 52.13 275.28 52.3 7.98.67 14.21 7.19 14.52 15.19l9.99 261.79c.29 7.79-5.12 14.64-12.77 16.15-5.93 1.16-65.57 12.49-143.68 12.49" fill="#371A45"/><path d="M1635.07 1650.29c14.4-12.58 30.65-71.24 59.88-95.84 27.12-22.82 70.18-17.71 89.07 9.8 37.26-8.28 45.97 33.3 35.24 50.19-12.27 19.32-44.01 16.83-53.66-5.09-22.34-10.56-34.76 13.56-31.38 42.14 4.3 36.4 60.31 65.55 98.39 52.92 31.2-10.35 30.69-39.09 21.09-50.48-24.32 4.63-43.69-19.31-33.33-42.27 15.86-35.15 64.35-18.79 60.43 13.37 61.16 27.94 51.67 92.07 36.94 123.94-16.22 35.08-59.18 57.65-120.24 57 11.98 9.91 69.91 81.08 82.95 105.92 52.04 13.53 42.23 62.16 21.94 76-19.75 13.46-62.02 6.04-63.26-35.58-27.25-26.05-148.73-70.42-192.33-98.32-46.16-29.53-62.39-54.77-53.66-120.46" fill="#62ED2E"/><path d="M1635.07 1650.29c14.4-12.58 30.65-71.24 59.88-95.84 27.12-22.82 70.18-17.71 89.07 9.8 37.26-8.28 45.97 33.3 35.24 50.19-12.27 19.32-44.01 16.83-53.66-5.09-22.34-10.56-34.76 13.56-31.38 42.14 4.3 36.4 60.31 65.55 98.39 52.92 31.2-10.35 30.69-39.09 21.09-50.48-24.32 4.63-43.69-19.31-33.33-42.27 15.86-35.15 64.35-18.79 60.43 13.37 61.16 27.94 51.67 92.07 36.94 123.94-16.22 35.08-59.18 57.65-120.24 57 11.98 9.91 69.91 81.08 82.95 105.92 52.04 13.53 42.23 62.16 21.94 76-19.75 13.46-62.02 6.04-63.26-35.58-27.25-26.05-148.73-70.42-192.33-98.32-46.16-29.53-62.39-54.77-53.66-120.46l41.93-83.24" fill="#62ED2E"/><path d="M1734.22 1651.5c-3.38-28.6 9.04-52.72 31.38-42.15 9.67 21.9 41.39 24.41 53.65 5.1-7.66 22.03 11.11 43.93 34.45 39.49 9.61 11.38 10.11 40.11-21.09 50.46-38.07 12.64-94.07-16.52-98.39-52.9Zm-143.29 113.82c.31 43.14 18.05 64.45 55.87 88.66 25.25 16.18 76.69 37.86 120.74 58.35 32 14.83 60.1 29 71.58 39.98 1.25 41.61 43.52 49.03 63.26 35.58 20.31-13.83 30.1-62.48-21.93-76-9.07-17.27-39.83-56.91-61.76-82.81-9.6-11.36-17.55-20.09-21.18-23.09 17.87.19 34.2-1.63 48.74-5.16 35.17-8.48 60.01-27.04 71.49-51.85 14.74-31.88 24.22-96.01-36.95-123.95 3.45-28.28-33.6-44.33-53.4-23.9-2.03 2.12-3.91 4.66-5.54 7.6 1.03-3.22 1.6-6.82 1.63-10.58.31-18.39-11.58-40.07-39.45-33.91-18.9-27.5-61.95-32.6-89.08-9.79-29.22 24.59-45.49 83.25-59.88 95.83l-41.92 83.25c-1.57 11.82-2.35 22.34-2.22 31.79Z" fill="#62ED2E"/><path d="M1734.22 1651.5c-3.38-28.6 9.04-52.72 31.38-42.15 9.67 21.9 41.39 24.41 53.65 5.1-7.66 22.03 11.11 43.93 34.45 39.49 9.61 11.38 10.11 40.11-21.09 50.46-38.07 12.64-94.07-16.52-98.39-52.9Zm-143.29 113.82c.31 43.14 18.05 64.45 55.87 88.66 25.25 16.18 76.69 37.86 120.74 58.35-2.97-9.7-3.69-23.4 3.16-41.36 8.1-21.24 33.32-35.29 47.99-41.89-9.6-11.36-17.55-20.09-21.18-23.09 17.87.19 34.2-1.63 48.74-5.16-7.69-4.26-25.02-16.56-27.59-41.99-3.32-32.85 36.61-28.57 52.4-60.73 14.08-28.69-5.22-47.46-2.34-62.85 0 0-21.59 6.01-33.51-2.47-8.07-5.73-4.66-17.15-7.7-17.87-3-.72-.62-8.73-.12-13.79-2.03 2.12-3.91 4.66-5.54 7.6 1.03-3.22 1.6-6.82 1.63-10.58-1.53 1.07-3.63 2.91-6.38 5.76-19.37 19.96-40.08-8.79-40.08-17.8-11.01 13.7-63.17-15.05-69.36 44.21-2.07 19.77 12.07 38.79 12.2 51.62.25 26.59-36.42 30.03-32.6 34.16 6.51 7.04 67.64-9.13 89.16 18.24 14.05 17.9 1.97 72.12-21.11 94.17-42.21 40.33-145.39-12.79-164.38-63.19Z" fill="#2BC614"/><path d="M1635.07 1650.29c4.32-8.05 5.82-16.77 8.31-25.44 7.61-27.92 14.47-53.37 34.7-77.56 30.09-35.93 94.97-33.78 119 8l-16.5-6.51c16.18-4.44 38.37 1.16 48.36 16.06 15.75 21.3 14.53 55.75-8.93 70.94-23.28 15.71-57.98 5.86-68.91-20.05l7.73 7.94c-2.67-1.22-3.85-1.01-3.66-.96-5.19 4.72-6.16 15.58-5.4 25.09 2.34 29.37 52.18 51.34 78.42 41.36 12.32-3.73 19.19-14.89 13.4-25.02l15.07 5.36c-30.33 6.81-60.37-21.79-54.33-52.56 3.34-19.06 17.75-35.88 37.15-39.84 29.54-7.01 61.69 18.95 57.05 49.85l-9.14-16.33c57.48 24.96 69.29 89.06 45.81 142.57-22.08 51.85-84.72 69.8-135.86 68.63l10.27-28.05c8.93 8.03 16.93 17.85 24.7 26.88 22.42 27.45 43.88 52.8 62.17 83.87l-10.05-7.97c8.99 2.44 18.25 5.96 26.77 12.17 31.02 20.5 30.67 70.82.23 92.18-25.62 17.09-64.14 9.05-79.83-17.87-5.76-9.66-7.96-20.38-8.31-30.25l4.89 10.98c-21.93-14.93-50.9-26.01-75.31-37.46-34.43-15.46-69.21-30.35-102.26-49.12-35.45-20.12-73.22-53.08-69.63-97.81.81-16.5 5.21-31.68 12.16-45.84 5.5 27.56 8.09 56.57 26.27 77.08 17.11 19.41 44.1 33.13 68.03 44.33 40.63 19.05 82.3 35.99 121.93 57.69 14.79 8.39 27.69 15.48 40.7 28.22 3.08 2.97 4.76 7 4.89 10.98.07 17.93 13.14 27.86 29.09 26.12 10.12-.74 16.02-8.29 18.16-18.08 4.21-17.32-9.7-28.99-25.75-32.65-4.4-1.19-7.88-4.08-9.94-7.78-20.68-33.9-48.01-66.71-74.52-96.68-1.17-1.16-3.38-3.52-4.6-4.58-11.43-9.27-4.24-28.46 10.27-28.05 40.21.55 89.48-10.8 106.48-49.6 8.04-18.8 11.21-41.03 6.53-59.64-4.54-18.75-17.76-33.09-36.46-41.44-6.28-2.81-9.8-9.23-9.21-15.71 2.46-13.93-18.39-21.55-26.78-10.97-6.95 7.31-6.52 20.05 3.28 24.53 2.86 1.33 6.16 1.71 9.61.99 5.71-1.04 11.27 1.23 14.7 5.43 11.08 14.25 11.92 30.97 5.61 46.64-29.5 58.31-124.04 31.5-147.76-19.15-13.92-28.79-4.28-84.02 36.49-79.9 8.15 1.41 16.5 3.9 19.88 11.52 1.16 2.69 2.99 4.78 5.52 6.35 6.68 4.8 19.53 2.16 21.25-5.38 2.43-7.96-.2-21.72-9.31-24.24-2.49-.71-6-.7-10.04.16-6.51 1.39-12.91-1.38-16.51-6.5-17.04-18.74-50.18-19.97-68.98-2.43-16.92 15-31.64 40.54-46.79 59.93-5.79 7.14-11.75 15.24-20.11 19.57" fill="#371A45"/><path d="M1801.52 1738.77c34 34.72 9.94 106.6-40.93 106.21 9.37-19.4 16.77-32.52 22.9-51.28 6.44-18.33 10.54-35.07 18.03-54.93" fill="#371A45"/><path d="M720.54 1734.4c-132.02 197.24-483.47 127.99-483.47 127.99l9.99-261.78s215.27-17.9 281.57-54.21c78.84-39.63 125.88-278.45 307.05-278.45L720.54 1734.4" fill="#62ED2E"/><path d="M835.68 1267.96 720.54 1734.4c-132.02 197.23-483.46 128-483.46 128l9.98-261.81s215.28-17.86 281.57-54.19c78.84-39.63 125.87-278.44 307.05-278.44" fill="#62ED2E"/><path d="M835.68 1267.96 720.54 1734.4c-132.02 197.23-483.46 128-483.46 128l9.98-261.81s215.28-17.86 281.57-54.19c44.87-22.55 79.41-109.59 134.25-180.42 41.55-53.66 94.71-98.02 172.8-98.02" fill="#62ED2E"/><path d="m835.68 1267.96-23 93.14c-29.5-17.68-54.81-40.08-74.4-65.95 27.63-16.77 59.57-27.19 97.4-27.19" fill="#2BC614"/><path d="m262.13 1621.22.23-6.09c49.56-4.7 214.3-22.39 273.64-54.7 27.95-14.18 50.47-47.05 74.96-86.53-15.61 35.37-31.03 63.72-64.87 88.37-41.96 30.58-208.51 51.05-283.96 58.95" fill="#D0FAC0"/><path d="m742.63 1644.93-22.09 89.47c-132.02 197.23-483.46 128-483.46 128l2.41-63.05c54.68-32.72 104.93-59.41 113.53-52.77 20.12 15.51 21.4 50.71 56.19 55.56 159 22.03 180.68-249.26 276.57-294.03 26.25-12.26 44.59 56.57 56.85 136.82" fill="#2BC614"/><path d="M377.68 1890.43c-78.12 0-137.75-11.33-143.67-12.49a15.855 15.855 0 0 1-12.78-16.15l9.99-261.79c.31-8 6.54-14.52 14.53-15.19 2.12-.17 212.67-18.02 275.27-52.3.16-.1.33-.18.5-.27 23.89-12.01 47.65-50.75 72.8-91.77 51.46-83.92 115.51-188.36 241.36-188.36 8.75 0 15.84 7.09 15.84 15.84s-7.09 15.85-15.84 15.85c-108.11 0-164.55 92.03-214.34 173.24-28.7 46.8-53.49 87.24-85.34 103.39-59.34 32.31-224.08 50-273.64 54.7l-8.93 233.93c64.27 9.78 343.5 41.53 453.94-123.48 4.87-7.27 14.72-9.21 21.99-4.35 7.27 4.87 9.22 14.71 4.35 21.98-81.64 121.97-239.42 147.22-356.03 147.22" fill="#371A45"/><path d="M309.67 1650.29c-14.4-12.58-30.66-71.24-59.89-95.84-27.12-22.82-70.18-17.71-89.07 9.8-37.25-8.28-45.97 33.3-35.24 50.19 12.27 19.32 44.01 16.83 53.66-5.09 22.34-10.56 34.77 13.56 31.39 42.14-4.31 36.4-60.32 65.55-98.39 52.92-31.2-10.35-30.7-39.09-21.1-50.48 24.32 4.63 43.69-19.31 33.33-42.27-15.85-35.15-64.35-18.79-60.43 13.37-61.15 27.94-51.67 92.07-36.93 123.94 16.22 35.08 59.17 57.65 120.23 57-11.97 9.91-69.9 81.08-82.94 105.92-52.05 13.53-42.24 62.16-21.95 76 19.75 13.46 62.02 6.04 63.27-35.58 27.25-26.05 148.73-70.42 192.33-98.32 46.15-29.53 62.38-54.77 53.66-120.46" fill="#62ED2E"/><path d="M309.67 1650.29c-14.4-12.58-30.66-71.24-59.89-95.84-27.12-22.82-70.18-17.71-89.07 9.8-37.25-8.28-45.97 33.3-35.24 50.19 12.27 19.32 44.01 16.83 53.66-5.09 22.34-10.56 34.77 13.56 31.39 42.14-4.31 36.4-60.32 65.55-98.39 52.92-31.2-10.35-30.7-39.09-21.1-50.48 24.32 4.63 43.69-19.31 33.33-42.27-15.85-35.15-64.35-18.79-60.43 13.37-61.15 27.94-51.67 92.07-36.93 123.94 16.22 35.08 59.17 57.65 120.23 57-11.97 9.91-69.9 81.08-82.94 105.92-52.05 13.53-42.24 62.16-21.95 76 19.75 13.46 62.02 6.04 63.27-35.58 27.25-26.05 148.73-70.42 192.33-98.32 46.15-29.53 62.38-54.77 53.66-120.46l-41.93-83.24" fill="#62ED2E"/><path d="M112.12 1704.4c-31.19-10.35-30.69-39.08-21.09-50.46 23.34 4.44 42.11-17.46 34.45-39.49 12.26 19.31 43.99 16.8 53.65-5.1 22.34-10.57 34.76 13.55 31.38 42.15-4.31 36.38-60.32 65.54-98.39 52.9Zm239.46 29.13-41.92-83.25c-14.39-12.58-30.66-71.24-59.88-95.83-27.13-22.81-70.18-17.71-89.07 9.79-27.88-6.16-39.77 15.52-39.45 33.91.03 3.76.59 7.36 1.62 10.58-1.62-2.94-3.5-5.48-5.54-7.6-19.8-20.43-56.84-4.38-53.4 23.9-61.17 27.94-51.69 92.07-36.95 123.95 11.48 24.81 36.32 43.37 71.49 51.85 14.55 3.53 30.88 5.35 48.74 5.16-3.63 3-11.57 11.73-21.18 23.09-21.93 25.9-52.68 65.54-61.76 82.81-52.03 13.52-42.23 62.17-21.93 76 19.74 13.45 62.01 6.03 63.26-35.58 11.48-10.98 39.58-25.15 71.58-39.98 44.06-20.49 95.49-42.17 120.74-58.35 37.82-24.21 55.56-45.52 55.88-88.66.12-9.45-.66-19.97-2.23-31.79Z" fill="#62ED2E"/><path d="M112.12 1704.4c-31.19-10.35-30.69-39.08-21.09-50.46 23.34 4.44 42.11-17.46 34.45-39.49 12.26 19.31 43.99 16.8 53.65-5.1 22.34-10.57 34.76 13.55 31.38 42.15-4.31 36.38-60.32 65.54-98.39 52.9Zm77.31 124.11c-23.09-22.05-35.17-76.27-21.12-94.17 21.52-27.37 82.66-11.2 89.17-18.24 3.81-4.13-32.86-7.57-32.6-34.16.12-12.83 14.26-31.85 12.2-51.62-6.2-59.26-58.35-30.51-69.36-44.21 0 9.01-20.72 37.76-40.08 17.8-2.76-2.85-4.85-4.69-6.38-5.76.03 3.76.59 7.36 1.62 10.58-1.62-2.94-3.5-5.48-5.54-7.6.5 5.06 2.88 13.07-.12 13.79-3.04.72.37 12.14-7.7 17.87-11.92 8.48-33.5 2.47-33.5 2.47 2.87 15.39-16.43 34.16-2.35 62.85 15.8 32.16 55.72 27.88 52.4 60.73-2.56 25.43-19.89 37.73-27.59 41.99 14.55 3.53 30.88 5.35 48.74 5.16-3.63 3-11.57 11.73-21.18 23.09 14.67 6.6 39.89 20.65 47.99 41.89 6.86 17.96 6.14 31.66 3.16 41.36 44.06-20.49 95.49-42.17 120.74-58.35 37.82-24.21 55.56-45.52 55.88-88.66-19 50.4-122.18 103.52-164.38 63.19Z" fill="#2BC614"/><path d="M309.67 1650.29c-8.36-4.34-14.33-12.42-20.12-19.57-17.81-22.15-32.07-51.06-54.76-65.74-18.89-11.32-46.36-7.92-61.01 8.24-3.79 5.41-10.42 7.81-16.5 6.5-4.04-.86-7.56-.87-10.05-.16-9.1 2.53-11.74 16.26-9.31 24.24 1.74 7.61 14.58 10.12 21.26 5.38 2.52-1.57 4.34-3.65 5.5-6.33 3.7-7.93 11.59-9.97 19.89-11.54 40.78-4.1 50.4 51.1 36.5 79.9-23.97 50.7-117.95 77.51-147.77 19.15-6.31-15.68-5.46-32.37 5.61-46.64 3.66-4.51 9.35-6.4 14.68-5.43 3.46.73 6.77.34 9.63-.99 9.82-4.42 10.21-17.29 3.28-24.53-8.38-10.56-29.21-2.98-26.79 10.94.64 6.85-3.26 13.07-9.2 15.74-18.69 8.35-31.92 22.69-36.45 41.44-4.69 18.61-1.52 40.84 6.53 59.64 17.02 38.81 66.25 50.14 106.47 49.6 14.8-.3 21.56 18.85 10.27 28.05-1.15 1.12-3.51 3.38-4.59 4.58-26.5 29.95-53.83 62.77-74.51 96.64-2.2 3.99-5.88 6.7-9.96 7.82-16.04 3.63-29.98 15.38-25.75 32.65 2.16 9.75 8.03 17.38 18.16 18.08 15.96 1.69 29.01-8.16 29.09-26.12.15-4.33 1.99-8.16 4.89-10.98 13-12.73 25.91-19.83 40.7-28.22 39.63-21.7 81.31-38.64 121.94-57.69 23.92-11.19 50.93-24.92 68.02-44.33 18.18-20.53 20.75-49.5 26.28-77.08 6.95 14.16 11.34 29.34 12.16 45.84 3.54 44.73-34.17 77.68-69.64 97.81-39.38 22.33-81.5 39.47-122.46 58.23-18.17 8.43-39.18 17.18-55.1 28.35l4.89-10.98c.22 20.73-12.83 44.06-33.06 51.99-20.24 8.87-46.14 6.5-61.97-9.74-23.7-23.99-21.14-67.46 7.11-86.31 8.52-6.21 17.78-9.73 26.77-12.17l-10.04 7.97c18.28-31.05 39.74-56.43 62.16-83.87 7.77-9.03 15.78-18.85 24.71-26.88l10.27 28.05c-51.14 1.17-113.8-16.79-135.86-68.63-23.47-53.48-11.7-117.62 45.81-142.57l-9.15 16.33c-4.62-30.87 27.49-56.88 57.06-49.85 19.39 3.97 33.8 20.78 37.14 39.84 6.05 30.81-24 59.34-54.33 52.56l15.08-5.36c-5.77 10.18 1.05 21.26 13.39 25.02 26.24 9.98 76.1-12 78.42-41.36.76-9.49-.19-20.42-5.4-25.09.19-.05-.98-.26-3.66.96l7.73-7.94c-10.93 25.92-45.62 35.75-68.91 20.05-23.45-15.2-24.68-49.62-8.93-70.94 9.99-14.86 32.19-20.54 48.36-16.06l-16.5 6.5c24.03-41.75 88.92-43.95 119-7.99 20.24 24.18 27.09 49.64 34.71 77.55 2.49 8.68 3.98 17.4 8.31 25.45" fill="#371A45"/><path d="M143.21 1738.77c7.49 19.84 11.6 36.61 18.04 54.93 6.13 18.77 13.51 31.86 22.89 51.28-50.87.38-74.92-71.48-40.93-106.21" fill="#371A45"/><path d="M1288.45 1854.07c-81.96 116.89-315.97 107.47-315.97 107.47s-4.51.181-12.51.181c-49.54 0-232.89-6.991-303.5-107.651-70.96-101.21-37.95-223.05 9.99-311.47 4.18-7.67 8.44-15.08 12.77-22.22 17.72-29.22 32.68-86.99 71.26-158.17l221.99-210.7 221.98 210.7c38.58 71.18 53.55 128.95 71.26 158.17 4.33 7.14 8.6 14.58 12.77 22.25 47.95 88.42 80.95 210.26 9.96 311.44" fill="#FFF"/><path d="M1290.33 1855.85c-82.44 117.58-317.85 108.1-317.85 108.1s-4.53.182-12.58.182c-49.84 0-234.28-7.032-305.31-108.282-36.01-51.36-45.4-108.02-39.7-162.96 5.63-53.98 25.84-106.29 49.74-150.37 4.21-7.72 8.5-15.17 12.85-22.36 17.82-29.39 32.88-87.51 71.69-159.11 0 0 115.48-211.95 223.31-211.95 107.82 0 223.31 211.95 223.31 211.95 38.81 71.6 53.86 129.72 71.68 159.11 4.35 7.19 8.65 14.67 12.85 22.39 23.88 44.05 44.08 96.39 49.72 150.34 5.72 54.94-3.67 111.6-39.71 162.96" fill="#62ED2E"/><path d="M1176.79 1329.15c-50.93 46.24-123.33 75.12-203.64 75.12-80.78 0-153.52-29.22-204.52-75.9 37.39-59.44 122.77-179.27 203.86-179.27 81.41 0 167.2 120.89 204.3 180.05m113.54 526.7c-82.44 117.58-317.85 108.1-317.85 108.1s-4.53.18-12.58.18c-49.84 0-234.28-7.03-305.31-108.28-36.01-51.36-45.4-108.02-39.7-162.96 39.49 4.71 91.56 19.23 142.92 63.79 76.42 66.32 158.48 101.07 214.67 101.07 56.18 0 138.24-34.75 214.66-101.07 51.36-44.56 103.4-59.08 142.9-63.79 5.72 54.94-3.67 111.6-39.71 162.96" fill="#2BC614"/><path d="M1195.8 1361.05c38.23 40.7 58.44 94.36 81.39 143.08 19.06 31.86 37.63 64.95 50.25 100.1 27.2 72.09 34.38 157.1-.99 228.29-50.72 112.19-186.51 141.67-297.95 147.57l-56.03-32.26c37.17 33.08 18.78 33.17-.65 32.21l.65-32.21.65 32.21c-19.42.95-37.81.88-56.67.03-106.54-5.96-235.37-32.32-291.08-134.3-4.61-8.78-9.01-17.78-12.93-26.89-1.62-4.53-5.87-16.7-7.41-21.13-2.77-11.24-6.47-24.86-7.59-36.36-2.14-11.26-2.2-25.36-2.77-36.79.58-11.3.64-25.32 2.43-36.47 5.6-47.53 22.37-93.29 43.94-135.75 7.91-16.08 18.45-32.58 27.33-47.94 7.96-14.78 15.19-31.78 23.13-48.3 15.82-33.38 34-66.4 57.65-95.09l-33.36 104.76c-8.02 25.95-18.36 53.46-33.16 77.46-16.81 31.05-30.38 63.84-39.64 97.87-11.56 45.51-15.82 94.51-2.71 139.33 1.46 6.92 5.78 16.93 8.11 23.71 22.35 54.32 60.36 85.64 115.46 107.72 64.99 25.42 138.18 34.88 207.98 35.94l.64 32.22.65-32.22c69.79-1.06 142.98-10.59 207.94-36.05 48.41-19.09 88.93-49.49 109.97-96.38 22.88-45.88 25.77-98.13 16.12-148.71-9.38-52.09-32.6-101.61-58.86-147.78-23.5-52.06-37.12-102.69-52.49-157.87" fill="#371A45"/><path d="M1273.76 1750.35c-123.82 51.73-152.47 120.91-245.84 156.1-49.66 18.44-149.16 14.24-200.14 30.9-28.55-25.03-67.79-5.71-68.57 28.71-.49 21.49 23.21 48.07 64.27 27.8 29.07 9.06 73.06 13.49 120.06 15.84-27.99 2.75-95.98 7.82-122.02 16.16-29.2-20.07-58.46-5.6-64.39 18.77-6.45 26.49 13.55 56.19 56.09 43.42 48.99 36.31 172.99 48.99 245.34 47.21 70.48 0 334.45-24.1 410.47-205.54 59.17-141.23-70.92-288.56-209.9-189.3l14.63 9.93" fill="#62ED2E"/><path d="M813.23 2088.04c48.97 36.32 172.98 48.99 245.32 47.21 70.49 0 334.45-24.09 410.47-205.52 21.03-50.18 18.18-101.12-.5-141.51-33.88-73.3-119.79-111.81-209.4-47.8l14.65 9.95c-123.83 51.71-152.46 120.89-245.85 156.08-49.65 18.43-149.17 14.24-200.14 30.88-28.56-25.03-67.8-5.69-68.58 28.72-.47 21.5 23.22 48.09 64.29 27.82 29.07 9.04 73.06 13.48 120.05 15.83-28 2.75-95.99 7.82-122.02 16.17-25.12-17.3-50.31-8.98-60.63 9.23v.03a37.045 37.045 0 0 0-3.75 9.51c-6.45 26.47 13.54 56.2 56.09 43.4" fill="#62ED2E"/><path d="M813.23 2088.04c48.97 36.32 172.98 48.99 245.32 47.21 70.49 0 334.45-24.09 410.47-205.52 21.03-50.18 18.18-101.12-.5-141.51-33.88-73.3-119.79-111.81-209.4-47.8l14.65 9.95c-123.83 51.71-152.46 120.89-245.85 156.08-49.65 18.43-149.17 14.24-200.14 30.88-22.74-19.93-52.25-11.73-63.73 9.83-2.94 5.5-4.69 11.89-4.85 18.89-.47 21.5 23.22 48.09 64.29 27.82 27.19 8.44 67.46 12.89 111.01 15.33 3 .19 6.01.34 9.04.5-28 2.75-95.99 7.82-122.02 16.17-25.12-17.3-50.31-8.98-60.63 9.23v.03a37.045 37.045 0 0 0-3.75 9.51c-6.45 26.47 13.54 56.2 56.09 43.4" fill="#62ED2E"/><path d="M813.23 2088.04c48.97 36.32 172.98 48.99 245.32 47.21 70.49 0 334.45-24.09 410.47-205.52 21.03-50.18 18.18-101.12-.5-141.51-33.88-73.3-119.79-111.81-209.4-47.8l13.83 9.38.82.57c-123.83 51.71-152.46 120.89-245.85 156.08-49.65 18.43-149.17 14.24-200.14 30.88-22.74-19.93-52.25-11.73-63.73 9.83-2.38 4.47-3.97 9.51-4.57 14.98-.15 1.29-.25 2.57-.28 3.91-.47 21.5 23.22 48.09 64.29 27.82 27.19 8.44 67.46 12.89 111.01 15.33 3 .19 6.01.34 9.04.5-28 2.75-95.99 7.82-122.02 16.17-25.12-17.3-50.31-8.98-60.63 9.23v.03a37.045 37.045 0 0 0-3.75 9.51c-6.45 26.47 13.54 56.2 56.09 43.4" fill="#62ED2E"/><path d="M1041.76 1924.84c-3.83-.36-7.69-.72-11.56-1.07 34.85-11.36 65.16-30.23 98.91-59.56 23.94-20.23 45.43-40.95 69.59-60.14 23.86-19.64 48.86-36.42 74.99-53.67.03-.01.05-.02.08-.03l-.02-.01c.01 0 .01-.01.01-.01h-.01l-.8-.55c11.32-1.95 20.63-3.21 25.75-3.21 6.53 0 6.27 2.05-5.29 7.34-31.78 14.61-54.12 24.38-147.67 103.62-42.72 36.19-76.14 56.15-103.98 67.29" fill="#D0FAC0"/><path d="M759.2 1966.05c-.47 21.5 23.22 48.09 64.29 27.82 27.19 8.44 67.46 12.89 111.01 15.33l44.99-2.69c0-22.4-145.26-18.31-154.24-36.89 0 0-14.86 17.15-37.89 11.14-14.83-3.88-20.74-21.84-23.31-33.6-2.94 5.5-4.69 11.89-4.85 18.89m499.95-225.62 14.61 9.93c22.32-9.28 41.91-44.64 134.54-27.83-40.97-22.07-94.35-21.26-149.15 17.9" fill="#2BC614"/><path d="M813.23 2088.04c48.97 36.32 172.98 48.99 245.32 47.21 70.49 0 334.45-24.09 410.47-205.52 21.03-50.18 18.18-101.12-.5-141.51-2.16 107.6-44.58 208.37-187.06 265.31-168.75 67.39-255.54-16.21-259.08-98.3-21.18 23.28 3.88 98.96-30.13 124.14-26.53 19.68-142.57 20.28-172.39-20.02-26.09 22.31-61.85 2.19-58.97-24.22a37.045 37.045 0 0 0-3.75 9.51c-6.45 26.47 13.54 56.2 56.09 43.4" fill="#2BC614"/><path d="M1273.76 1750.35c-26.16 17.27-51.18 34.06-75.06 53.72-24.16 19.19-45.65 39.91-69.59 60.14-56.28 48.92-103.02 68.72-177.14 73.19-39.49 3.87-82.07 4.45-119.2 15.23-5.55 1.84-11.49.43-15.59-3.19-15-14.53-39.62-6.22-41.84 14.12-1.5 8.16 3.64 16.59 11.2 19.86 9.32 3.94 20.36.88 29.92-3.77 3.78-1.84 7.92-2.07 11.65-.94 17.58 5.34 37.15 8.33 56.72 10.57 19.61 2.21 39.52 3.58 59.5 4.59 8.76.4 15.53 7.87 15.09 16.63-.41 7.96-6.62 14.25-14.33 14.97-39.55 4.22-80.64 5.74-118.73 15.48-4.8 1.56-9.94.63-13.81-2.03-15.72-11.81-37.66-7.68-40.53 12.2-1.23 8.81 2.44 17.05 8.77 20.82 6.3 4.1 16.89 4.3 27.87.93 4.86-1.49 9.88-.5 13.72 2.24 36.81 24.57 83.6 31.48 127.08 38.08 135.14 17.28 281.55-.35 398.87-72.24 91.52-55.61 159.55-177.28 87.86-273.94-26.26-33.95-68.03-51.11-111.11-46.05-21.98 2.18-43.96 9.77-65.95 19.46 85.13-88.83 210.07-38.08 237.17 75.61 12.41 50.61 1.41 104.49-24.54 148.98-107.52 188.57-446.23 221.6-633.32 154.33-11.72-4.69-23.42-10.42-34.65-18.56l13.99 2.44c-7.98 2.33-16.55 3.96-25.79 3.68-60.17-1.01-71.34-84.59-15.24-103.73 18.34-6.15 38.79-.88 53.75 9.64l-13.81-2.04c41.51-11.03 83.35-12.34 125.3-16.84l.76 31.59c-20.43-1.04-40.9-2.43-61.49-4.75-20.61-2.41-41.28-5.39-62.5-11.78l11.73-.92c-16.88 8.4-37.82 12.64-56.62 4.4-31.87-13.38-39.81-55.03-18.37-81.23 19.59-26.02 59.74-27.77 82.88-5.98l-15.59-3.19c36.06-11.76 88.23-13.83 125.85-18.4 40.21-3.75 76.59-10.58 110.84-31.65 34.97-19.68 65.21-47.69 99.14-70.47 34.91-23.87 74.13-42.33 115.14-51.2" fill="#371A45"/><path d="M1037.83 2048.42c-38-23.26-43.22-86.85-6.83-113.9-.76 20.61-2.45 37.49-.78 56.95 1.33 19.37 4.84 36.67 7.61 56.95m-95.16-51.24c7.14-.02 40.24 6 40.24 9.13 0 3.13-28.81 16.15-41.91 16.15l1.67-25.28" fill="#371A45"/><path d="M671.18 1750.35c123.83 51.73 152.47 120.91 245.85 156.1 49.65 18.44 149.16 14.24 200.14 30.9 28.54-25.03 67.78-5.71 68.57 28.71.48 21.49-23.21 48.07-64.27 27.8-29.07 9.06-73.06 13.49-120.06 15.84 27.99 2.75 95.98 7.82 122.01 16.16 29.2-20.07 58.47-5.6 64.4 18.77 6.44 26.49-13.56 56.19-56.1 43.42-48.98 36.31-172.98 48.99-245.33 47.21-70.49 0-334.46-24.1-410.47-205.54-59.18-141.23 70.91-288.56 209.89-189.3l-14.63 9.93" fill="#62ED2E"/><path d="M1131.71 2088.04c-48.96 36.32-172.98 48.99-245.31 47.21-70.49 0-334.45-24.09-410.48-205.52-21.02-50.18-18.18-101.12.5-141.51 33.89-73.3 119.8-111.81 209.4-47.8l-14.64 9.95c123.83 51.71 152.46 120.89 245.85 156.08 49.65 18.43 149.17 14.24 200.14 30.88 28.56-25.03 67.79-5.69 68.57 28.72.47 21.5-23.21 48.09-64.29 27.82-29.06 9.04-73.05 13.48-120.04 15.83 28 2.75 95.98 7.82 122.01 16.17 25.12-17.3 50.31-8.98 60.63 9.23v.03c1.66 2.95 2.95 6.14 3.76 9.51 6.44 26.47-13.55 56.2-56.1 43.4" fill="#62ED2E"/><path d="M1131.71 2088.04c-48.96 36.32-172.98 48.99-245.31 47.21-70.49 0-334.45-24.09-410.48-205.52-21.02-50.18-18.18-101.12.5-141.51 33.89-73.3 119.8-111.81 209.4-47.8l-14.64 9.95c123.83 51.71 152.46 120.89 245.85 156.08 49.65 18.43 149.17 14.24 200.14 30.88 22.74-19.93 52.24-11.73 63.72 9.83 2.95 5.5 4.7 11.89 4.85 18.89.47 21.5-23.21 48.09-64.29 27.82-27.19 8.44-67.45 12.89-111 15.33-3.01.19-6.01.34-9.04.5 28 2.75 95.98 7.82 122.01 16.17 25.12-17.3 50.31-8.98 60.63 9.23v.03c1.66 2.95 2.95 6.14 3.76 9.51 6.44 26.47-13.55 56.2-56.1 43.4" fill="#62ED2E"/><path d="M1131.71 2088.04c-48.96 36.32-172.98 48.99-245.31 47.21-70.49 0-334.45-24.09-410.48-205.52-21.02-50.18-18.18-101.12.5-141.51 33.89-73.3 119.8-111.81 209.4-47.8l-13.83 9.38-.81.57c123.83 51.71 152.46 120.89 245.85 156.08 49.65 18.43 149.17 14.24 200.14 30.88 22.74-19.93 52.24-11.73 63.72 9.83 2.38 4.47 3.98 9.51 4.57 14.98.16 1.29.25 2.57.28 3.91.47 21.5-23.21 48.09-64.29 27.82-27.19 8.44-67.45 12.89-111 15.33-3.01.19-6.01.34-9.04.5 28 2.75 95.98 7.82 122.01 16.17 25.12-17.3 50.31-8.98 60.63 9.23v.03c1.66 2.95 2.95 6.14 3.76 9.51 6.44 26.47-13.55 56.2-56.1 43.4" fill="#62ED2E"/><path d="M1185.46 1962.14c-9.88-8.98-24.18-20.33-33.63-20.49-.24 0-.49-.01-.73-.01-19.55 0-28.46 13.56-28.46 13.56s-70.02-12.42-125.15-15.11c-46.99-2.29-95.89 4.19-198.29-82.54-93.54-79.24-115.88-89.01-147.67-103.62-11.55-5.29-11.82-7.34-5.29-7.34 5.12 0 14.43 1.26 25.75 3.21l-.81.57c123.83 51.71 152.46 120.89 245.85 156.08 49.65 18.43 149.17 14.24 200.14 30.88 8.99-7.87 19.03-11.36 28.61-11.36 14.64 0 28.17 8.15 35.11 21.19 2.38 4.47 3.98 9.51 4.57 14.98" fill="#D0FAC0"/><path d="M1185.74 1966.05c.47 21.5-23.21 48.09-64.29 27.82-27.19 8.44-67.45 12.89-111 15.33l-44.99-2.69c0-22.4 145.26-18.31 154.24-36.89 0 0 14.86 17.15 37.89 11.14 14.83-3.88 20.74-21.84 23.3-33.6 2.95 5.5 4.7 11.89 4.85 18.89M685.8 1740.43l-14.61 9.93c-22.32-9.28-41.91-44.64-134.55-27.83 40.98-22.07 94.36-21.26 149.16 17.9" fill="#2BC614"/><path d="M1131.71 2088.04c-48.96 36.32-172.98 48.99-245.31 47.21-70.49 0-334.45-24.09-410.48-205.52-21.02-50.18-18.18-101.12.5-141.51 2.16 107.6 44.58 208.37 187.06 265.31 168.76 67.39 255.55-16.21 259.08-98.3 21.18 23.28-3.88 98.96 30.13 124.14 26.53 19.68 142.57 20.28 172.39-20.02 26.09 22.31 61.85 2.19 58.97-24.22 1.66 2.95 2.95 6.14 3.76 9.52 6.44 26.46-13.55 56.19-56.1 43.39" fill="#2BC614"/><path d="M671.18 1750.35c41.01 8.87 80.23 27.33 115.15 51.2 33.92 22.77 64.17 50.8 99.13 70.47 34.27 21.08 70.63 27.9 110.84 31.65 37.73 4.65 89.59 6.62 125.86 18.4l-15.59 3.19c23.07-21.77 63.36-20.04 82.88 5.98 21.37 26.2 13.57 67.83-18.38 81.23-18.8 8.24-39.73 4.01-56.62-4.4l11.73.92c-21.22 6.39-41.88 9.37-62.49 11.78-20.6 2.32-41.07 3.71-61.49 4.75l.76-31.59c41.95 4.5 83.76 5.81 125.3 16.84l-13.81 2.04c14.94-10.53 35.41-15.79 53.74-9.64 55.95 19.02 45.1 102.7-15.24 103.73-9.24.28-17.81-1.35-25.78-3.68l13.99-2.44c-11.23 8.14-22.93 13.87-34.66 18.56-186.8 67.28-525.93 34.21-633.32-154.33-25.93-44.48-36.96-98.38-24.53-148.99 26.98-113.46 151.98-164.55 237.16-75.6-21.98-9.69-43.96-17.28-65.94-19.46-43.08-5.05-84.87 12.1-111.12 46.05-71.66 96.5-3.63 218.45 87.86 273.94 117.34 71.89 263.73 89.51 398.88 72.24 43.44-6.59 90.21-13.51 127.01-38.02 4.11-2.99 9.26-3.65 13.78-2.3 10.99 3.37 21.58 3.17 27.88-.93 6.32-3.77 9.99-12.01 8.76-20.82-2.91-19.9-24.77-24-40.52-12.2-4.2 2.9-9.29 3.49-13.82 2.03-38.1-9.74-79.16-11.26-118.72-15.48-8.71-.83-15.1-8.56-14.28-17.27.75-7.95 7.28-13.99 15.04-14.33 19.98-1.01 39.89-2.38 59.5-4.59 19.55-2.24 39.11-5.23 56.68-10.56a16.05 16.05 0 0 1 11.68.93c9.57 4.65 20.64 7.71 29.93 3.77 7.55-3.27 12.69-11.7 11.19-19.86-2.28-20.33-26.79-28.65-41.84-14.12-4.41 3.9-10.36 4.91-15.59 3.19-37.14-10.78-79.7-11.35-119.19-15.23-26.12-2.53-54.18-4.96-80.31-13.88-35.86-12.55-68.8-34.86-96.83-59.31-23.95-20.23-45.44-40.95-69.59-60.14-23.88-19.66-48.9-36.45-75.07-53.72" fill="#371A45"/><path d="M907.12 2048.42c2.76-20.27 6.28-37.59 7.6-56.95 1.68-19.47-.02-36.32-.78-56.95 36.4 27.06 31.18 90.64-6.82 113.9m95.16-51.24c-7.15-.02-40.24 6-40.24 9.13 0 3.13 28.81 16.15 41.91 16.15l-1.67-25.28" fill="#371A45"/><path d="M1028.54 1776.48s27.07-21.88 18.49-49.81c-11.27-36.66-49.75-44.77-68.87-45.55-19.12-.77-58.13 4.22-72.32 39.84-10.81 27.15 14.41 51.14 14.41 51.14s15.77 20.45 53.35 21.97c37.57 1.52 54.94-17.59 54.94-17.59" fill="#62ED2E"/><path d="M1048.59 1740.71c.35-4.44-.06-9.15-1.56-14.04-11.27-36.66-49.75-44.77-68.87-45.55-1.14-.04-2.34-.07-3.61-.07-20.06 0-55.36 6.4-68.71 39.91-1.89 4.76-2.68 9.42-2.69 13.88 0-4.46.78-9.12 2.68-13.88 13.36-33.51 48.65-39.92 68.7-39.92 1.27 0 2.48.03 3.62.07 19.15.78 57.62 8.89 68.89 45.56 1.51 4.89 1.91 9.6 1.55 14.04" fill="#D0FAC0"/><path d="M1046.66 1750.24c-.15-.58-.33-1.19-.5-1.77-11.28-36.66-49.75-44.78-68.9-45.55-1.13-.05-2.34-.07-3.61-.07-20.05 0-55.35 6.4-68.7 39.91-.22.56-.45 1.16-.64 1.73-.73-3.07-1.16-6.3-1.16-9.65.01-4.46.8-9.12 2.69-13.88 13.35-33.51 48.65-39.91 68.71-39.91 1.27 0 2.47.03 3.61.07 19.12.78 57.6 8.89 68.87 45.55 1.5 4.89 1.91 9.6 1.56 14.04-.26 3.34-.96 6.53-1.93 9.53" fill="#D0FAC0"/><path d="m987.61 1819.63-35.52-1.44c-39.64-1.6-67.77-39.27-58.04-77.73l6.6-26.07s12.81 43.59 71.57 45.97c58.75 2.37 75.04-40.04 75.04-40.04l4.47 26.52c6.59 39.12-24.48 74.39-64.12 72.79" fill="#32CC17"/><path d="M1028.54 1776.48c34.16-50.82-18-85.5-66.12-78.87-40.47 4.65-64.18 35.65-42.17 74.49-11.58-6.49-20.71-16.99-24.76-30.2-8.57-29.42 15.41-59.85 42.03-69.67 13.41-5.28 27.16-7.36 41.28-6.93 28.26 1.38 58.13 13.86 72.27 40.05 15.67 26.61 5.33 58.73-22.53 71.13" fill="#371944"/><path d="M999.61 1734.38c-1.91.67-9.06-14.66-22.97-15.22-13.94-.57-22.31 14.13-24.16 13.31-1.39-.63 2.71-12.83 12.79-18.43-9.6-6.4-12.69-18.89-11.26-19.4 1.91-.65 9.06 14.68 22.97 15.24 13.94.57 22.31-14.13 24.17-13.34 1.38.63-2.71 12.83-12.8 18.43 9.6 6.4 12.7 18.89 11.26 19.41" fill="#371944"/><path d="M973.14 21c304.3 0 623.38 216.797 642.36 602.682 24.3 494.138-487.95 705.498-642.36 705.498-154.4 0-666.66-211.36-642.36-705.498C349.76 237.797 668.85 21 973.14 21" fill="#62ED2E"/><path d="M1542.73 950.52c-143.12 262.17-454.96 378.66-569.6 378.66-114.61 0-426.45-116.49-569.57-378.66 172.41 226.2 416.35 310.41 569.57 310.41 153.22 0 397.18-84.21 569.6-310.41" fill="#2BC614"/><path d="M396.86 411.113c37.62-87.503 95.85-163.526 167.99-223.52a122.93 122.93 0 0 1 12.62 9.504c-73.9 55.009-136.73 126.733-180.61 214.016m1152.51-.126c-43.88-87.221-106.69-158.9-180.56-213.885a124.2 124.2 0 0 1 12.61-9.502c72.08 59.965 130.33 135.967 167.95 223.387m-476.63-266.235c-9.64 0-19.69-.652-29.98-2.017-62.47-8.294-109.81-39.79-105.76-70.345.23-1.718.61-3.435 1.17-5.054-94.58 5.109-189.41 30.892-275.11 75.934a229.483 229.483 0 0 0-13.53-15.008c95.02-55.546 205.57-86.961 320.93-86.961.88 0 1.8.003 2.68.006.96-.004 1.87-.006 2.83-.006 115.3 0 225.81 31.424 320.78 86.962a230.14 230.14 0 0 0-13.52 15.01c-38.49-20.231-78.81-36.573-120.13-48.915.46 2.69.49 5.412.13 8.1-3.38 25.5-41.57 42.292-90.49 42.294" fill="#D0FAC0"/><path d="M830.09 1298.19c-78.35-14.13-151.45-49.75-216.4-95.17-204.9-139.83-326.16-367.6-298.6-617.764C342.55 247.752 640.09-.045 973.15.695c333.05-.665 630.58 246.98 658.04 584.568 27.7 249.637-93.96 478.377-298.6 617.747-64.98 45.37-138.11 80.85-216.4 95.18 68.2-38.37 134.66-76.22 198.06-121.16 193.76-134.3 308.15-350.62 280.04-588.043-28.39-317.601-307.28-549.078-621.15-547.68-313.87-1.321-592.74 229.999-621.13 547.684-17.03 151.739 22.41 307.739 115.55 429.489 91.77 125.78 228.75 204.66 362.53 279.71" fill="#371A45"/><path d="M457.17 592.491c-30.81 49.682-44.87 183.419 58.24 279.419 99.22 92.37 332.26 81.36 366.12 26.84 18.49-29.78 17.79-175.64-77.49-285.85C703.5 496.613 526.3 481.017 457.17 592.49" fill="#371A45"/><path d="M735.14 906.14c-81.68 0-156.89-22.78-196.26-59.44-87.99-81.92-77.31-195.96-52.44-236.056 23.77-38.337 65.33-59.45 117.01-59.45 63.69 0 128.94 31.488 174.54 84.23C863.22 734 862.28 858.96 852.13 880.77c-6.46 8.67-48.12 25.37-116.98 25.37h-.01" fill="#371A45"/><path d="M821.83 701.48c-.03-.05-.05-.1-.07-.15.02.05.05.1.07.15m-.08-.15c-11.12-22.33-25.45-44.73-43.76-65.905a253.787 253.787 0 0 0-27.27-27.096 254.797 254.797 0 0 1 27.29 27.106c18.3 21.175 32.63 43.565 43.74 65.895" fill="#C3BAC7"/><path d="M843.58 757.28c-12.64-25.42-28.93-50.87-49.77-74.97-51.86-59.997-126.08-95.813-198.54-95.813-49.93 0-91.54 17.322-119.5 49.283 2.93-10.057 6.61-18.598 10.68-25.141 23.76-38.33 65.33-59.442 116.99-59.442 51.89 0 104.78 20.88 147.28 57.132a253.787 253.787 0 0 1 27.27 27.096C796.3 656.6 810.63 679 821.75 701.33h.01c.02.05.04.1.07.15 9.4 18.91 16.5 37.77 21.75 55.8" fill="#C3BAC7"/><path d="M735.15 940.58c-47.17 0-98.6-7.32-143.45-23.91 44.84 16.59 96.27 23.9 143.44 23.91 69.86 0 130.38-16.06 146.39-41.83 6.62-10.66 10.78-36.18 9.02-69.61 1.77 33.43-2.39 58.95-9.02 69.62-16 25.77-76.53 41.82-146.38 41.82M486.79 840.7c-41.93-53.94-54.35-114.8-51.85-164.86-2.48 50.06 9.93 110.91 51.85 164.86" fill="#46A32C"/><path d="M735.14 940.58c-47.17-.01-98.6-7.32-143.44-23.91-29.22-10.81-55.65-25.56-76.29-44.78-10.75-10-20.22-20.41-28.54-31.09-.01-.02-.04-.05-.05-.07l-.03-.03c-41.92-53.95-54.33-114.8-51.85-164.86.46-9.21 1.43-18.06 2.81-26.423 5.29 33.403 17.78 68.643 40.69 101.813 10.08 32.69 28.94 66.14 60.44 95.47 39.37 36.66 114.58 59.44 196.26 59.44h.01c68.86 0 110.52-16.7 116.98-25.37 3.57-7.66 6-28.05 3.95-55.55 13.36-6.78 24.24-14.79 31.79-23.96 1.35 9.75 2.22 19.09 2.68 27.88 1.76 33.43-2.4 58.95-9.02 69.61-16.01 25.77-76.53 41.83-146.39 41.83" fill="#2A1A3B"/><path d="M735.15 906.14h-.01c-81.68 0-156.89-22.78-196.26-59.44-31.5-29.33-50.36-62.78-60.44-95.47 10.17 14.73 22.4 29.05 36.97 42.62 42.95 39.99 123.26 58.56 199.4 58.56 54.19 0 106.27-9.4 141.27-27.19 2.05 27.5-.38 47.89-3.95 55.55-6.46 8.67-48.12 25.37-116.98 25.37" fill="#2A1A3B"/><path d="M470.64 600.841c-27.59 44.489-40.23 170.279 55.57 259.469 59.19 55.11 176.23 72.44 261.25 61.1 49.37-6.59 74.28-20.83 80.61-31.02 12.37-19.92 17.85-158.57-76.02-267.125-53.01-61.314-131.23-95.813-204.12-90.061-51.1 4.043-92.75 28.06-117.29 67.637Zm264.6 355.569c-81.12 0-174.79-20.92-230.63-72.9-110.46-102.84-94.17-245.726-60.91-299.37 29.99-48.363 80.33-77.672 141.73-82.528 82.79-6.536 171.12 32.13 230.6 100.925C913.11 714.83 918.53 869.2 894.99 907.11c-18.81 30.28-72.82 41.64-103.34 45.71-17.57 2.35-36.62 3.59-56.41 3.59Zm754.04-363.919c30.81 49.682 44.87 183.419-58.24 279.419-99.22 92.37-332.25 81.36-366.12 26.84-18.49-29.78-17.79-175.64 77.49-285.85 100.54-116.287 277.75-131.883 346.87-20.41" fill="#371A45"/><path d="M1211.31 906.14c81.69 0 156.89-22.78 196.26-59.44 88-81.92 77.31-195.96 52.45-236.056-23.78-38.337-65.33-59.45-117.02-59.45-63.69 0-128.94 31.488-174.54 84.23-85.23 98.576-84.29 223.536-74.14 245.346 6.46 8.67 48.13 25.37 116.99 25.37" fill="#371A45"/><path d="M1124.29 702.14c.04-.06.07-.13.1-.19-.03.07-.06.12-.1.19m.11-.2c11.15-22.53 25.57-45.14 44.05-66.505a253.073 253.073 0 0 1 .01-.01c-18.48 21.375-32.9 43.985-44.06 66.515" fill="#C3BAC7"/><path d="M1102.87 757.28c5.2-17.82 12.19-36.45 21.42-55.14.04-.07.07-.12.1-.19 0-.01 0-.01.01-.01 11.16-22.53 25.58-45.14 44.06-66.515a252.857 252.857 0 0 1 23.2-23.538c43.16-38.443 97.79-60.69 151.36-60.69 51.66 0 93.22 21.112 116.99 59.442 4.06 6.543 7.75 15.084 10.67 25.14-27.96-31.96-69.56-49.282-119.5-49.282-72.46 0-146.68 35.816-198.54 95.813-20.84 24.1-37.13 49.55-49.77 74.97" fill="#C3BAC7"/><path d="M1211.3 940.58c-69.85 0-130.37-16.05-146.38-41.82-6.65-10.71-10.82-36.39-9-70.03-1.81 33.63 2.36 59.32 9 70.02 16.01 25.77 76.53 41.83 146.39 41.83 47.18 0 98.63-7.33 143.48-23.92-44.86 16.6-96.3 23.92-143.49 23.92m247.44-98.71c43.46-55.25 55.74-117.93 52.61-168.87 3.14 50.94-9.14 113.63-52.61 168.87" fill="#46A32C"/><path d="M1211.31 940.58c-69.86 0-130.38-16.06-146.39-41.83-6.64-10.7-10.81-36.39-9-70.02.47-8.67 1.34-17.87 2.67-27.47 7.55 9.17 18.42 17.18 31.78 23.96-2.04 27.5.39 47.89 3.95 55.55 6.46 8.67 48.13 25.37 116.99 25.37 81.69 0 156.89-22.78 196.26-59.44 31.51-29.33 50.36-62.78 60.45-95.47 22.9-33.17 35.39-68.41 40.69-101.813a234.147 234.147 0 0 1 2.64 23.583c3.13 50.94-9.15 113.62-52.61 168.87-.04.06-.08.1-.12.15 0 .01-.02.03-.03.04-8.07 10.24-17.22 20.23-27.55 29.83-20.63 19.22-47.04 33.96-76.25 44.77-44.85 16.59-96.3 23.92-143.48 23.92" fill="#2A1A3B"/><path d="M1211.31 906.14c-68.86 0-110.53-16.7-116.99-25.37-3.56-7.66-5.99-28.05-3.95-55.55 35.01 17.79 87.08 27.19 141.28 27.19 76.13 0 156.44-18.57 199.39-58.56 14.57-13.57 26.8-27.89 36.98-42.62-10.09 32.69-28.94 66.14-60.45 95.47-39.37 36.66-114.57 59.44-196.26 59.44" fill="#2A1A3B"/><path d="M1342.61 532.581c-68.19 0-139.04 33.807-188.21 90.684-93.86 108.555-88.38 247.205-76.02 267.125 6.33 10.19 31.25 24.43 80.62 31.02 85.02 11.34 202.06-5.99 261.24-61.1 95.8-89.18 83.16-214.972 55.58-259.47-24.54-39.575-66.2-63.593-117.3-67.636-5.27-.415-10.59-.623-15.91-.623ZM1211.22 956.41c-19.8 0-38.84-1.24-56.42-3.59-30.52-4.07-84.53-15.43-103.34-45.71-23.54-37.91-18.12-192.28 78.96-304.573 59.48-68.794 147.8-107.443 230.6-100.925 61.41 4.856 111.74 34.165 141.73 82.529 33.26 53.643 49.55 196.529-60.91 299.369-55.84 51.98-149.51 72.9-230.62 72.9ZM964.8 897.89c4.91 8.89 4.89 18.3-.05 21.03-4.93 2.73-12.92-2.26-17.83-11.15-4.91-8.88-4.89-18.29.05-21.02 4.93-2.73 12.92 2.26 17.83 11.14m16.58.31c-5.24 8.7-5.57 18.11-.74 21.02s13-1.78 18.24-10.48c5.24-8.69 5.57-18.1.74-21.01-4.84-2.91-13 1.78-18.24 10.47" fill="#371A45"/><path d="M738.93 329.599c1.56-6.024-33.17-234.561-192.03-253.146-83.1-9.73-140.21 45.086-162.95 67.278-9.05-3.267-18.97-4.548-29.17-3.433-35.9 3.918-61.83 36.204-57.92 72.103 3.92 35.864 36.2 61.794 72.1 57.875 35.87-3.914 61.8-36.2 57.88-72.064-.3-2.803-.78-5.55-1.44-8.242 37.28-22.58 177.83-72.866 222.25 153.52l91.28-13.891" fill="#62ED2E"/><path d="M713.38 310.632c-4.46-22.13-14.44-60.354-33.57-99.117-33.63-68.141-79.23-106.032-135.54-112.62a145.92 145.92 0 0 0-17.46-.992c-63.81.269-108.15 43.528-127.08 62l-10.14 9.893-13.32-4.812a41.906 41.906 0 0 0-14.46-2.484c-1.52.007-3.06.093-4.58.26-23.46 2.56-40.46 23.73-37.9 47.19 2.38 21.824 20.71 38.212 42.64 38.122 1.5-.006 3.03-.093 4.54-.26 11.35-1.236 21.54-6.825 28.69-15.736 7.16-8.91 10.42-20.065 9.18-31.411-.2-1.82-.51-3.611-.93-5.335l-3.93-16.102 14.17-8.586c9.34-5.657 43.21-24.126 86.9-24.308 57.15-.24 130.76 30.025 164.63 171.627l48.16-7.33" fill="#62ED2E"/><path d="M319.34 209.965c2.38 21.812 20.69 38.199 42.64 38.107 1.48-.006 3.03-.077 4.52-.245 11.35-1.242 21.53-6.836 28.69-15.744 7.17-8.907 10.41-20.057 9.2-31.415-.2-1.807-.53-3.613-.96-5.322l-.36-1.548a42.324 42.324 0 0 1-7.97 15.657c-7.16 8.907-17.34 14.502-28.7 15.744-1.48.167-3.03.27-4.52.277-19.59.082-36.27-12.987-41.32-31.301a42.204 42.204 0 0 0-1.22 15.79" fill="#2BC614"/><path d="M738.94 329.588v-.007c1.01-4.412-14.95-112.477-75.89-186.307l.01-.004c61.03 73.94 76.94 182.207 75.88 186.318" fill="#D0FAC0"/><path d="M663.05 143.274a229.83 229.83 0 0 0-13.52-15.007v-.005c4.74 4.805 9.24 9.816 13.53 15.008l-.01.004" fill="#F1FDEC"/><path d="M398.88 129.715c25.69-22.836 69.7-54.421 128.55-54.421 6.32 0 12.82.365 19.48 1.144 26.77 3.136 50.01 12.23 70.16 25.22l-.01.007c-20.15-12.987-43.39-22.08-70.16-25.212-6.67-.78-13.17-1.145-19.49-1.145-58.85 0-102.85 31.582-128.53 54.407" fill="#E1DEFF"/><path d="M649.53 128.267c-9.81-9.94-20.6-18.944-32.47-26.602l.01-.006c11.87 7.654 22.67 16.67 32.46 26.603v.005" fill="#C3BAC7"/><path d="M306.18 171.024c10.22-16.594 27.72-28.471 48.6-30.74a66.48 66.48 0 0 1 7.18-.39c3.99 0 7.92.365 11.74 1.069a64.991 64.991 0 0 0-11.71-1.06c-2.38 0-4.79.13-7.21.395-20.87 2.277-38.37 14.14-48.6 30.726" fill="#E1DEFF"/><path d="M738.94 329.581c-.27-.813-22.62-68.366-65.17-129.753-32.98-60.793-76.5-94.731-129.5-100.932a145.6 145.6 0 0 0-16.87-.992h-.59c-26.4.11-49.47 7.58-68.78 17.61-30.79 14.025-53.35 35.069-66.34 47.762-10.75-8.431-28.91-14.741-39.62-14.741-.85 0-1.66.04-2.41.12-23.36 2.55-43.7 34.573-53.14 54.336a65.162 65.162 0 0 1 9.66-31.967c10.23-16.586 27.73-28.45 48.6-30.726 2.42-.265 4.83-.395 7.21-.395 3.98 0 7.9.362 11.71 1.06a64.16 64.16 0 0 1 10.25 2.782c3.95-3.861 8.94-8.706 14.93-14.03 25.68-22.825 69.68-54.407 128.53-54.407 6.32 0 12.82.365 19.49 1.145 26.77 3.132 50.01 12.225 70.16 25.212 11.87 7.658 22.66 16.662 32.47 26.602a229.83 229.83 0 0 1 13.52 15.007c60.94 73.83 76.9 181.895 75.89 186.307" fill="#D0FAC0"/><path d="M673.77 199.828c-32.73-47.208-77.41-90.764-133.21-97.54a151.608 151.608 0 0 0-18.29-1.113c-24.2 0-45.71 5.898-64.24 14.34 19.31-10.03 42.38-17.5 68.78-17.611h.59c5.57 0 11.24.333 16.87.992 53 6.2 96.52 40.139 129.5 100.932" fill="#D0FAC0"/><path d="M738.93 329.599c-20.21-75.112-61.6-167.987-128.11-211.63-61.32-39.878-136.6-27.341-191.79 17.03-10.49 8.065-21.47 17.533-31.36 26.924l-9.1-3.29c-32.31-12.455-69.47 15.482-66.05 50.088 5.68 60.283 91.26 61.279 98.65 1.258.81-8.666-1.76-18.898-2.88-27.48 15.24-11.254 32.39-20.085 50.34-24.702 43.88-12.67 95.21-1.527 127.5 31.37 36.02 35.424 50.96 85.49 58.92 133.879l2.6 20.447c-14.95-49.26-35.83-104.524-77-136.61-39.27-32.14-94.56-24.435-137.04-3.358l7.18-17.315c8.88 35.279-8.72 74.419-41.17 90.937-74.91 38.22-151.26-46.723-105.12-117.183 19.83-30.305 60.86-43.892 94.83-31.136l-16.45 3.56c15.16-16.402 32.75-32.245 52.69-44.818C485.9 47.159 570.8 46.354 629.8 89.925c71.51 50.466 109.71 154.723 109.13 239.674" fill="#371A45"/><path d="M1207.35 329.599c-1.55-6.024 33.17-234.561 192.04-253.146 83.1-9.73 140.2 45.086 162.95 67.278 9.04-3.267 18.97-4.548 29.17-3.433 35.9 3.918 61.83 36.204 57.91 72.103-3.91 35.864-36.2 61.794-72.1 57.875-35.86-3.914-61.79-36.2-57.88-72.064.31-2.803.79-5.55 1.45-8.242-37.28-22.58-177.83-72.866-222.25 153.52l-91.29-13.891" fill="#62ED2E"/><path d="M1232.9 310.632c4.46-22.13 14.44-60.354 33.57-99.117 33.64-68.141 79.24-106.032 135.55-112.62 5.82-.68 11.69-1.014 17.45-.992 63.82.269 108.15 43.528 127.09 62l10.13 9.893 13.32-4.812a41.962 41.962 0 0 1 14.47-2.484c1.51.007 3.05.093 4.58.26 23.46 2.56 40.46 23.73 37.9 47.19-2.38 21.824-20.72 38.212-42.65 38.122-1.5-.006-3.03-.093-4.54-.26-11.34-1.236-21.53-6.825-28.69-15.736-7.15-8.91-10.41-20.065-9.17-31.411.19-1.82.51-3.611.93-5.335l3.93-16.102-14.17-8.586c-9.35-5.657-43.21-24.126-86.9-24.308-57.15-.24-130.77 30.025-164.64 171.627l-48.16-7.33" fill="#62ED2E"/><path d="M1626.95 209.965c-2.39 21.812-20.69 38.199-42.64 38.107a42.213 42.213 0 0 1-4.52-.245c-11.36-1.242-21.54-6.836-28.7-15.744-7.16-8.907-10.4-20.057-9.2-31.415.21-1.807.54-3.613.96-5.322l.36-1.548a42.498 42.498 0 0 0 7.98 15.657c7.16 8.907 17.34 14.502 28.69 15.744 1.49.167 3.04.27 4.52.277 19.6.082 36.27-12.987 41.32-31.301a42.204 42.204 0 0 1 1.23 15.79" fill="#2BC614"/><path d="M1207.35 329.588c-1.07-4.111 14.85-112.374 75.88-186.314v.004c-60.94 73.83-76.9 181.89-75.88 186.303v.007" fill="#D0FAC0"/><path d="M1283.23 143.278v-.004a229.898 229.898 0 0 1 13.52-15.011l.01.005a230.035 230.035 0 0 0-13.53 15.01" fill="#F1FDEC"/><path d="M1545.92 128.397c-25.89-22.703-69.32-53.09-127.04-53.09-6.33 0-12.83.366-19.49 1.146-26.77 3.132-50.02 12.228-70.16 25.215-.02-.01 0 .004-.01-.007 20.14-12.99 43.38-22.087 70.16-25.223 6.66-.78 13.16-1.144 19.48-1.144 57.72 0 101.17 30.389 127.06 53.103" fill="#E1DEFF"/><path d="m1296.76 128.268-.01-.005c9.8-9.941 20.59-18.943 32.47-26.602.01.01-.01-.003.01.007-11.88 7.658-22.67 16.66-32.47 26.6" fill="#C3BAC7"/><path d="M1640.11 171.025c-10.23-16.586-27.73-28.45-48.6-30.727a66.278 66.278 0 0 0-7.21-.395c-4 0-7.94.365-11.76 1.07a64.709 64.709 0 0 1 11.79-1.08c2.37 0 4.76.13 7.17.392 20.89 2.268 38.38 14.144 48.61 30.74" fill="#E1DEFF"/><path d="M1207.35 329.581c-1.02-4.412 14.94-112.473 75.88-186.303 4.28-5.184 8.8-10.211 13.53-15.01 9.8-9.94 20.59-18.942 32.47-26.6 20.14-12.987 43.39-22.083 70.16-25.215 6.66-.78 13.16-1.145 19.49-1.145 57.72 0 101.15 30.386 127.04 53.089 6.65 5.839 12.14 11.17 16.42 15.348a63.784 63.784 0 0 1 10.2-2.772 64.83 64.83 0 0 1 11.76-1.07c2.38 0 4.79.13 7.21.395 20.87 2.277 38.37 14.14 48.6 30.728a65.262 65.262 0 0 1 9.66 31.965c-9.44-19.763-29.79-51.785-53.15-54.335-.75-.081-1.55-.121-2.4-.121-10.72 0-28.87 6.31-39.62 14.74-12.99-12.692-35.56-33.736-66.34-47.76-19.32-10.03-42.38-17.5-68.79-17.61l-.58-.001c-5.57 0-11.25.333-16.87.992-53.01 6.2-96.52 40.137-129.5 100.937-42.56 61.38-64.9 128.92-65.17 129.748" fill="#D0FAC0"/><path d="M1272.52 199.833c32.98-60.8 76.49-94.736 129.5-100.937 5.62-.66 11.3-.992 16.87-.992h.58c26.41.11 49.47 7.58 68.79 17.61-18.53-8.441-40.05-14.34-64.24-14.34-5.94 0-12.04.356-18.29 1.115-55.8 6.775-100.48 50.337-133.21 97.544" fill="#D0FAC0"/><path d="M1207.35 329.599c-.6-84.908 37.65-189.238 109.13-239.676 59.02-43.56 143.9-42.773 204.24-2.352 19.94 12.572 37.53 28.415 52.68 44.818l-16.44-3.562c33.96-12.751 75.01.83 94.83 31.138 46.09 70.426-30.12 155.404-105.12 117.182-32.46-16.521-50.05-55.65-41.18-90.93l7.19 17.307c-80.51-38.86-144.4-16.004-184.75 64.12-12.11 23.189-21.74 50.662-29.29 75.849l2.59-20.447c7.97-48.394 22.91-98.451 58.93-133.88 32.29-32.896 83.61-44.04 127.5-31.368 17.93 4.613 35.12 13.448 50.34 24.702-1.18 8.609-3.69 18.788-2.89 27.479 7.53 60.079 92.87 59.06 98.66-1.26 3.37-34.61-33.69-62.541-66.05-50.084l-9.1 3.288c-9.92-9.39-20.86-18.851-31.36-26.924-55.18-44.364-130.5-56.912-191.8-17.027-66.45 43.56-107.92 136.557-128.11 211.627M1012.71 982.46c-9.93-.86-30.43-2.7-39.56-2.5-9.06-.12-29.75 1.67-39.58 2.5 4.47-45.27 74.61-45.18 79.14 0" fill="#371A45"/></g></svg>