<svg width="2630" height="2957" viewBox="0 0 2630 2957" xmlns="http://www.w3.org/2000/svg"><g fill="none" fill-rule="evenodd"><path d="M1652.35 1470.73c-205.49 97.14-508.58 99.7-668.46 36.61-38.87-15.34-94.95-36.72-77.73-99.27 13.8-50.14 120.04-39.8 120.04-39.8s-83.18-40.62-95.55-82.62c-9.27-31.49 21.6-99.5 113.65-64.71 178.86 67.61 313.94 88.37 377.64 64.88l230.41 184.91" fill="#62ED2E"/><path d="M906.18 1408.08c13.79-50.15 120-39.8 120-39.8s-83.17-40.63-95.52-82.63c-9.3-31.49 21.58-99.5 113.66-64.69 31.52 11.91 61.7 22.37 90.33 31.37 49.78 15.7 95.02 27.03 134.86 34.07 67.38 11.87 119.46 11.57 152.44-.58l230.38 184.92c-153.41 72.52-361.28 92.31-523.29 71.41-30.33-3.9-59.07-9.26-85.51-15.95-21.51-5.38-41.49-11.7-59.63-18.86-38.91-15.34-94.95-36.73-77.72-99.26" fill="#62ED2E"/><path d="M1652.34 1470.73c-21.23 10.02-43.49 19.06-66.54 27.11-143.52 50.11-317.15 62.35-456.76 44.31-30.35-3.91-59.08-9.27-85.52-15.94-21.5-5.41-41.47-11.72-59.62-18.86-19.42-7.66-43.13-16.85-59.87-31.89 31.22-29.04 108.64-21.51 108.64-21.51s-75.85-37.05-93.4-76.98c35.91-13.66 86.93-8.69 86.93-8.69s-45.15-22.06-73.87-50.47c-10.26-10.14-18.43-21.11-21.67-32.16-9.31-31.49 21.59-99.52 113.65-64.68 31.53 11.92 61.72 22.38 90.33 31.38 49.8 15.7 95.02 27.03 134.88 34.05 67.36 11.88 119.45 11.56 152.44-.59l230.38 184.92" fill="#62ED2E"/><path d="M1585.8 1497.84c-143.52 50.11-317.15 62.35-456.76 44.31-30.35-3.91-59.08-9.27-85.52-15.94-21.5-5.41-41.47-11.72-59.62-18.86-19.42-7.66-43.13-16.85-59.87-31.89 31.22-29.04 108.64-21.51 108.64-21.51s-75.85-37.05-93.4-76.98c35.91-13.66 86.93-8.69 86.93-8.69s-45.15-22.06-73.87-50.47c17.4-18.94 49.17-29.79 98.49-11.17 31.53 11.92 61.68 22.38 90.33 31.38 49.76 15.7 96.69 47.07 136.5 54.1 67.4 11.87 117.83-8.45 150.82-20.6l157.33 126.32" fill="#32CC17"/><path d="M1258.46 1566.13c-108.97 0-209.49-16.14-280.37-44.11l-1.23-.49c-37.3-14.71-106.72-42.09-85.92-117.65 9.31-33.8 46.36-46.28 79.72-50.48-23.52-16.73-48.04-39.13-55.15-63.29-5.94-20.18.06-51.74 23.01-73.03 15.15-14.06 49.77-34.18 111.36-10.9 167.74 63.4 304.79 87.63 366.6 64.83 8.18-3.01 17.26 1.17 20.27 9.35 3.02 8.18-1.16 17.26-9.34 20.27-69.79 25.73-211.46 2.07-388.69-64.92-34.33-12.98-61.56-11.41-78.73 4.51-14.22 13.2-16.86 31.9-14.19 40.97 7.55 25.67 57.58 58.34 87.34 72.9 6.85 3.36 10.33 11.14 8.25 18.48-2.09 7.34-9.11 12.17-16.72 11.41-30.32-2.9-95.55.17-103.29 28.28-12.32 44.76 20.02 61.35 67.06 79.91l1.24.48c152.5 60.18 452.46 60 655.92-36.19 7.89-3.73 17.3-.36 21.02 7.52 3.73 7.88.36 17.29-7.52 21.02-120.05 56.75-266.73 81.13-400.64 81.13" fill="#371A45"/><path d="M1258.46 1566.13c-108.97 0-209.49-16.14-280.37-44.11l-1.23-.49c-37.3-14.71-106.72-42.09-85.92-117.65 9.31-33.8 46.36-46.28 79.72-50.48-23.52-16.73-48.04-39.13-55.15-63.29-5.94-20.18.06-51.74 23.01-73.03 15.15-14.06 49.77-34.18 111.36-10.9 167.74 63.4 304.79 87.63 366.6 64.83 8.18-3.01 17.26 1.17 20.27 9.35 3.02 8.18-1.16 17.26-9.34 20.27-69.79 25.73-211.46 2.07-388.69-64.92-34.33-12.98-61.56-11.41-78.73 4.51-14.22 13.2-16.86 31.9-14.19 40.97 7.55 25.67 57.58 58.34 87.34 72.9 6.85 3.36 10.33 11.14 8.25 18.48-2.09 7.34-9.11 12.17-16.72 11.41-30.32-2.9-95.55.17-103.29 28.28-12.32 44.76 20.02 61.35 67.06 79.91l1.24.48c152.5 60.18 452.46 60 655.92-36.19 7.89-3.73 17.3-.36 21.02 7.52 3.73 7.88.36 17.29-7.52 21.02-120.05 56.75-266.73 81.13-400.64 81.13" fill="#371A45"/><path d="M1291.4 1980.36c-100.58 151.9-426.83 152.58-447.72-154.58-7.97-117.27 48.42-268.27 61.8-352.64 27.99-176.53-61.13-381.15-61.13-381.15l245.6 63.52s69.01 69.11 57.8 235.75c-6.87 102.31-85.76 266.62-108.17 387.58 0 0 37.44-110.09 155.42-106.26 127.26 4.2 197.14 155.62 96.4 307.78" fill="#FEF26B"/><path d="M1291.4 1980.36c-100.58 151.9-426.83 152.58-447.72-154.58-7.97-117.27 48.42-268.27 61.8-352.64 25.63-161.7-46.98-346.94-59.37-376.92 53.35 68.58 116.6 178.08 102.49 299.44-9.88 84.85-74.86 254.84-60.11 371.44 35.07 276.97 324.97 287.28 435.18 150.53-7.65 20.63-18.32 41.69-32.27 62.73" fill="#FFC55F"/><path d="M1101.95 1935.27c-9.05-.79-18.22-2.59-27.09-6.05-8.85-3.4-17.38-8.53-24.6-15.32-14.73-13.6-22.85-32.88-26.3-51.4-3.76-18.73-3.28-37.35-1.92-55.49 1.76-18.11 4.65-35.89 8.53-53.32 15.63-69.71 41.21-135.19 63.38-201.2 11.14-32.96 21.85-66 29.95-99.29 4.06-16.63 7.45-33.34 9.45-49.92.52-4.15.87-8.28 1.2-12.4l.7-12.76c.34-8.51.59-17.03.49-25.54-.23-33.98-3.88-67.94-12.63-100.38-4.35-16.2-9.94-32.03-17.03-47.01-3.53-7.49-7.44-14.76-11.73-21.71-2.18-3.44-4.42-6.82-6.77-10.05-1.18-1.61-2.38-3.19-3.59-4.69-1.14-1.41-2.64-3.14-3.38-3.92l6.02 3.45-245.56-63.53 15.38-18.02c8.3 19.75 15.29 39.12 21.91 59 6.59 19.79 12.53 39.79 17.87 59.96 10.66 40.34 18.88 81.42 23.61 123.1 4.64 41.65 6.04 83.99 1.32 126.19-2.29 21.12-6.39 42.12-11.18 62.29-4.73 20.29-9.92 40.28-15.01 60.22-10.22 39.85-20.2 79.52-27.64 119.47-7.36 39.87-12.48 80.2-10.92 119.8 1.88 39.7 9.36 79.41 24.78 115.47 15.43 36 39.37 68.08 70.51 91.22 31.06 23.18 68.64 37.32 107.44 41.8 38.82 4.53 78.84-.07 115.7-13.23 36.77-13.08 70.66-34.97 95.03-64.71 6.08-7.4 11.39-15.27 16.64-23.83 5.18-8.43 9.96-17.07 14.28-25.92 8.65-17.7 15.44-36.21 19.83-55.2 8.88-37.82 7.78-78.18-6.83-113.32-7.19-17.52-17.76-33.52-31.15-46.58-13.32-13.13-29.61-23.03-47.27-29.02-17.72-6.04-36.65-7.82-55.63-6.56-9.44.52-18.76 1.9-27.76 4.33-9.05 2.24-17.83 5.39-26.3 9.32-16.92 7.88-32.27 19.29-45.93 32.97-13.69 13.58-25.84 29.71-36.01 46.76l-.17.31a4.438 4.438 0 0 1-6.07 1.53 4.414 4.414 0 0 1-2.07-4.66c2.16-10.88 5.92-20.82 10.59-30.62 4.62-9.78 10.38-19.05 16.96-27.82 13.21-17.48 30.48-32.51 50.48-42.93 19.96-10.49 42.42-16.25 64.65-17.21 22.08-1.36 44.85 1.77 66.07 9.23 21.24 7.53 40.79 19.82 56.88 35.52 16.1 15.71 28.64 34.81 37.09 55.36 17.12 41.26 18 87.26 8.15 129.33-4.9 21.14-12.4 41.52-21.82 60.81-4.71 9.66-9.91 19.04-15.5 28.16-5.51 8.99-11.73 18.24-18.72 26.74-28 34.11-65.96 58.36-106.57 72.83-40.72 14.52-84.63 19.59-127.63 14.59-42.93-4.96-85.1-20.7-120.12-46.86-35.13-26.07-62.01-62.3-78.96-101.93-16.98-39.8-24.87-82.33-26.9-124.77-1.66-42.8 3.79-84.72 11.34-125.73 7.65-41.04 17.79-81.28 28.02-121.19 5.1-19.96 10.25-39.83 14.87-59.65 4.71-19.88 8.5-39.37 10.65-59.21 4.46-39.7 3.17-80.21-1.31-120.34-4.55-40.15-12.52-80.05-22.9-119.31a963.908 963.908 0 0 0-17.4-58.4c-6.38-19.2-13.4-38.58-21.06-56.79l-.07-.15c-2.82-6.71.33-14.43 7.04-17.25 2.76-1.17 5.71-1.31 8.41-.61l245.56 63.52.24.07c2.28.58 4.27 1.81 5.79 3.38 2.28 2.38 3.59 3.99 5.22 5.97 1.53 1.89 2.97 3.79 4.38 5.71 2.79 3.83 5.38 7.74 7.86 11.68 4.91 7.92 9.26 16.07 13.19 24.38 7.86 16.61 13.93 33.88 18.65 51.42 9.46 35.1 13.29 71.23 13.54 107.07.09 8.97-.17 17.93-.52 26.87l-.74 13.41c-.36 4.58-.75 9.17-1.32 13.69-2.19 18.11-5.79 35.72-10.02 53.03-8.52 34.61-19.25 68.19-30.15 101.53-11.03 33.3-22.22 66.39-32.82 99.49-10.81 33.03-20.72 66.21-28.76 99.44-3.92 16.63-7.35 33.28-9.4 49.91-2.12 16.58-2.92 33.2-1.22 49.06 1.8 15.81 6.47 30.84 16.14 42.63 9.57 11.88 24.16 19.96 40.32 25.15l.08.02a4.42 4.42 0 0 1 2.85 5.56c-.64 1.99-2.58 3.22-4.59 3.05" fill="#371A45"/><path d="M1448.15 1906.07c-74.47 166.27-396.25 220.12-466.93-79.53-26.97-114.4 4.04-272.58 3.49-357.99-1.15-178.74-122.43-366.1-122.43-366.1l252.66 22.64s79.36 56.94 95.45 223.18c9.9 102.06-41.15 277.03-43.54 400.03 0 0 18.99-114.72 136.02-130.17 126.24-16.61 219.87 121.4 145.28 287.94" fill="#FD6CCB"/><path d="M866 1104.74c16.14 26.06 119.59 199.55 120.66 363.8.17 27.22-2.91 62.51-6.17 99.87-7 80.16-15.71 179.93 2.62 257.68 29.38 124.55 107.73 201.83 214.97 212.02 103.23 9.83 209.98-47.29 248.3-132.83 37.98-84.82 34.76-170.21-8.61-228.44-32.13-43.12-81.25-63.83-134.64-56.79-114.29 15.09-134.18 127.43-134.36 128.56-.18 1.01-1.09 1.74-2.1 1.62a1.945 1.945 0 0 1-1.77-1.97c1.09-55.54 12.16-122.21 22.86-186.69 13.43-80.88 26.11-157.27 20.7-213.11-15.24-157.35-88.1-216.75-94.24-221.48L866 1104.74m355.26 938.35c-7.85 0-15.71-.37-23.55-1.11-109-10.36-188.6-88.72-218.38-214.99-18.48-78.37-9.74-178.48-2.71-258.92 3.25-37.27 6.33-72.47 6.15-99.51-1.14-176.1-120.91-363.18-122.12-365.05a1.94 1.94 0 0 1-.04-2.06c.39-.64 1.11-1 1.84-.938l252.67 22.648c.34.03.67.15.96.35.8.58 80.25 59.37 96.25 224.57 5.46 56.35-7.27 132.99-20.74 214.13-9.58 57.74-19.46 117.24-22.16 168.78 10.66-32.87 43.66-102.97 133.19-114.79 54.88-7.21 105.28 14.04 138.26 58.32 44.23 59.37 47.61 146.23 9.04 232.34-36.05 80.48-131.56 136.23-228.66 136.23" fill="#102770"/><path d="M1448.15 1906.07c-74.47 166.27-396.25 220.12-466.93-79.53-26.97-114.4 4.04-272.58 3.49-357.99-1.07-163.72-102.9-334.65-120.01-362.21 63.82 58.97 144.07 156.69 149.93 278.73 4.08 85.33-32.32 263.63 1.24 376.27 79.74 267.55 367.45 230.47 453.89 77.58-4.18 21.6-11.27 44.12-21.61 67.15" fill="#F948C3"/><path d="M1253.89 1892.46c-9.06.71-18.41.43-27.71-1.54-9.3-1.92-18.55-5.59-26.78-11.12-16.74-11.01-27.9-28.71-34.33-46.42-6.76-17.86-9.33-36.32-10.93-54.43-1.22-18.15-1.27-36.17-.28-54 4.06-71.32 18.63-140.1 29.74-208.84 5.61-34.34 10.8-68.67 13.36-102.85 1.3-17.07 1.92-34.1 1.19-50.79-.16-4.18-.49-8.3-.83-12.42l-1.4-12.71c-1.05-8.45-2.19-16.9-3.67-25.27-5.77-33.5-14.91-66.41-28.83-96.98-6.93-15.28-15.03-29.98-24.46-43.61-4.72-6.81-9.75-13.36-15.12-19.5-2.71-3.05-5.46-6.02-8.31-8.83-1.43-1.38-2.87-2.75-4.31-4.03-1.35-1.21-3.12-2.68-3.97-3.32l6.5 2.42-252.64-22.65 12.24-20.29c11.42 18.13 21.47 36.11 31.24 54.64 9.73 18.46 18.84 37.22 27.4 56.25 17.09 38.06 31.9 77.25 43.36 117.6 11.37 40.34 19.65 81.89 21.87 124.29 1.19 21.21.56 42.6-.88 63.28-1.35 20.79-3.21 41.36-4.99 61.86-3.59 40.98-6.96 81.75-7.79 122.38-.77 40.54.76 81.15 8.75 119.98 8.33 38.86 22.18 76.82 43.28 109.88 21.08 33.01 49.93 60.75 84.42 78.51 34.42 17.81 73.81 25.63 112.82 23.73 39.04-1.86 77.78-12.93 111.99-31.91 34.16-18.9 64.03-46.03 83.22-79.33 4.79-8.31 8.75-16.94 12.54-26.23 3.73-9.16 7.04-18.47 9.86-27.91 5.64-18.86 9.32-38.24 10.57-57.69 2.59-38.76-5.07-78.4-25.21-110.69-9.96-16.11-23-30.18-38.33-40.88-15.29-10.78-32.97-17.9-51.38-20.93-18.46-3.07-37.42-1.73-55.95 2.6-9.22 2.05-18.19 4.93-26.68 8.8-8.56 3.68-16.71 8.22-24.42 13.47-15.42 10.54-28.71 24.31-39.95 40.03-11.3 15.63-20.65 33.52-27.9 52l-.13.33a4.425 4.425 0 0 1-5.73 2.5c-1.79-.7-2.86-2.45-2.81-4.26.37-11.09 2.46-21.51 5.47-31.93 2.95-10.4 7.13-20.49 12.2-30.22 10.18-19.39 24.76-37.04 42.8-50.58 17.99-13.6 39.2-22.95 60.98-27.52 21.56-4.95 44.53-5.56 66.69-1.66 22.18 3.97 43.48 12.9 61.91 25.77 18.45 12.87 33.93 29.67 45.61 48.57 23.62 37.93 31.99 83.16 29.13 126.28-1.39 21.65-5.47 42.98-11.62 63.56-3.08 10.29-6.67 20.39-10.7 30.3-3.97 9.77-8.6 19.91-14.11 29.44-22.07 38.21-55.57 68.33-93.28 89.23-37.8 20.95-80.3 33.11-123.54 35.19-43.16 2.1-87.33-6.56-126.15-26.65-38.91-20-71.34-51.36-94.52-87.7-23.24-36.5-37.96-77.17-46.88-118.72-8.6-41.96-10.06-84.21-9.31-125.9.86-41.73 4.31-83.09 7.9-124.13 1.78-20.52 3.62-40.97 4.95-61.27 1.41-20.39 1.97-40.24.85-60.16-2.07-39.9-9.95-79.66-20.9-118.52-11.04-38.88-25.41-76.93-42.04-113.98-8.33-18.53-17.22-36.82-26.69-54.79-9.42-17.89-19.52-35.87-30.04-52.59l-.09-.14c-3.88-6.15-2.03-14.29 4.13-18.17 2.54-1.6 5.42-2.22 8.2-1.97l252.63 22.65.25.02c2.34.21 4.51 1.09 6.26 2.4 2.64 1.97 4.2 3.35 6.12 5.04 1.82 1.61 3.55 3.26 5.26 4.91 3.37 3.33 6.56 6.76 9.66 10.25 6.13 7.01 11.76 14.34 16.98 21.9 10.47 15.12 19.27 31.16 26.78 47.7 15.06 33.08 24.73 68.11 30.81 103.43 1.56 8.83 2.77 17.71 3.87 26.59l1.46 13.35c.39 4.59.75 9.17.92 13.72.8 18.23.12 36.19-1.23 53.96-2.77 35.54-7.88 70.41-13.2 105.09-5.45 34.65-11.11 69.12-16.17 103.51-5.27 34.34-9.65 68.7-12.16 102.79-1.16 17.05-1.83 34.04-1.14 50.78.61 16.71 2.53 33.23 6.79 48.6 4.36 15.31 11.41 29.37 22.88 39.43 11.38 10.16 27.09 15.75 43.87 18.24l.09.01c2.41.36 4.07 2.6 3.72 5.02-.31 2.07-2.02 3.59-4.03 3.75" fill="#371A45"/><path d="M1568.08 1785.39c-45.23 176.48-353.22 284.07-473.65.73-45.97-108.17-42.2-269.32-57.21-353.41-31.42-175.95-182.7-340.06-182.7-340.06l113.3-9.18c121.86-9.88 234.95 66.54 269.04 183.95.81 2.8 1.61 5.64 2.4 8.52 27.04 98.91 6.38 279.99 24.86 401.62 0 0-.72-116.28 112-151.33 121.6-37.76 237.26 82.39 191.96 259.16" fill="#07BCF8"/><path d="M1567.63 1777.43c-45.23 176.48-353.23 284.07-473.66.73-45.96-108.17-42.19-269.32-57.21-353.41-28.79-161.17-158.12-312.37-179.64-336.63 72.88 47.3 168.53 130.01 194.98 249.29 18.48 83.41 12.82 265.3 64.98 370.63 123.91 250.17 401.18 164.87 460.47-.44-.46 21.99-3.64 45.39-9.92 69.83" fill="#3BB4FF"/><path d="M1373.97 1797.62c-11.19 3.13-23.29 4.5-35.63 2.95-12.36-1.35-24.75-6.22-35.17-13.73-10.54-7.44-18.9-17.23-25.54-27.58-6.68-10.37-11.82-21.35-15.79-32.5-8.16-22.29-12.46-45.07-15.77-67.63-3.11-22.63-4.93-45.17-5.85-67.64-2.06-44.92-1.42-89.49-1.42-133.78-.23-44.24-.45-88.43-5.13-131.47-1.18-10.74-2.63-21.4-4.55-31.85-1.92-10.58-4.31-20.35-7.43-30.85-6.18-19.96-14.51-39.18-25.13-57.15a267.594 267.594 0 0 0-39.1-48.69c-15.23-14.31-32.2-26.67-50.35-37.02-18.29-10.17-37.95-17.61-58.1-23.05-20.23-5.36-41.17-7.37-62.04-7.6l-15.66.58c-5.21.18-10.98.82-16.44 1.21l-33.18 2.69-66.38 5.38 9.98-25.54c28.31 31.83 53.2 64.9 76.73 99.61 23.35 34.68 44.63 70.88 62.76 108.84 18.08 37.94 33.11 77.69 42.6 119.24 5.15 20.72 7.92 42 10.13 62.67 2.24 20.77 3.83 41.34 5.59 61.85 3.45 40.98 6.95 81.71 13.09 121.77 2.85 20.09 6.85 39.83 11.26 59.41 4.97 19.34 10.12 38.71 17.63 56.85l2.65 6.89c.94 2.27 2.07 4.5 3.09 6.75l6.27 13.48c1.95 4.57 4.45 8.82 6.84 13.14l7.16 12.95c2.53 4.21 5.34 8.23 8 12.36 2.76 4.05 5.18 8.37 8.32 12.11 5.99 7.71 11.76 15.63 18.57 22.57 6.31 7.44 13.62 13.79 20.71 20.38 3.56 3.27 7.56 5.98 11.31 9l5.71 4.44 6.06 3.91c15.89 10.87 33.48 18.95 51.72 24.75 36.48 12.02 76.28 12.44 114.08 4.39 18.94-4.1 37.33-10.77 54.85-19.11 17.47-8.46 34.23-18.61 49.24-30.91 30.01-24.38 54.89-55.64 67.92-91.37 6.25-17.5 10.35-37.43 12.75-56.67 2.34-19.41 2.69-38.96.67-58.17-1.96-19.21-6.49-38.04-13.69-55.64-3.4-8.9-7.95-17.23-12.65-25.4-5.13-7.88-10.38-15.74-16.75-22.58-2.95-3.65-6.49-6.7-9.72-10.05-3.55-2.98-6.89-6.25-10.69-8.9-7.3-5.72-15.32-10.38-23.6-14.34-8.25-4.12-17.1-6.77-26-8.86-8.95-2-18.13-2.68-27.29-2.84-18.39.4-36.56 4.55-53.83 12.01-8.57 3.63-16.84 7.8-24.44 12.93-7.74 4.93-14.84 10.73-21.51 17.03-13.22 12.76-24.03 28.21-32.53 45.38-8.64 17.03-15.06 36.08-19.55 55.34l-.1.43a5.12 5.12 0 0 1-6.16 3.83 5.12 5.12 0 0 1-3.9-4.19c-1.77-11.1-1.63-21.77-.58-32.66 1.01-10.86 3.34-21.62 6.59-32.2 6.66-21.07 17.99-41.3 33.67-57.94 15.57-16.69 35.07-29.86 56.05-38.1 20.65-8.63 43.54-12.94 66.31-12.98 11.41.31 22.84 1.4 33.97 4.03 11.05 2.79 22.05 6.14 32.27 11.19 10.27 4.89 20.13 10.69 29.06 17.65 4.64 3.28 8.73 7.18 13.03 10.85 3.94 4.02 8.18 7.79 11.74 12.13 7.65 8.28 13.95 17.57 20 26.95 5.59 9.64 10.88 19.47 14.86 29.81 8.39 20.52 13.54 42.13 15.76 63.87 2.3 21.75 1.88 43.6-.71 65.06-2.76 21.56-6.85 42.23-14.4 63.54-15.35 41.91-43.76 77.27-77.45 104.64-16.87 13.8-35.58 25.16-55.12 34.61-19.6 9.35-40.19 16.79-61.51 21.42-42.51 9.11-87.9 8.65-129.86-5.11-20.94-6.65-41.16-16-59.28-28.35l-6.9-4.49-6.5-5.02c-4.27-3.41-8.8-6.54-12.83-10.22-8.02-7.39-16.23-14.62-23.28-22.89-7.62-7.81-14.03-16.53-20.65-25.09-3.46-4.18-6.13-8.86-9.16-13.31-2.92-4.53-5.99-8.97-8.76-13.57l-7.79-14.06c-2.6-4.7-5.3-9.34-7.41-14.24l-6.75-14.52c-1.11-2.43-2.3-4.82-3.32-7.29l-2.91-7.52c-8.22-19.96-13.7-40.51-18.95-61.01-4.64-20.57-8.8-41.22-11.74-61.9-6.34-41.36-9.87-82.74-13.33-123.8-1.76-20.5-3.35-41-5.53-61.16-2.16-20.25-4.73-39.88-9.55-59.16-8.83-38.74-23.04-76.49-40.36-112.83-17.37-36.35-37.91-71.35-60.54-104.96-5.73-8.36-11.36-16.79-17.38-24.94-5.87-8.28-11.96-16.38-18.12-24.43-12.3-15.98-25.25-31.99-38.36-46.61l-.14-.15c-5.62-6.27-5.1-15.92 1.17-21.54a15.16 15.16 0 0 1 8.95-3.84l66.37-5.38 33.19-2.69c5.61-.4 10.89-1.01 16.77-1.23l17.6-.66c23.47.21 47.02 2.54 69.78 8.55 22.68 6.08 44.78 14.5 65.34 25.93 20.43 11.61 39.52 25.54 56.66 41.67 16.8 16.47 31.6 34.91 44.07 54.88 12.01 20.26 21.42 41.96 28.34 64.45 3.21 10.77 6.13 22.59 8.14 33.86 2.09 11.38 3.64 22.73 4.88 34.05 4.74 45.29 5.39 90.04 6.03 134.55.7 44.49 1.01 88.75 2.91 132.54 1.16 21.86 2.36 43.65 4.89 65.07 2.33 21.42 5.94 42.56 11.71 62.47 5.92 19.76 14.2 38.58 27.91 51.56 13.38 13.35 33.53 18.74 55.06 18.45a5.12 5.12 0 0 1 5.21 5.04c.04 2.37-1.56 4.4-3.74 5.02" fill="#371A45"/><path d="M2519.27 1608.13c-2.84 17.52-13.14 31.49-27.86 42.9-19.69 15.39-47.27 26.2-75.13 34.88-38.28 12-77.19 20.05-97.08 30.46-.47.24-.99.52-1.5.79-36.26 18.95-71.39 33.74-105.32 44.71-195.54 63.18-353.82-.75-478.4-139.1l37.69-243.67s186.26 135.74 437.83 82.08c41.9-9 121.93-87.61 182.47-98.66 23.16-4.26 43.48 1.34 57.77 24.59 33.27 54.26-59.9 111.71-52.52 137.2 6.43 22.22 135.27 2.21 122.05 83.82" fill="#62ED2E"/><path d="M2503.21 1608.02c-.49-7.33-2.61-14.67-7.16-21.56-21.96-33.13-119.45-17.17-126.09-64.33-5.27-37.54 66.15-73.23 65.03-110.77-.35-12.02-7.27-23.24-17.52-32.52 7.47 2.59 13.51 7.93 18.8 16.53 13.82 22.53-4.14 47.83-29.05 78.56-16.9 20.83-30.24 37.29-25.16 54.8 4.9 16.9 24.82 20.31 50.03 24.63 52.77 9.03 76.94 19.15 71.59 52.26-.13.81-.29 1.61-.47 2.4" fill="#D0FAC0"/><path d="M2416.28 1685.91c-38.28 12-77.19 20.05-97.08 30.46-.47.24-.99.52-1.5.79-36.26 18.95-71.39 33.74-105.32 44.71-195.54 63.18-353.82-.75-478.4-139.1l10.93-70.56c20.96-14.91 45.07-17.04 71.86 1.66 204.2 142.4 279.88 97.55 307.99 52.7 13.82-22.05 16.14-44.11 16.59-43.9 56.37 26.99 97.07-9.32 128.86-45.64 29-33.13 50.59-66.26 69.9-51.32 53.67 41.52-11.52 127.27 2.65 167.2 11.84 33.43 42.5 47.67 73.52 53" fill="#32CC17"/><path d="M2065.54 1802.05c-26.91 0-53.31-2.54-79.15-7.64-96.1-18.94-184.96-73.14-264.12-161.1-5.83-6.48-5.31-16.46 1.17-22.29 6.48-5.83 16.45-5.31 22.29 1.18 157.11 174.55 347.58 204.9 566.11 90.22 14.45-7.58 35.87-13.48 60.67-20.31 52.47-14.44 124.33-34.22 131.17-76.49 5.35-33.11-18.82-43.23-71.59-52.26-25.21-4.32-45.13-7.73-50.03-24.63-5.08-17.51 8.26-33.97 25.16-54.8 24.91-30.73 42.87-56.03 29.05-78.56-6.14-10-13.3-15.58-22.54-17.57-30.88-6.65-81.2 27.52-121.59 54.97-30.92 21.02-57.63 39.17-79.36 43.81-255.48 54.55-442.57-78.99-450.41-84.71-7.05-5.13-8.59-15-3.46-22.05 5.13-7.03 15-8.6 22.04-3.46 2.21 1.59 184.25 130.78 425.23 79.35 15.7-3.35 42.4-21.5 68.22-39.05 47.73-32.45 101.85-69.21 145.96-59.72 17.75 3.81 32.16 14.55 42.81 31.92 26.61 43.36-8.32 86.44-31.43 114.95-5.88 7.25-14.16 17.46-17.6 23.74 5.86 1.71 15.62 3.38 23.28 4.69 37.99 6.5 108.72 18.61 97.42 88.42-10.08 62.29-89.85 84.25-153.95 101.89-22.08 6.08-42.94 11.82-54.38 17.82-90.88 47.7-178.33 71.68-260.97 71.68" fill="#371A45"/><path d="m2135.96 1491.95 76.12 81.22c37.16-15.89 35.7-76.57 35.58-80.59.55 4.75 9.4 80.12 53.43 81.36 27.95.8 42.33-18.26 46.14-44.56 6.11-42.05-14.74-102.72-50.24-131.27-23.02-18.54-51.32-19.41-84.63 4.78l-.02.03c-23.07 16.78-48.56 45.65-76.38 89.03" fill="#62ED2E"/><path d="M2347.23 1529.38c-19.69-29.42-34.39-99.49-73.13-114.8-22.25-8.83-40.3-11.95-54.69-11.95-2.46 0-4.8.09-7.05.26 17.42-12.65 33.47-18.44 48.11-18.44 13.35 0 25.54 4.82 36.52 13.66 31.34 25.21 51.26 75.45 51.3 115.81 0 5.35-.34 10.54-1.06 15.46" fill="#D0FAC0"/><path d="M2129.32 1487.69c7.71-21.75 19.5-41.55 34.11-59.6 14.9-17.78 31.78-34.8 53.81-47.76 11.17-6.17 23.86-11.37 38.25-12.57 14.34-1.38 29.64 2.47 41.75 9.61 12.26 7.3 21.5 16.26 29.49 26.1 7.94 9.83 14.46 20.4 19.89 31.37 5.42 10.99 9.75 22.39 13.04 34.15 3.32 11.75 5.47 23.9 6.11 36.43.56 12.52.11 25.43-3.7 38.75-1.7 6.62-4.68 13.36-8.55 19.8-3.89 6.47-9.58 12.49-16.21 17.15-6.65 4.83-14.51 7.56-22.01 9.03l-5.65.84c-1.85.16-3.66.16-5.49.22-3.47.17-7.76-.08-11.75-.88-8.1-1.51-15.86-5.12-22.09-9.79-6.28-4.66-11.2-10.19-15.19-15.82-7.92-11.35-12.62-23.16-16.24-34.87-1.78-5.87-3.22-11.74-4.43-17.64-1.21-6.02-2.13-11.56-2.83-18.24l32.15-2.31c.11 5.06-.1 8.94-.4 13.35-.32 4.28-.78 8.54-1.44 12.8-1.26 8.53-3.27 17.08-6.79 25.42-3.53 8.29-8.13 16.52-15 23.38-6.78 6.86-15.66 12.03-24.95 13.81-4.36.83-8.56-2.03-9.4-6.38-.52-2.74.41-5.41 2.25-7.23l.94-.91c4.87-4.74 8.34-9.5 11.22-14.83 2.78-5.39 4.77-11.47 6.51-17.75 1.73-6.29 2.93-13.04 3.84-19.89.45-3.43.74-6.91.91-10.39.17-3.34.23-7.24.09-9.94-.45-8.89 6.39-16.46 15.27-16.92 8.38-.42 15.59 5.63 16.77 13.78l.11.82c2.69 19.04 8.82 40.57 18.86 54.16 5.1 6.84 10.58 10.53 16.05 11.33 1.45.22 2.74.34 4.81.21.94-.06 1.91-.02 2.82-.1l2.57-.44c3.3-.75 6.22-1.69 8.52-3.52 4.75-3.26 8.57-9.49 10.75-17.7 2.31-8.07 2.71-17.68 2.16-27.24-1.31-19.29-6.68-39.27-15.32-57.16-4.32-8.94-9.47-17.41-15.42-24.9-5.82-7.5-12.97-14-19.72-18.17-6.93-4.22-14.14-6.26-22-5.75-7.86.45-16.29 3.43-24.57 7.74-16.6 9.13-32.04 23.55-46.02 39.31-14.25 15.68-28.05 32.25-44.59 47.66l-.13.12a8.096 8.096 0 0 1-11.45-.41c-2.13-2.28-2.68-5.48-1.71-8.23" fill="#371A45"/><path d="M1805.84 1343.07c19.47 274.79 20.47 437.85-49.89 576.26-105.56 207.63-331.32 139.6-463.37 77.1-81.65-38.65-145.67-92.39-176.02-192.7-28.26-93.39 56.54-221.89 140.61-307.95 28.57-29.25 55.26-59.9 89.99-118.56l103.24-121.4 355.44 87.25" fill="#62ED2E"/><path d="M1738.52 1949.55c-111.36 170.36-320.74 106.15-445.95 46.88-81.65-38.67-145.66-92.38-176-192.69-14.84-49.05 1.5-107.77 32.51-164.91.99 5.33 2.25 10.58 3.83 15.75 36.42 120.32 106.87 155.63 204.82 202 101.21 47.9 339.32 179.28 380.79 92.97" fill="#32CC17"/><path d="M1824.67 1553.71c4.48 34.93 6.19 70.13 5.83 105.46-.37 35.33-3.31 70.79-8.89 106.06-5.61 35.24-13.61 70.45-25.99 104.35-3.3 8.39-6.19 16.94-9.93 25.17l-5.36 12.43-5.86 12.2c-7.8 16.27-16.93 32.42-27.6 47.45-21.1 30.25-48.82 56.85-81.52 75.36-32.65 18.6-69.5 28.74-106.1 31.86-36.71 3.14-73.23-.11-108.56-6.96-35.35-6.96-69.69-17.34-103.03-29.88-16.66-6.3-33.07-13.15-49.25-20.47-16.09-7.28-32.41-15.2-48.07-24.19-31.41-17.86-61.27-40.11-85.92-67.79-24.74-27.54-43.81-60.14-56.56-94.49-1.64-4.28-3.09-8.62-4.58-12.95-1.37-4.4-2.82-8.5-4.04-13.49-2.65-9.56-4.01-19.35-4.64-29.04-1.23-19.45 1.03-38.52 5.23-56.72 8.38-36.51 24.16-69.73 42.38-100.75 18.38-30.98 39.55-59.88 62.46-87.17 11.48-13.63 23.35-26.92 35.91-39.54l18.28-18.45c6-6.06 11.86-12.19 17.52-18.5 22.94-24.97 43.33-52.48 63.99-80.46 2.6-3.53 7.56-4.29 11.09-1.7 3.09 2.27 4.05 6.39 2.5 9.74-14.9 32.01-33.44 62.72-55.74 90.94-5.59 7.02-11.39 13.86-17.29 20.56-5.87 6.64-12.21 13.18-17.9 19.35-11.56 12.58-22.98 25.3-33.79 38.51-21.66 26.37-41.54 54.17-58.45 83.4-8.44 14.61-16.03 29.62-22.53 44.93-6.5 15.29-12.08 30.88-15.63 46.67-3.67 15.77-5.49 31.7-4.51 47.11.49 7.7 1.53 15.29 3.55 22.54.81 3.51 2.24 7.65 3.45 11.57 1.35 3.92 2.65 7.86 4.13 11.72 11.46 31.05 27.95 59.88 49.71 84.44 21.64 24.66 48.22 45.02 77.36 61.68 14.57 8.43 29.64 15.84 45.31 23a816.368 816.368 0 0 0 47.3 19.84c31.9 12.14 64.57 22.13 97.76 28.4 33.13 6.26 66.81 8.99 99.68 6.01 32.83-2.98 64.72-12.06 92.73-28.18 28.03-16.06 51.86-39 70.53-66 9.43-13.48 17.57-27.81 24.81-42.99l5.45-11.39 4.97-11.61c3.48-7.67 6.15-15.69 9.23-23.52 11.24-31.78 19.66-64.67 25.47-98.24 11.35-67.29 13.31-136.36 19.33-205.94.38-4.37 4.23-7.61 8.59-7.23 3.79.33 6.73 3.27 7.19 6.9" fill="#371A45"/><path d="M1293.67 1742.15c-2.01 29.15 16.86 54.16 42.08 55.91 0 0 14.94 1.04 30.3-14.32 15.36-15.36 19.07-35.26 19.07-35.26.66-9.44-.87-18.47-4.15-26.39 1.43 27.79-13.84 51.48-35.66 54.08-23.02 2.75-44.57-19.18-48.13-49-.05-.4-.1-.8-.12-1.2a59.998 59.998 0 0 0-3.39 16.18" fill="#2BC614"/><path d="M1385.12 1748.48c.01-.07.01-.13.02-.2-.01.07-.01.13-.02.2m.02-.27c0-.04.01-.08.01-.13 0 .04-.01.09-.01.13m.02-.21v-.11.11m-83.77-3.9c-2.05-5.23-3.49-10.92-4.21-16.93-.05-.4-.1-.8-.12-1.2-1.78 4.93-2.93 10.21-3.36 15.76 2.12-27.83 22.63-49.22 46.56-49.22.92 0 1.85.03 2.78.1 19.41 1.34 35.01 16.4 40.3 36.51a54.76 54.76 0 0 0-2.37-7.03c.33 6.31-.21 12.41-1.49 18.1-7.5-13.1-20.08-22.06-34.82-23.08-.94-.07-1.87-.1-2.8-.1-17.04 0-32.31 10.82-40.47 27.09" fill="#D0FAC0"/><path d="M1295.73 1762.46c-1.79-6.34-2.55-13.21-2.06-20.31.01-.05.01-.09.01-.14 0-.03.01-.06.01-.09v-.05c.01-.04.01-.07.01-.1v-.04c.43-5.55 1.58-10.83 3.36-15.76.02.4.07.8.12 1.2.72 6.01 2.16 11.7 4.21 16.93-2.78 5.56-4.74 11.75-5.66 18.36m88.07-12.64c-1.15-3.4-2.6-6.62-4.32-9.63 1.28-5.69 1.82-11.79 1.49-18.1a54.76 54.76 0 0 1 2.37 7.03c1.5 5.71 2.17 11.83 1.86 18.15-.01.01-.01.02-.01.02v.15c0 .02-.01.03-.01.05 0 .13-.01.26-.02.4v.11c-.01.02-.01.06-.01.08 0 .05-.01.09-.01.13v.07c-.01.07-.01.13-.02.2l-1.32 1.34" fill="#BFEEB8"/><path d="M1378.8 1748.05c-.82-8.75-3.02-17.06-7.16-24.05-3.93-7.07-9.73-12.62-16.05-16-6.38-3.29-13.45-4.22-20.11-2.86-6.55 1.58-12.9 5.06-17.75 10.58-9.88 10.74-14.25 27.54-11.1 42.77 2.99 15.19 13.36 29.22 29.57 33.22l.36.09c3.43.85 5.52 4.31 4.68 7.74a6.4 6.4 0 0 1-5.92 4.85c-5.65.26-11.46-.56-16.99-2.46-5.54-1.92-10.61-5.01-15.16-8.68-9.06-7.5-15.48-17.82-18.83-28.95-6.76-22.23-1.76-47.97 14.89-65.79 8.2-8.79 19.5-15.52 32.08-17.4 6.26-.88 12.62-.67 18.77.57 6.14 1.38 11.89 3.99 17.02 7.3 10.26 6.72 17.48 16.71 21.46 27.31 4.05 10.64 4.83 22.07 2.91 32.64a6.392 6.392 0 0 1-7.43 5.15c-2.88-.52-4.96-2.91-5.22-5.69l-.02-.34" fill="#371A45"/><path d="M1320.65 1755.45c1.43.63 6.41-5.06 16.7-10.27 9.64 6.54 13.76 12.89 15.24 12.41 1.49-.48.52-8.9-8.3-16.17 9.62-6.1 11.7-14.26 10.27-14.9-1.44-.63-6.39 5.04-16.72 10.27-9.64-6.54-13.75-12.88-15.24-12.4-1.48.47-.54 8.89 8.3 16.16-9.6 6.08-11.69 14.27-10.25 14.9" fill="#371A45"/><path d="M2378.44 972.1c-100.08 370.09-593.3 489.22-802.8 432.57-209.5-56.66-575.45-408.14-475.36-778.23 100.08-370.092 458.6-628.395 828.69-528.31 370.09 100.085 549.56 503.88 449.47 873.97" fill="#62ED2E"/><path d="M2378.43 972.09c-100.07 370.1-593.28 489.24-802.79 432.57-209.51-56.64-575.45-408.14-475.35-778.2 46.81-173.16 150.22-321.88 284.99-420.877 153.17-112.497 346.8-160.699 543.71-107.443 327.11 88.454 505.32 414.225 473.11 744.3-4.19 43.31-12.06 86.7-23.67 129.65" fill="#62ED2E"/><path d="M2169.57 1263.41c-191.09 139.06-454.95 178.86-593.93 141.25-146.05-39.5-368.19-222.33-455.36-454.81 136.42 185.08 344.05 325.36 488.23 364.36 134.22 36.29 360.16 24.47 561.06-50.8" fill="#32CC17"/><path d="M2383.17 869.77c8.69-221.65-67.54-434.57-213.51-574.903 8.9-8.842 18.01-16.203 27.25-22.243 36.11 36.834 67.63 78.24 93.97 122.692 20.22 34.127 37.45 70.07 51.59 107.208 14.12 37.156 24.88 75.586 32.71 114.576 7.8 39.01 12.49 78.64 14.19 118.4 1.84 39.77.26 79.7-4.33 119.26-.57 5-1.2 10.01-1.87 15.01m-1240.36-324.6c2.88-7.21 5.86-14.37 8.95-21.49 15.79-36.624 34.64-71.915 56.12-105.49 21.43-33.605 45.43-65.558 71.77-95.427 52.56-59.858 115.19-110.802 184.47-149.629a668.533 668.533 0 0 1 57.65-28.693c6.88 8.144 13.23 17.417 18.93 27.976-165.79 64.938-308.58 199.83-397.89 372.753m963.66-303.227c-56.19-40.787-120.29-72.11-191.66-91.41-51.53-13.938-102.94-20.55-153.55-20.55-48.11 0-95.49 5.974-141.57 17.314-5.76-10.66-12.19-21.18-19.36-31.359 28.77-8.314 58.13-14.51 87.83-18.347a592.097 592.097 0 0 1 77.27-5.039c53.28 0 106.56 7.09 158.1 20.87 76.44 20.736 148.83 55.948 211.57 104.25.12.09.24.182.36.274-10.27 7.504-19.93 15.574-28.99 23.997" fill="#D0FAC0"/><path d="M1452.83 1353.74c-39.02-14.84-73.06-39.21-104.17-66.14a932.353 932.353 0 0 1-88.33-86.43c-54.93-61.43-101.7-130.59-136.06-206.04-34.39-75.27-55-157.92-54.89-241.6 0-41.76 5.17-83.59 15.47-124.1 10.44-40.17 23.94-79.28 40.28-117.318 16.26-38.047 35.7-74.736 57.88-109.68 22.14-34.968 46.95-68.254 74.25-99.406 54.46-62.427 119.51-115.776 191.83-156.632 72.29-40.75 152.18-69.046 234.88-80.026 82.61-11.165 167.4-5.472 247.93 15.866 80.37 21.851 156.75 59.082 222.8 110.054 66.04 51.016 121.31 115.286 163.59 186.81 21.16 35.778 39.13 73.395 53.87 112.206 14.71 38.836 25.91 78.926 34.04 119.586 16.11 81.32 19.73 165.17 9.67 247.43-4.92 41.15-12.86 81.84-23.91 121.85-11.35 40.31-27.81 79.2-48.74 115.44-41.87 72.61-101.07 134.07-168.66 182.02-67.63 48.14-142.87 84.53-221.27 110.16a935.146 935.146 0 0 1-119.88 30.47c-10.16 1.81-20.36 3.42-30.6 4.67-10.28 1.03-20.54 2.16-30.89 2.35-5.17.18-10.34.26-15.5.32l-15.53-.59c-10.33-.49-20.68-1.78-30.94-3.62a3.652 3.652 0 0 1-2.96-4.25 3.654 3.654 0 0 1 2.72-2.9l.04-.01c40.07-9.86 79.26-15.9 118.63-23.24a905.473 905.473 0 0 0 116.08-29.98c75.89-25.11 148.47-60.65 213.1-107.04 64.63-46.22 120.43-104.86 159.57-173.33 19.57-34.2 34.87-70.76 45.4-108.7 10.44-38.35 17.96-77.64 22.51-117.18 4.59-39.56 6.17-79.49 4.33-119.26-1.7-39.76-6.39-79.39-14.19-118.4-7.83-38.99-18.59-77.42-32.71-114.576-14.14-37.138-31.37-73.08-51.59-107.208-40.43-68.233-93.07-129.29-155.78-177.645-62.74-48.3-135.13-83.513-211.57-104.25-76.52-20.457-156.85-26.167-235.37-15.83-78.58 10.153-154.77 36.816-224.04 75.543-69.28 38.827-131.91 89.771-184.47 149.63-26.34 29.868-50.34 61.821-71.77 95.425-21.48 33.576-40.33 68.867-56.12 105.491-15.85 36.55-29.06 74.41-39.18 112.84-9.85 38.2-14.86 77.6-14.99 117.07-.37 79.05 18.83 157.82 51.65 230.29 32.76 72.62 77.79 139.82 130.93 199.64a906.054 906.054 0 0 0 85.49 84.21c30.59 25.94 62.19 49.85 92.1 78.01l.05.05a4.776 4.776 0 0 1 .21 6.76 4.81 4.81 0 0 1-5.19 1.19" fill="#371A45"/><path d="M1262.52 626.08c-51.78 39.37-101.65 156.64-29.36 300.88 72.28 144.24 241.02 185.44 298.7 137.25 44.28-36.99 85.46-149.31 13.17-293.55-72.28-144.23-229.48-184.9-282.51-144.58" fill="#371A45"/><path d="M1582.38 890.22c-4.29-36.23-15.75-76.47-37.35-119.56-3.88-7.74-8.01-15.19-12.35-22.35 4.34 7.16 8.47 14.6 12.35 22.34 21.61 43.1 33.07 83.33 37.35 119.57m-347.09-235.39c8.54-11.94 17.85-21.63 27.23-28.76 12.76-9.7 31.57-14.71 53.78-14.71h1.66-1.64c-22.21 0-41.03 5.01-53.8 14.72-9.37 7.13-18.69 16.82-27.23 28.75" fill="#D0FAC0"/><path d="M1567.16 958.62c-3.38-38.48-14.89-81.75-38.25-128.35-54.88-109.52-158.71-159.34-228.73-159.34-22.2 0-41.01 5.01-53.78 14.72-7.65 5.81-15.26 13.33-22.44 22.39-.9-11.84-1.01-23.3-.43-34.32-1.79 3.31-3.53 6.73-5.19 10.27 5.07-10.81 10.81-20.57 16.95-29.16 8.54-11.93 17.86-21.62 27.23-28.75 12.77-9.71 31.59-14.72 53.8-14.72h1.64c65 .73 158.15 43.81 214.72 136.95 4.34 7.16 8.47 14.61 12.35 22.35 21.6 43.09 33.06 83.33 37.35 119.56 2.04 17.31 2.45 33.71 1.53 49.06.08-1.37.15-2.75.21-4.14-5.26 9.12-11.01 16.99-16.96 23.48" fill="#C3BAC7"/><path d="M1466.73 1083.44c-11.79 0-24.33-1.25-37.31-3.76 12.97 2.51 25.51 3.75 37.29 3.75 26.92.01 49.91-6.49 65.15-19.22 7.86-6.57 15.63-15.51 22.68-26.59-7.05 11.09-14.82 20.04-22.68 26.61-15.24 12.72-38.22 19.21-65.13 19.21m-165.32-68.12c-.04-.02-.07-.05-.1-.08.03.03.06.06.1.08m-.2-.16c-.04-.04-.09-.08-.13-.12.04.04.09.08.13.12m-88.68-137.88c-.02-.05-.03-.1-.05-.15.02.05.04.11.05.15m-.11-.32c-.02-.09-.05-.16-.08-.25.03.08.06.17.08.25m-.23-.73c-19.51-59.81-18.48-113.32-6.93-156.28-2.29 8.5-4.16 17.41-5.54 26.7-.18 1.21-.35 2.43-.52 3.65v-.01c-4.92 36.86-2.15 79.5 12.99 125.94m-6.93-156.29.06-.22-.06.22" fill="#46A32C"/><path d="M1466.71 1083.43c-11.78 0-24.32-1.24-37.29-3.75-.04-.01-.1-.02-.14-.03-.03 0-.06-.01-.09-.01-41.65-8.11-87.74-29.27-127.61-64.16l-.04-.04c-.04-.04-.09-.07-.13-.12-.04-.02-.07-.05-.1-.08s-.06-.05-.1-.08c-.04-.04-.09-.08-.13-.12l-.04-.04a290.393 290.393 0 0 1-32.33-33.37c-.02-.02-.03-.04-.05-.06-13.35-16.2-25.37-34.39-35.49-54.6-8.51-16.96-15.32-33.55-20.64-49.69-.01-.04-.03-.1-.05-.15-.02-.05-.04-.12-.06-.17-.02-.08-.05-.17-.08-.25l-.03-.09c-.04-.12-.08-.25-.12-.38v-.01c-15.14-46.44-17.91-89.08-12.99-125.94 6.99-16.39 15.52-30.59 24.76-42.25 2.83 37.29 13.53 78.45 35.4 122.09 53.16 106.12 158.56 156.48 233.53 156.48 26.92 0 49.92-6.49 65.16-19.23a93.86 93.86 0 0 0 9.11-8.76c1.8 20.4 1.31 39.45-.91 56.93 9.25-20.96 15.9-46.69 17.66-76.27-2.41 40.89-14.19 74.4-29.26 98.17-.01.01-.02.03-.04.05-.02.04-.05.08-.07.12-7.05 11.08-14.82 20.02-22.68 26.59-15.24 12.73-38.23 19.23-65.15 19.22m-266.99-336.78c1.38-9.29 3.25-18.2 5.54-26.7v-.01l.06-.22c.01-.03.01-.06.02-.1.01-.01.01-.03.02-.05 3.47-12.84 7.89-24.74 12.98-35.58-8.49 18.1-15.12 39.17-18.62 62.66" fill="#2A1A3B"/><path d="M1199.2 750.3c.17-1.22.34-2.44.52-3.65-.18 1.21-.35 2.42-.52 3.64v.01" fill="#8DAC8B"/><path d="M1566.25 1015.55c2.22-17.48 2.71-36.53.91-56.93 5.95-6.49 11.7-14.36 16.96-23.48-.06 1.39-.13 2.77-.21 4.14-1.76 29.58-8.41 55.31-17.66 76.27M1199.2 750.29c.17-1.22.34-2.43.52-3.64 3.5-23.49 10.13-44.56 18.62-62.66 1.66-3.54 3.4-6.96 5.19-10.27-.58 11.02-.47 22.48.43 34.32-9.24 11.66-17.77 25.86-24.76 42.25" fill="#858290"/><path d="M2217.8 884.42c24.88 60.1 8.85 186.52-126.28 274.67s-301.64 38.68-327.17-32c-19.6-54.27 1.45-172.04 136.57-260.18 135.13-88.15 291.4-44.04 316.88 17.51" fill="#371A45"/><path d="M1759.18 1067.39c6.83-59.29 45.12-137.47 141.75-200.49 15.4-10.04 31.06-18.36 46.79-25.14-15.73 6.78-31.4 15.1-46.8 25.15-96.59 63.01-134.89 141.15-141.72 200.42-.01.02-.01.04-.02.06m468.29-122.07c.76-23.75-2.97-44.73-9.67-60.9-6.11-14.76-19.73-28.51-38.78-39.68 19.05 11.17 32.68 24.92 38.79 39.68 6.69 16.17 10.42 37.14 9.67 60.89 0 0-.01 0-.01.01" fill="#D0FAC0"/><path d="M1759.2 1067.33c6.83-59.27 45.13-137.41 141.72-200.42 15.4-10.05 31.07-18.37 46.8-25.15 40.03-17.26 80.4-24.49 117.37-24.49 45.37 0 85.63 10.88 113.93 27.47 19.05 11.17 32.67 24.92 38.78 39.68 6.7 16.17 10.43 37.15 9.67 60.9-4.99 9.68-10.78 19.4-17.43 29.05-1.63-11.61-4.44-22.09-8.15-31.08-15.19-36.67-76.81-67.16-152.73-67.16-51.49 0-109.54 14.02-164.15 49.64-43.85 28.6-75.7 60.33-98.04 91.99-1.81-8.52-2.77-18.09-2.72-28.46-14.52 27.57-22.29 54.29-25.03 78-.01.01-.01.02-.02.03" fill="#C3BAC7"/><path d="M1863.34 1197.66c-50.18-13.15-87.9-39.85-99-70.56-3.25-9-5.37-19.74-6.05-31.81.68 12.06 2.81 22.8 6.06 31.8 11.1 30.71 48.81 57.42 98.99 70.57m308.68-110.56c31.42-39.45 47.59-80.75 53.21-117.61 1.27-8.31 2-16.39 2.25-24.18v-.01c-1.33 42.32-16.94 93.44-55.46 141.8" fill="#46A32C"/><path d="M1932.54 1206.35c-24.59 0-48-3.14-69.2-8.69-50.18-13.15-87.89-39.86-98.99-70.57-3.25-9-5.38-19.74-6.06-31.8-.49-8.7-.22-18.08.93-27.99 6.85-16.18 15.98-32.85 27.75-49.54.96 4.5 2.14 8.7 3.54 12.57 15.78 43.7 85.43 79.28 168.2 79.28 51.17 0 107.34-13.58 158.95-47.25 41.05-26.79 71.11-57.09 92.38-87.99 2.06 14.71 2.24 31.25-.02 48.87 7.68-18.46 12.59-36.59 15.21-53.75-5.62 36.86-21.79 78.16-53.21 117.61-.03.04-.06.08-.1.12-.02.04-.04.06-.06.09-20.14 25.23-46.52 49.71-80.36 71.78-51.6 33.67-107.8 47.26-158.96 47.26" fill="#2A1A3B"/><path d="M2225.23 969.49c1.27-8.31 2-16.39 2.24-24.17 0-.01.01-.01.01-.01-.25 7.79-.98 15.87-2.25 24.18" fill="#8DAC8B"/><path d="M1759.22 1067.3c2.74-23.71 10.51-50.43 25.03-78-.05 10.37.91 19.94 2.72 28.46-11.77 16.69-20.9 33.36-27.75 49.54m450.8-44.06c2.26-17.62 2.08-34.16.02-48.87 6.65-9.65 12.44-19.37 17.43-29.05-.24 7.78-.97 15.86-2.24 24.17-2.62 17.16-7.53 35.29-15.21 53.75" fill="#858290"/><path d="M1270.21 636.19c-50.67 38.54-92.15 152.46-25.69 285.08 44.13 88.06 124.18 132.82 184.37 145.34 40.24 8.38 75.69 3.84 94.82-12.15 40.7-34 79.39-139.56 9.96-278.1-44.33-88.47-121.58-134.26-179.09-147.61-35.78-8.3-67.32-5.52-84.37 7.44Zm196.64 459.99c-13.57 0-28.05-1.55-43.14-4.69-66.01-13.73-153.72-62.67-201.92-158.84-77.07-153.8-20.64-275.87 33.04-316.69 23.35-17.74 61.8-22.1 105.49-11.97 81.78 18.98 155.07 79.16 196.08 160.98 75.99 151.65 30.27 270.01-16.39 309-17.51 14.62-43.08 22.21-73.16 22.21Zm598.59-266.03c-48.26 0-104.34 12.68-157.57 47.4-129.79 84.66-149.58 195.34-131.56 245.22 8.46 23.45 36.79 45.24 75.77 58.28 58.31 19.53 149.99 21.22 232.49-32.6 124.24-81.04 145.84-200.34 121.49-259.17-8.2-19.79-34.03-38.09-69.12-48.95-20.17-6.24-44.62-10.18-71.5-10.18Zm-132.94 388.72c-33.18 0-63.6-5.38-88.49-13.71-46.97-15.73-80.36-42.61-91.61-73.76-20.66-57.19-.48-182.46 141.58-275.14 76.65-50 170.28-65.03 250.48-40.21 42.86 13.27 73.87 36.41 85.08 63.51 25.79 62.31 13.01 196.19-131.08 290.17-55.02 35.89-113.9 49.14-165.96 49.14Zm-280.53-129.54c2.71 10.22.31 19.73-5.37 21.23-5.67 1.51-12.48-5.55-15.19-15.77-2.71-10.22-.31-19.73 5.37-21.23 5.68-1.51 12.48 5.55 15.19 15.77m16.68 4.51c-7.5 7.46-10.21 16.88-6.07 21.04 4.14 4.17 13.58 1.5 21.07-5.96 7.5-7.46 10.21-16.88 6.07-21.05-4.15-4.16-13.58-1.49-21.07 5.97m41.96 109.69c-10.91 40.34-52.5 64.22-92.84 53.31-40.38-10.92-64.23-52.49-53.32-92.84 1.65-6.09 6.4-10.39 13.21-13.09 31.48-12.6 107.3 7.91 128.14 34.65 4.51 5.77 6.46 11.88 4.81 17.97" fill="#371A45"/><path d="M1705.8 1185.56c-16.32 11.01-43.01 14.25-70.59 6.79-27.62-7.47-49.01-23.71-57.55-41.44 31.48-12.6 107.3 7.91 128.14 34.65" fill="#FFF"/><path d="M1602.21 1154.77c-16.65 0-28.42 3.85-30.41 11.21-4.75 17.55-2.37 35.9 6.68 51.67 9.06 15.77 23.71 27.07 41.27 31.82 17.55 4.74 35.9 2.37 51.67-6.68 15.77-9.06 27.07-23.71 31.82-41.27 2.15-7.97-7.7-16.37-13.76-20.67-11.06-7.84-27.74-15.14-45.78-20.01-15.12-4.09-29.56-6.07-41.49-6.07Zm35.44 112.34c-7.3 0-14.65-.96-21.89-2.92-21.48-5.81-39.42-19.64-50.5-38.94-11.09-19.3-13.99-41.77-8.18-63.25 2.39-8.87 10.53-19.9 35.66-22.13 15.44-1.38 34.96.84 54.94 6.25 20 5.4 37.98 13.32 50.63 22.29 20.58 14.6 22.04 28.23 19.65 37.09-5.81 21.49-19.64 39.43-38.94 50.51-12.8 7.35-27 11.1-41.37 11.1Z" fill="#371A45"/><path d="M1465.35 2218.02c61.81 181.19 30.23 336.04 30.23 336.04 21.95 18.26 40.81 38.12 56.51 58.93 97.97 129.47 75.22 294.14-63.23 317.48-50.64 8.53-75.05-16.32-91.34-54.12-16.88-39-25.08-91.8-44.64-135.88-12.51-28.18-29.58-52.77-56.62-67.95-.51-.3-1.03-.6-1.57-.89-123.4-66.77-159.54-156.28-159.54-156.28l282.15-405.94c20.23 36.58 35.93 73.08 48.05 108.61" fill="#FFF"/><path d="M1488.88 2930.47c-102.92 17.33-97.49-103.24-135.98-190 48.62-6.2 132.23-31.52 199.21-127.49 97.97 129.48 75.22 294.15-63.23 317.49" fill="#FFCEDA"/><path d="M1471.53 2694.51c-16.22-22.11-36.83-36.75-56.52-36.75-2.04 0-4.06.16-6.08.48-20.02 3.2-51.75 9.41-87.15 12.6-4.29-3.49-8.82-6.72-13.55-9.61 30.3-3.85 61.38-10.01 93.21-18.46 12.58-3.34 24.88-7.16 36.85-11.41 9.49 6.97 19.33 13.44 29.37 19.51 4.81 3.03 9.77 5.8 14.66 8.69l11.19 6.15 3.12 1.8c1.71.99 3.39 2.03 5.03 3.14-10.01 9.03-20.1 16.94-30.13 23.86" fill="#C3B2D5"/><path d="M1470.2 2916.34c-9.14-.04-17.7-1.52-25.02-5.17-7.37-3.57-13.77-9.17-19.31-16.4-3.97-5.21-7.46-11.16-10.59-17.55 32.27-.28 64.28-11.58 79.27-49.49 17.47-44.16 2.74-98.12-23.02-133.22 10.03-6.92 20.12-14.83 30.13-23.86 6.16 4.13 11.82 9.05 16.97 14.57 13.1 14.02 22.77 32.01 30.42 51.34 7.7 19.37 13.53 40.04 19.43 61.17 4.35 15.33 8.56 30.97 14.07 46.72-7.46 16.13-18.11 30.51-31.54 41.77-14.76 12.53-32.79 21.13-52.08 26.01-9.77 2.4-19.63 4.07-28.73 4.11" fill="#C390BC"/><path d="M1142.48 2512.39c5.06 8.49 11.23 17.6 17.73 25.82 6.44 8.41 13.3 16.5 20.46 24.29 14.3 15.6 29.81 30.01 46.21 43.28 8.23 6.6 16.5 13.14 24.97 19.45 8.58 6.16 17.13 12.4 26.09 18.07 4.41 2.92 9.03 5.54 13.55 8.32l14.39 8.21c10.87 6.29 20.72 14.38 29.15 23.43 16.95 18.22 28.15 39.81 36.66 61.2 8.53 21.48 14.58 43.18 20.5 64.34 5.95 21.1 11.6 41.97 19.56 60.69 3.98 9.31 8.59 18.02 14.12 25.28 5.54 7.23 11.94 12.83 19.31 16.4 7.32 3.65 15.88 5.13 25.02 5.17 9.1-.04 18.96-1.71 28.73-4.11 19.29-4.88 37.32-13.48 52.08-26.01 14.83-12.43 26.27-28.67 33.76-46.87 7.51-18.21 11.12-38.26 11.49-58.52.62-40.69-11.37-81.78-31.07-118.4-19.71-36.78-47.36-69.34-79.67-96.23a15.804 15.804 0 0 1-5.44-15.05l.05-.25c1.57-8.34 2.88-17.91 3.9-27.03 1.03-9.24 1.83-18.54 2.45-27.86 1.2-18.66 1.58-37.4 1.27-56.13-.62-37.47-4.17-74.91-10.61-111.82-6.37-36.93-15.83-73.27-28.01-108.65a680.391 680.391 0 0 0-45.62-102.36l-.05-.09c-4.19-7.64-1.4-17.24 6.25-21.43 7.64-4.19 17.23-1.4 21.42 6.24a711.329 711.329 0 0 1 47.82 107.27c12.76 37.04 22.64 75.05 29.3 113.61a752.32 752.32 0 0 1 11.06 116.7c.33 19.55-.07 39.13-1.33 58.69-.65 9.79-1.49 19.57-2.57 29.36-1.14 9.9-2.37 19.33-4.34 29.81l-5.38-15.3c35.16 29.26 65.47 64.86 87.31 105.58 21.78 40.58 35.49 86.48 34.82 133.88-.44 23.61-4.62 47.57-13.86 70.02-9.19 22.4-23.71 43.15-42.6 58.96-18.78 15.96-41.49 26.64-64.72 32.49-5.86 1.42-11.59 2.64-17.64 3.55-6.04 1-12.35 1.41-18.72 1.52-12.74-.01-26.44-2.19-38.87-8.33-12.48-6-22.87-15.45-30.62-25.64-7.79-10.25-13.4-21.18-18.06-32.03-9.21-21.77-14.95-43.48-20.94-64.61-5.9-21.12-11.73-41.8-19.43-61.17-7.65-19.32-17.32-37.32-30.42-51.34-6.53-7-13.86-13.01-22-17.71l-3.13-1.8-3.73-2.05-7.45-4.1c-4.89-2.89-9.85-5.66-14.67-8.68-19.44-11.77-38.15-25.04-55-40.47-16.83-15.45-32.19-32.53-45.58-51.03-6.7-9.26-12.86-18.89-18.38-28.91-2.73-5.02-5.29-10.14-7.69-15.36-2.42-5.3-4.54-10.36-6.47-16.38-1.33-4.16.97-8.6 5.12-9.93 3.57-1.14 7.35.39 9.2 3.47l.32.55" fill="#371A45"/><path d="m858.43 2063.23-79.3 208.19c-31.63-22.61-60.83-34.3-78.63-39.89-11.13-3.54-17.83-4.71-17.83-4.71s35.71 147.83-71.95 168.55c-88.1 17-201.1-135.71-148.09-286.27 7.18-20.45 17.43-40.85 31.22-60.79 104.2-150.63 319.85-28.25 364.58 14.92" fill="#FFF"/><path d="M682.67 2226.82s35.71 147.83-71.95 168.55c-88.1 17-201.1-135.71-148.09-286.26 59.77-6.11 173.11.53 237.87 122.42-11.13-3.54-17.83-4.71-17.83-4.71" fill="#FFCEDA"/><path d="M852.94 2068.9c-18.5-10.14-37.44-20.09-56.27-29.89-18.74-10.03-38.09-19.04-58-26.22-19.86-7.26-40.16-13.22-60.68-16.59-20.45-3.54-41.12-4.97-61.21-3.03-20.04 2.08-39.32 7.62-56.75 16.7-17.51 9-32.66 22.25-45.32 37.86-2.99 4.1-6.29 7.82-9.08 12.2-2.81 4.36-5.7 8.66-8.41 13.07l-7.5 13.57-6.56 14.02c-8.13 18.94-13.7 38.92-16.42 59.33-5.58 40.82 1.07 83.13 17.37 121.03 8.1 18.99 18.86 36.82 31.9 52.48 12.88 15.74 28.45 29.13 45.51 38.02 8.53 4.47 17.5 7.29 26.33 8.65 4.44.8 8.82.71 13.15.61l6.4-.78 6.87-1.61c18.24-4.78 33.18-15.31 42.69-31.01 9.69-15.59 14.08-35.47 15.25-55.7.58-10.15.43-20.49-.45-30.82-.4-5.16-1.02-10.32-1.75-15.45-.72-5.01-1.67-10.46-2.67-14.82l-.07-.33c-1.93-8.45 3.37-16.87 11.82-18.79 2.11-.48 4.29-.5 6.29-.14 5.64 1.42 9.75 2.9 14.41 4.56 4.49 1.67 8.9 3.41 13.21 5.33 8.64 3.78 17.02 7.95 25.14 12.51 8.07 4.63 16.02 9.41 23.57 14.73 7.64 5.19 14.91 10.86 22.03 16.63a7.904 7.904 0 0 1-8.99 12.95l-.2-.11c-7.5-4.43-15.05-8.71-22.84-12.46-7.72-3.89-15.7-7.19-23.67-10.32-8.01-3.05-16.13-5.69-24.28-7.9-4.07-1.14-8.17-2.08-12.23-2.93-2.02-.42-4.06-.81-6.05-1.14-1.89-.32-4.17-.66-5.49-.75l18.04-19.25c1.45 6.38 2.35 11.81 3.22 17.7.83 5.78 1.52 11.57 1.97 17.4.99 11.63 1.18 23.39.51 35.24-1.45 23.55-6.31 48.25-19.88 70.41-6.73 10.97-15.76 20.98-26.46 28.65-10.67 7.73-22.77 13.03-34.97 16.31-3.07.72-6.08 1.5-9.22 2.14l-10 1.25c-6.66.25-13.36.23-19.81-.86-12.91-1.94-25.19-6.03-36.21-11.78-22.07-11.5-40.41-27.7-55.46-45.96-15.16-18.24-27.37-38.57-36.58-60.12-18.54-42.99-25.93-90.94-19.81-137.64 2.96-23.32 9.2-46.23 18.33-67.85 2.44-5.32 4.83-10.69 7.36-15.97l8.4-15.42c3.02-5 6.24-9.87 9.35-14.82 3.09-4.94 7-9.62 10.48-14.43 14.82-18.76 33.36-35.41 54.99-46.89 21.49-11.69 45.39-18.32 69.16-20.85 47.84-4.53 94.4 5.79 136.93 22.4 21.35 8.38 41.98 18.24 61.64 29.87 9.76 5.94 19.18 12.47 27.97 19.96 8.71 7.55 17.15 15.61 23.96 25.7 2.49 3.69 1.52 8.69-2.17 11.19-2.58 1.75-5.82 1.79-8.38.39l-.41-.23" fill="#371A45"/><path d="M655.26 2166.98s16.87 23.99 27.43 59.83" fill="#FFF"/><path d="M661.72 2162.44c4 4.74 7.34 9.19 10.71 13.98 3.3 4.75 6.49 9.59 9.46 14.58 5.98 9.97 11.3 20.43 15.93 31.35l.07.14c3.42 8.09-.35 17.43-8.44 20.86-8.09 3.43-17.43-.35-20.85-8.44-.5-1.17-.85-2.44-1.05-3.64a224.825 224.825 0 0 0-7.21-30.45c-1.54-5.05-3.33-10.03-5.25-14.98-1.9-4.87-4.11-9.94-6.28-14.32l-.22-.45c-1.95-3.91-.35-8.66 3.57-10.61 3.33-1.65 7.27-.73 9.56 1.98" fill="#371A45"/><path d="M2116.16 2939.51c176.95 15.75 326.13-129.8 413.75-242.25-138.35 100.94-289.88 149.58-400.26 126.24-89.18-18.84-141.86-98.12-164.96-143.2-26.05-50.77-49.95-126.69-75.62-221.77-34.05-126.1-126.74-225.75-259.16-210.9-47.87 5.38-87.73 6.73-119.95 6.02 27.86 49.45 128.12 22.41 213.07 141.82 64.38 90.46 111.38 518.92 393.13 544.04" fill="#FEF26B"/><path d="M2116.16 2939.5c176.95 15.76 326.12-129.79 413.75-242.24-138.36 100.94-289.88 149.58-400.27 126.24-65.98-13.93-111.95-60.95-140.76-102.74-10.15-14.67-18.16-28.72-24.19-40.46-26.05-50.77-49.96-126.69-75.62-221.77-34.06-126.1-126.75-225.76-259.17-210.9-47.86 5.38-87.72 6.72-119.95 6.02 27.87 49.45 128.13 22.41 213.08 141.82 6.92 9.74 13.66 23.41 20.51 40.06 56.72 137.98 121.19 481.56 372.62 503.97" fill="#FFEB52"/><path d="M2129.65 2823.5c110.38 23.34 261.91-25.3 400.26-126.24 30.49-39.14 53.49-74.23 67.61-97.18-90.48 74.21-222.69 151.8-355.97 120.67-215.98-50.44-171.59-299.15-277.4-471.64-73.77-120.22-299.57-154.68-431.95-53.5l-.03.03c-19.76 24.71-28.59 45.73-23.06 56.44.27.53.56 1.08.85 1.57 32.22.71 72.08-.64 119.95-6.02 132.42-14.85 225.11 84.8 259.16 210.9 25.67 95.08 49.57 171 75.62 221.77 23.1 45.08 75.78 124.36 164.96 143.2" fill="#FD6CCB"/><path d="M2129.64 2823.5c110.39 23.34 261.91-25.3 400.27-126.24 30.49-39.14 53.48-74.23 67.6-97.18-90.47 74.21-222.69 151.8-355.97 120.67-39-9.11-69.56-24.68-94.02-45.13-110.81-92.71-96.69-285.18-183.37-426.51-73.78-120.22-299.57-154.68-431.96-53.5l-.02.03c-19.77 24.71-28.6 45.73-23.06 56.44.26.53.55 1.08.84 1.57 32.23.7 72.09-.64 119.95-6.02 132.42-14.86 225.11 84.8 259.17 210.9 25.66 95.08 49.57 171 75.62 221.77 6.03 11.74 14.04 25.79 24.19 40.46 28.81 41.79 74.78 88.81 140.76 102.74" fill="#FD45C5"/><path d="M1964.15 2249.11c86.68 141.33 72.56 333.8 183.37 426.51 24.46 20.45 55.02 36.02 94.02 45.13 133.28 31.13 265.5-46.46 355.97-120.67 10.62-17.24 16.25-27.58 16.25-27.58s-148.42 88.85-252.33 70.6c-69.12-12.13-114.14-55.46-141.37-103.76-6.92-12.31-12.71-24.9-17.44-37.41-43.15-113.95-24.52-265.81-155.55-375.9-204.45-171.8-439.36-24.65-514.88 69.58 132.39-101.18 358.18-66.72 431.96 53.5" fill="#07BCF8"/><path d="M2147.52 2675.62c24.46 20.45 55.02 36.02 94.02 45.13 133.28 31.13 265.5-46.46 355.97-120.67 10.62-17.24 16.25-27.58 16.25-27.58s-148.42 88.85-252.33 70.6c-69.12-12.13-114.14-55.46-141.37-103.76-4.88 41.82-23.68 90.39-72.54 136.28" fill="#3BB4FF"/><path d="M2129.64 2823.5c110.39 23.34 261.91-25.3 400.27-126.24 30.49-39.14 53.48-74.23 67.6-97.18-90.47 74.21-222.69 151.8-355.97 120.67-39-9.11-69.56-24.68-94.02-45.13-12.6 11.81-27.23 23.44-44.08 34.75-42.81 28.66-80.2 28.27-114.56 10.39 28.81 41.79 74.78 88.81 140.76 102.74" fill="#F948C3"/><path d="M2142.9 2924.91c-8.38 0-16.83-.37-25.34-1.13-197.94-17.64-276.35-251.73-328.23-406.64-6.54-19.53-12.63-37.7-18.51-54.19 65.52 72.65 121.29 180.63 185.66 235.51.61 1.1 1.24 2.23 1.88 3.36 27.56 48.63 81.23 118.79 168.02 137.13 19.54 4.13 40.22 6.16 61.82 6.16 38.65-.01 80.19-6.5 123.2-19.03.02-.01.04-.01.06-.02.16-.05.3-.09.46-.13.04-.02.08-.03.12-.04l.3-.09c.08-.02.15-.04.22-.06.06-.02.12-.04.18-.05l.51-.15c.02-.01.05-.02.07-.02 43.46-12.84 88.41-31.82 133.38-56.51-81.16 83.09-185.92 155.9-303.8 155.9" fill="#C3A45D"/><path d="M2117.56 2923.78c128.21 11.42 242.21-65.77 329.14-154.77-115.07 63.17-230.01 89.02-320.32 69.94-95.76-20.24-151.21-103.57-175.74-151.45-23.84-46.47-46.81-113.72-76.81-224.85-27.38-101.41-107.16-214.46-242.16-199.33-25.32 2.85-49.84 4.73-73.34 5.64 5.79 2.14 12.15 4.26 18.99 6.54 44.12 14.71 104.54 34.86 158.58 110.82 18.15 25.52 33.72 71.99 53.43 130.82 51.88 154.91 130.29 389 328.23 406.64m25.42 32.7c-9.33 0-18.72-.41-28.22-1.25-218.51-19.48-300.87-265.36-355.37-428.06-18.12-54.12-33.78-100.85-49.22-122.55-48.06-67.56-100.61-85.09-142.84-99.17-30.6-10.2-57.02-19.01-71.12-44.05-2.79-4.94-2.71-11 .21-15.86 2.85-4.77 8-7.67 13.54-7.67h.34c36.18.8 75.84-1.2 117.85-5.92 127.42-14.27 235.81 73.03 276.16 222.47 29.39 108.88 51.65 174.28 74.42 218.68 21.97 42.88 71.22 117.43 154.18 134.96 104.42 22.08 252.99-25.26 387.7-123.56 6.35-4.63 15.15-3.88 20.64 1.77 5.47 5.65 5.95 14.48 1.11 20.69-90.19 115.74-230.92 249.52-399.38 249.52" fill="#371A45"/><path d="M1655.1 2230.42c115.58 0 211.73 85.21 249.21 224 29.39 108.88 51.65 174.28 74.42 218.68 21.97 42.88 71.22 117.43 154.18 134.96h.01c16.96 3.59 35.11 5.34 54.16 5.34 97.67.01 219.41-46.08 331.74-127.59 5.2-6.71 10.18-13.3 14.92-19.71-84.2 53.83-189.2 94.92-295.78 70.03-149.07-34.82-181.18-155.92-215.17-284.13-17.7-66.76-36-135.79-72.1-194.63-30.31-49.41-90.56-85.72-165.29-99.62-88.76-16.51-179.09 1.9-242.09 49.25-11.3 14.37-16.51 24.67-18.69 31.04 32.17-.03 66.99-1.99 103.53-6.09 9.08-1.02 18.08-1.53 26.95-1.53m533.1 614.69c-21.6 0-42.28-2.03-61.82-6.16h.01c-95.77-20.24-151.22-103.57-175.75-151.45-23.84-46.47-46.81-113.72-76.81-224.85-27.38-101.41-107.16-214.46-242.16-199.33-43.4 4.88-84.41 6.93-122.06 6.11-5.5-.12-10.54-3.09-13.3-7.85-.44-.75-.89-1.59-1.29-2.38-8.8-17.04-.47-41.79 24.82-73.42.51-.64 1.06-1.23 1.67-1.78.34-.32.73-.65 1.1-.93 70.05-53.54 170.46-74.6 268.56-56.36 83.5 15.53 151.45 57.14 186.43 114.14 38.52 62.8 57.43 134.1 75.71 203.05 32.85 123.94 61.23 230.98 191.82 261.48 128.14 29.91 256.89-47.39 342.38-117.51a15.772 15.772 0 0 1 20.39.32c5.81 5.07 7.11 13.6 3.06 20.16-14.12 22.95-37.49 58.68-68.6 98.61-.9 1.16-1.96 2.18-3.15 3.05-119.35 87.08-245.9 135.09-351.01 135.1" fill="#371A45"/><path d="M1721.47 2120.27c23.08 0 46.45 2.12 69.7 6.44 83.5 15.53 151.45 57.14 186.43 114.14l.01.01c38.51 62.79 57.42 134.09 75.7 203.04 32.85 123.94 61.23 230.98 191.82 261.48 102.63 23.97 205.66-20.86 286.54-75.69-51.95 20.57-117.67 38.68-172.96 28.96-105.93-18.59-152.51-102.67-170.85-151.14-13.62-35.97-21.07-74.37-28.94-115.02-17.29-89.19-35.17-181.42-122-254.38-68.27-57.36-145.24-82.25-228.83-74.03-67.38 6.64-131.5 34.57-182.45 68.91 30.47-8.39 62.84-12.72 95.83-12.72m581.87 623.3c-21.62 0-43.46-2.32-65.38-7.44-149.07-34.82-181.18-155.92-215.17-284.13-17.7-66.76-36-135.79-72.1-194.63-30.31-49.41-90.56-85.72-165.29-99.62-89.48-16.64-180.55 2.2-243.62 50.4-6.34 4.84-15.3 4.2-20.87-1.51-5.58-5.7-6.02-14.67-1.03-20.9 52.38-65.36 163.93-141.14 285.11-153.08 92.34-9.11 177.22 18.25 252.24 81.28 95.38 80.15 115.2 182.36 132.68 272.54 7.62 39.29 14.81 76.41 27.47 109.86 15.97 42.19 56.27 115.33 146.79 131.21 96.98 17.05 240.05-67.74 241.49-68.59 6.11-3.66 13.9-2.77 19.03 2.15a15.776 15.776 0 0 1 2.94 18.93c-.24.44-5.95 10.91-16.67 28.31-.92 1.49-2.08 2.82-3.43 3.93-76.79 62.99-187.08 131.28-304.19 131.29" fill="#371A45"/><path d="M1680.53 2244.95c25.89 172.51-92.74 332-283.15 382.57-466.72 123.96-651.87-291.39-715.46-507.72-21.29-72.56-28.91-122.73-28.91-122.73l439.51-359.24s16.93 97.22 89.96 174.5c35.7 37.75 84.74 70.72 151.73 85.32 174.71 38.09 318.59 162.66 346.32 347.3" fill="#FFF"/><path d="M1233.57 2634.49c-181.14-.01-306.94-94.63-393.55-213.99 5.82-15.93 8.38-32.49 9.37-48.51.67-11.85.48-23.61-.51-35.24-.29-3.85-.7-7.68-1.17-11.5.57.15 1.14.31 1.71.47 8.15 2.21 16.28 4.85 24.28 7.89 7.97 3.14 15.95 6.43 23.67 10.33 6.6 3.18 13.04 6.74 19.42 10.45 35.75 150.58 136.15 193.68 241.35 193.68 47.64 0 96.26-8.84 140.32-20.54 13.66-3.63 27.58-8.46 41.66-14.37.29.64.59 1.29.89 1.95 2.39 5.21 4.95 10.34 7.68 15.36 5.52 10.02 11.69 19.65 18.38 28.9 12.58 17.4 26.91 33.52 42.56 48.23-5.37 1.65-10.8 3.2-16.3 4.66-57.54 15.29-110.67 22.23-159.76 22.23" fill="#C3B2D5"/><path d="M670.11 2003.47c3.12 17.27 11.33 58.61 26.95 111.89 69.44 236.19 252.22 614.86 696.27 496.9 181.86-48.29 296.08-201.79 271.59-364.97-25.04-166.69-153.05-294.75-334.08-334.22-62.53-13.63-116.31-43.87-159.83-89.89-53.22-56.32-77.79-122-87.91-157.27l-412.99 337.56m563.55 662.61c-137.17 0-256.59-51.41-356.48-153.79-113.96-116.8-177.32-275.48-210.41-388.04-21.34-72.75-29.05-122.72-29.37-124.81a15.77 15.77 0 0 1 5.62-14.59l439.51-359.24c4.35-3.55 10.26-4.53 15.49-2.57 5.26 1.96 9.09 6.55 10.05 12.08.16.91 17.19 93.68 85.88 166.37 39.08 41.32 87.4 68.48 143.62 80.73 194.14 42.33 331.54 180.42 358.57 360.38 26.92 179.38-97.02 347.68-294.7 400.17-58.52 15.54-114.5 23.31-167.78 23.31" fill="#371A45"/><path d="M913.85 2067.99c-5.89-2.6-11.85-5.07-17.85-7.43-35.65-13.92-74.12-23.43-113.81-23.47 80.66-15.84 152.42-44.29 210.11-84.4 67.56-46.97 115.79-101 147.21-168.16 9.18 13.05 19.63 26.08 31.5 38.65 1.67 1.76 3.35 3.5 5.05 5.22-20.27 47.45-50.65 90.95-93.05 132.21-5.57 5.48-11.32 10.89-17.37 16.23-42.76 38.21-94.62 68.39-151.79 91.15m-230.91-5.05c-1.09-4.46-2.12-8.75-3.08-12.85 13-.81 25.83-1.91 38.51-3.3-9.8 3.21-19.35 7.26-28.48 12.22-2.35 1.25-4.67 2.56-6.95 3.93" fill="#C3B2D5"/><path d="M669 2072.34c-1.91-7.61-3.62-14.76-5.16-21.39 5.36-.24 10.71-.53 16.02-.86.96 4.1 1.99 8.39 3.08 12.85-4.82 2.89-9.47 6.03-13.94 9.4m507.06-243.94c-1.7-1.72-3.38-3.46-5.05-5.22-11.87-12.57-22.32-25.6-31.5-38.65 2.62-5.59 5.12-11.28 7.51-17.06 10.01 15.14 21.75 30.35 35.46 44.86-2.02 5.41-4.16 10.76-6.42 16.07" fill="#381253"/><path d="M1169.25 1490.46c7.66 199.19-31.41 332.34-166.76 435.28-6.19 4.75-12.59 9.4-19.21 13.99-254.16 176.67-742.933 89.14-888.865-95.38-38.968-49.26-61.642-102.4-71.78-157.29-37.906-205.46 99.994-435.96 220.057-583.46 64.9-79.7 124.548-135.14 148.538-149.34 84.16-49.89 201.98-65.64 315.99-53.65 77.54 8.1 153.33 29.03 215.62 60.75 13.85 11.25 26.82 23.04 39.8 36.74 15.6-30.1 42.2-55.88 76.99-71.14 75.7-33.14 161.53-4.1 191.75 64.81 30.22 68.95-6.66 151.71-82.29 184.89-17.59 7.7-35.71 12.07-53.56 13.31 16.45 24.24 68.13 156.13 73.72 300.49" fill="#FFF"/><path d="M171.042 1022.28c-31.426-76.4-.47-161.55 69.144-190.18 69.613-28.64 151.524 10.09 182.944 86.49 31.43 76.41.47 161.56-69.14 190.19-69.613 28.63-151.521-10.1-182.948-86.5" fill="#FFF"/><path d="M288.088 838.42c-14.317 0-28.468 2.75-41.895 8.27-29.512 12.14-52.11 36.28-63.633 67.98-11.714 32.21-10.62 68.3 3.08 101.61 28.058 68.23 100.9 103.17 162.34 77.9 61.46-25.28 88.62-101.35 60.55-169.59-13.69-33.3-38.31-59.71-69.3-74.37-16.62-7.85-33.994-11.8-51.142-11.8m18.247 295.54c-62.135 0-123.013-40.32-149.893-105.68-16.7-40.59-17.96-84.77-3.555-124.4 14.6-40.15 43.467-70.83 81.294-86.38 37.818-15.56 79.917-14.08 118.549 4.18 38.11 18.03 68.3 50.31 85 90.91 34.68 84.33-.18 178.89-77.73 210.78-17.45 7.18-35.62 10.59-53.665 10.59" fill="#371A45"/><path d="M856.54 980.92c35.03-203.53-21.22-383.09-54.02-388.74-32.8-5.64-145.84 144.78-180.87 348.31l234.89 40.43" fill="#FDD800"/><path d="M812.63 831.73c-4.78 0-10.64-7.9-16.35-18.44-16.97-31.38-22.64-67.58-17.5-102.88 3.49-24 9.31-47.64 18.65-47.64 1.23 0 2.51.41 3.86 1.27 17.15 10.98 46.5 128.75 15.04 165.75-1.13 1.33-2.37 1.94-3.7 1.94" fill="#FEEF99"/><path d="m621.65 940.5 234.91 40.42c6.15-35.73 9.47-70.72 10.63-104.15l-64.1-11.03c-58.39-10.05-94.82-69.5-76.45-125.83 18.49-56.74 41.8-106.3 64.95-145.45-41.92 20.08-138.12 161.14-169.94 346.04" fill="#EFA500"/><path d="M856.56 994.09c-.74 0-1.5-.06-2.25-.19-7.17-1.23-11.98-8.05-10.75-15.22 34.95-203.06-22.74-363.66-43.29-373.45-22.62 2.36-130.68 134.43-165.63 337.49-1.24 7.18-8.06 11.97-15.22 10.76-7.18-1.24-11.99-8.05-10.76-15.22 33.87-196.73 147.2-367.4 196.1-359.06 36.28 6.24 57.5 101.57 63.14 130.63 9.64 49.64 22.66 151.16 1.63 273.32-1.11 6.42-6.67 10.94-12.97 10.94" fill="#371A45"/><path d="M864.65 931.44c-1.21 0-2.44-.17-3.66-.52-147.48-42.53-201.6-143.38-203.83-147.66-3.37-6.45-.87-14.41 5.58-17.78 6.45-3.36 14.39-.87 17.76 5.56.53.99 51.72 95.32 187.8 134.55 6.99 2.02 11.02 9.32 9.01 16.31-1.67 5.78-6.94 9.54-12.66 9.54m.88-125.51c-1.37 0-2.77-.22-4.15-.68-4.57-1.51-112.38-38.08-152.03-125.79-3-6.63-.05-14.44 6.58-17.44 6.64-2.99 14.43-.04 17.44 6.58 34.83 77.06 135.3 111.3 136.31 111.64 6.9 2.3 10.64 9.76 8.35 16.66a13.198 13.198 0 0 1-12.5 9.03" fill="#371A45"/><path d="M998.05 1909.29c-5.02-15.97-12.08-31.76-21-47.23 113.65-80.92 163.81-175.74 177.23-314.34-2.05 171.15-48.29 277.5-156.23 361.57" fill="#C3B2D5"/><path d="M1002.49 1925.74c-6.19 4.75-12.59 9.4-19.21 13.99-254.16 176.67-742.933 89.14-888.865-95.38-38.968-49.26-61.642-102.4-71.78-157.29-.09-2-.184-3.97-.275-5.97 110.548-66.45 282.24-97.12 468.89-73.28 267.95 34.29 477.86 169.6 511.24 317.93" fill="#FFCEDA"/><path d="M622.85 2019.55c-210.38 0-427.621-73.18-516.047-185-37.824-47.83-61.344-101.84-70.444-161.49 1.013-.56 2.03-1.1 3.052-1.65 12.457 31.93 29.985 62.95 53.397 92.55 90.468 114.38 312.732 191.51 529.132 191.51 130.65 0 259.14-28.09 355.27-93.07 8.85 15.37 15.84 31.04 20.83 46.9a540.467 540.467 0 0 1-23.76 17.47c-92.93 64.61-220.84 92.78-351.43 92.78" fill="#C390BC"/><path d="M1040.69 1716.02c-5.31 41.37-54.39 69.16-109.62 62.07-55.22-7.09-95.69-46.37-90.38-87.75 5.31-41.37 54.39-69.16 109.62-62.07 55.22 7.09 95.69 46.38 90.38 87.75m-858.308-129.94c-4.634 36.11-43.751 60.84-87.367 55.24-43.618-5.6-75.22-39.41-70.584-75.51 4.634-36.11 43.75-60.84 87.368-55.24 43.617 5.6 75.218 39.41 70.583 75.51" fill="#FF67A0"/><path d="M845.29 1319.14c-17.61 0-36.48-3.25-56.55-10.85-10.79-4.09-21.9-9.19-32.93-15.44-10.93 1.73-38.88 5.53-74.22 5.53-45.56 0-103.4-6.32-152.91-31.53-130.59-3.89-246.582-37.66-281.061-144.96.009-.02.01-.02.02-.03 9.314 3.93 18.94 6.95 28.73 8.99 39.62 64.14 116.27 95.7 232.42 95.7 20.03 0 41.24-.94 63.62-2.81 1.92-.16 3.76-.68 5.44-1.5 32.24 10.18 66 13.57 96.66 13.57 30.32 0 57.63-3.32 77.44-6.66 17.93 12.42 35.58 20.85 50.06 26.46 22.44 8.68 43.48 12.37 63.08 12.37 62.22-.01 109.67-37.2 139.27-69.74 4.51 2.21 7.2 3.21 7.2 3.21s-60.36 117.69-166.27 117.69" fill="#C3B2D5"/><path d="M276.37 1130.85c-9.79-2.04-19.417-5.06-28.731-8.99 4.99-6.23 9.975-12.35 14.902-18.29 3.96 9.67 8.569 18.76 13.829 27.28" fill="#381253"/><path d="M455.22 1632.64c2.8 5.33 2.66 10.92-.3 12.47-2.97 1.56-7.64-1.5-10.44-6.83s-2.66-10.91.31-12.47c2.96-1.56 7.64 1.5 10.43 6.83m35.85 5.99c-4.38 4.13-6.06 9.46-3.76 11.9 2.3 2.43 7.71 1.06 12.09-3.07s6.06-9.46 3.76-11.89c-2.3-2.44-7.71-1.07-12.09 3.06" fill="#371A45"/><path d="M1128.64 1121.05c42.23-21.25 61.97-67.27 44.09-102.81-17.87-35.54-66.6-47.13-108.83-25.88-42.22 21.24-61.96 67.27-44.09 102.8 17.88 35.54 66.6 47.13 108.83 25.89" fill="#F282BD"/><path d="M636.72 912.22c-89.44 0-174.74 18.45-237.46 55.62-56.66 33.57-309.673 295.77-359.014 561.8-22.007 118.64.385 221.23 66.557 304.91 143.315 181.24 624.847 260.91 867.477 92.22 137.33-95.47 187.56-217.62 179.18-435.69-5.36-139.1-55.74-269.74-71.01-292.22a15.786 15.786 0 0 1-1.15-15.75c2.47-5.08 7.45-8.46 13.08-8.87 16.53-1.18 32.8-5.24 48.34-12.04 67.58-29.62 100.87-103.23 74.21-164.08-26.67-60.85-103.36-86.28-170.94-56.68-30.18 13.22-54.81 35.92-69.34 63.92a15.754 15.754 0 0 1-11.81 8.36c-5.04.72-10.14-1.06-13.66-4.77-11.52-12.15-23.31-23.08-37-34.3-82.3-41.51-182.23-62.43-277.46-62.43M624.59 2051.8c-41.73 0-84.7-2.85-128.4-8.66-182.42-24.22-341.111-96.65-414.153-189.01-72.064-91.14-96.572-202.25-72.831-330.24C60.319 1248.29 324.07 975.7 383.17 940.68c154.36-91.47 399.24-68.48 546.82 6.6 1 .5 1.94 1.11 2.8 1.82 9.51 7.73 18.38 15.53 26.8 23.58 18.09-26.01 43.68-46.99 73.74-60.16 83.51-36.57 178.87-3.86 212.52 72.93 33.64 76.79-6.93 169.05-90.45 205.67h-.01c-11.5 5.03-23.34 8.83-35.4 11.35 23.25 50.31 60.28 164.55 65.01 287.39 8.75 227.51-47.08 361.59-192.7 462.83-93.14 64.76-222.94 99.11-367.71 99.11" fill="#371A45"/><path d="M476.63 858.6c-87.22-19.59-175.551 28.67-203.966 113.42-11.503 34.31-14.894 75.15 1.658 119.81 40.092 108.15 163.748 127.84 296.818 116.72 0 0-100.73-252.76-48.58-335.09 0 0-18.03-8.58-45.93-14.86" fill="#FFEB52"/><path d="M321.75 919.03c29.55-31.27 71.28-49.55 115.64-49.55 8.59 0 17.28.69 26 2.09-5.53 8.59-10 17.95-13.21 27.91-.33 1.01-.65 2.03-.98 3.07-1.26-.3-2.55-.6-3.85-.89a178.102 178.102 0 0 0-38.96-4.33c-30.05 0-59.12 7.68-84.64 21.7" fill="#FFF7BA"/><path d="M508.89 1196.05c-120.75 0-193.04-36.08-220.27-109.53-13.331-35.96-13.838-72.85-1.5-109.65a157.91 157.91 0 0 1 10.425-24.2c-.757 21.29 2.383 44.09 11.23 68 25.345 68.35 84.055 101.37 157.415 113.62 1.75 3.04 3.58 6.07 5.5 9.09 14.08 22.21 31.5 39.37 50.87 52.52-4.62.1-9.18.15-13.67.15" fill="#C3A45D"/><path d="M437.39 869.48c-67.18 0-128.321 41.93-150.27 107.39-12.338 36.8-11.831 73.69 1.5 109.65 30.16 81.35 115.58 116.86 260.92 108.28-22.37-60.21-79.48-229.65-47.88-313.22-7.25-2.53-16.95-5.53-28.38-8.1-12.02-2.7-24.05-4-35.89-4m71.4 357.07c-134.96 0-216.592-42.62-248.764-129.43-15.816-42.66-16.431-86.38-1.822-129.94C289.01 875.31 384.34 822.25 479.97 843.73c29.24 6.57 48.35 15.58 49.15 15.96 3.94 1.87 6.89 5.34 8.1 9.54 1.2 4.19.56 8.7-1.77 12.39-39.37 62.14 22.64 252.99 49.85 321.28 1.8 4.49 1.35 9.56-1.19 13.67a15.263 15.263 0 0 1-11.7 7.17c-22.38 1.87-43.59 2.81-63.62 2.81" fill="#371A45"/><path d="M535.19 836.06c-33.34 9.62-59.84 35.09-70.5 68.11-17.63 54.57-33.38 147.05 19.88 231.05 82.28 129.77 295.65 72.46 295.65 72.46s-67.01-248.36-46.81-307.74c0 0-63.21-102.85-198.22-63.88" fill="#FD45C5"/><path d="M687.95 905.28c-22.55-20.11-59.92-43.07-113.01-43.07-17.89 0-37.57 2.61-59.07 8.81a105.33 105.33 0 0 0-20.38 8.3c11.25-13.49 26.45-23.56 43.93-28.61 20.07-5.79 38.37-8.22 54.96-8.22 50.89 0 85.66 22.85 105.59 41.57a73.356 73.356 0 0 0-7.04 11.14c-1.66 3.2-3.32 6.57-4.98 10.08" fill="#FEB5E8"/><path d="M675.15 1204.86c-62.35 0-137.8-14.87-177.7-77.81-48.59-76.62-36.74-160.94-18.25-218.19 1.41-4.37 3.14-8.58 5.17-12.61-7.81 51.67-4.87 115.77 33.05 175.56 38.99 61.53 107.48 81.01 168.72 84.47a206.725 206.725 0 0 0 34.08 46.16c-13.58 1.42-28.88 2.42-45.07 2.42" fill="#C230AD"/><path d="m535.19 836.06 4.23 14.65c-28.62 8.26-51.13 30-60.22 58.15-18.49 57.25-30.34 141.57 18.25 218.19 63.25 99.77 215.77 78.75 263.98 69.2-14.6-56.24-57.32-230.16-44.52-293.38-14.23-19.09-71.16-82.85-177.49-52.16l-4.23-14.65m139.32 399.75c-69.68 0-155.32-17.51-202.82-92.43-57.81-91.17-38.3-191.94-21.51-243.9 12.21-37.81 42.41-66.99 80.78-78.07 144.47-41.71 214.75 69.42 215.45 70.55 2.38 3.87 2.9 8.59 1.44 12.89-13.72 40.34 20.65 200.83 47.09 298.86 1.06 3.91.52 8.08-1.51 11.58a15.195 15.195 0 0 1-9.25 7.12c-4.17 1.12-51.33 13.4-109.67 13.4" fill="#371A45"/><path d="M792.95 865.76c-35.38 1.3-70.25 4.96-86.47 36.43-19.22 37.3-39.55 95.2-31.75 164.7 11.64 103.82 76.49 152.7 132.79 174.49 137.41 53.2 218.65-98.11 218.65-98.11s-105.91-37.34-53.03-188.03c9.89-28.16-85.15-92.98-180.19-89.48" fill="#07BCF8"/><path d="M953.46 966.61c-27.16-28.52-93.13-61.48-160.48-61.48-2.49 0-4.98.04-7.47.14-27.32.99-54.34 3.39-72.7 18.95 2.4-5.37 4.83-10.39 7.23-15.05 11.25-21.82 34.5-26.74 73.47-28.17 2.3-.09 4.6-.13 6.9-.13 58.23 0 118.02 26.99 146.09 53.45 9.3 8.77 11.83 14.63 12.08 16.37-1.9 5.43-3.6 10.74-5.12 15.92" fill="#9CE4FC"/><path d="M865.63 1237.49c-16.34 0-33.9-3.09-52.61-10.33-50.06-19.38-112.06-63.21-123.14-161.97-5.76-51.34 4.82-96.06 18.19-129.72-1.2 16.09-1.05 33.09.94 50.84 11.63 103.84 76.48 152.72 132.8 174.51 20.54 7.94 39.83 11.32 57.78 11.32 36.55 0 67.55-14.02 92.29-32.04.86.7 1.72 1.37 2.57 2.02.25 3.27.67 6.55 1.26 9.76-.04-2.96-.05-5.9-.04-8.84 3.18 2.38 6.23 4.43 9.04 6.18-18.25 27.58-66.62 88.28-139.08 88.27" fill="#1683D0"/><path d="M793.51 881c-38.97 1.43-62.22 6.35-73.47 28.17-17.86 34.65-37.58 89.84-30.16 156.02 11.08 98.76 73.08 142.59 123.14 161.97 18.71 7.24 36.27 10.33 52.61 10.33 72.46.01 120.83-60.69 139.08-88.27-30.62-19.08-89.64-73.96-46.13-198.53-.25-1.74-2.78-7.6-12.08-16.37-29.18-27.5-92.64-55.59-152.99-53.32m71.58 386.98c-19.6 0-40.64-3.69-63.08-12.37-47.42-18.36-128.98-67.07-142.44-187.02-8.27-73.76 13.57-135.01 33.36-173.39 21.55-41.81 70.32-43.61 99.45-44.68 83.79-3.09 162.32 41.44 186.88 74.76 11.51 15.62 10.85 27.66 8.27 35.01-47.29 134.77 39.97 167.28 43.71 168.6 4.2 1.48 7.54 4.72 9.14 8.87 1.61 4.15 1.33 8.8-.78 12.72-.75 1.39-64.58 117.48-174.51 117.5" fill="#371A45"/><path d="M995.71 1151.88c-.59-3.21-1.01-6.49-1.26-9.76.41.31.81.62 1.22.92-.01 2.94 0 5.88.04 8.84" fill="#3063A9"/><path d="M995.67 1143.04c-.41-.3-.81-.61-1.22-.92-.16-2.02-.26-4.03-.3-6.02 1.13-2.16 1.71-3.43 1.71-3.43-.11 3.44-.17 6.9-.19 10.37m-2.56-5.02c.31-1.14.66-2.23 1.01-3.36-.01.49.01.95.03 1.44-.32.58-.66 1.22-1.04 1.92" fill="#471948"/><path d="M715.3 1826.38c-9.56 15.24-22.8 26.48-40.05 29.63-.81.14-1.67.31-2.48.41-26.02 3.7-50.05-9.42-69.18-28.01-30.83-29.99-49.01-74.27-42.49-85.43 7.26-12.42 77.54-1.97 135.46-44.49 27.33-20.04 41.73 20.36 37.86 65.37-1.84 21.92-8.02 44.89-19.12 62.52" fill="#371A45"/><path d="M715.3 1826.38c-9.56 15.24-22.8 26.48-40.05 29.63-.81.14-1.67.31-2.48.41-11.43-13.94-16.23-32.98-11.24-51.77 1.79-6.74 4.7-12.9 8.47-18.31 13.6-19.52 38.36-29.41 62.66-22.98.57.15 1.19.31 1.76.5-1.84 21.92-8.02 44.89-19.12 62.52" fill="#FF67A0"/><path d="M715.3 1826.38c-9.56 15.24-22.8 26.48-40.05 29.63-.81.14-1.67.31-2.48.41-26.02 3.7-50.05-9.42-69.18-28.01 7.9-29.37 37.02-47.43 66.41-42.07 1.56.27 3.15.62 4.69 1.01 20.05 5.35 34.91 20.55 40.61 39.03" fill="#FF67A0"/><path d="M571.55 1750.06c.24 10.09 12.33 40.63 36.62 66.13 14.83 15.57 38.14 33.06 64.95 28.16 33.35-6.12 44.56-51.07 47.2-64.7 7.23-37.31-.28-68.8-8.64-74.09-1.7-1.07-4.41-.23-8.1 2.48-39.24 28.79-82.7 34.66-111.46 38.54-7.41 1-16.34 2.2-20.57 3.48m92.07 118.84c-44.32.01-77.04-39.27-89.8-57.47-12.53-17.86-33.46-56.4-22.94-74.41 5.56-9.52 17.8-11.17 38.08-13.91 26.37-3.56 66.24-8.94 100.61-34.16 16.18-11.87 28.74-7.22 34.78-3.4 22.41 14.2 26.63 60.36 19.22 98.61-9.12 47.01-33.24 77.43-66.18 83.48-4.7.86-9.3 1.26-13.77 1.26" fill="#371A45"/><path d="M675.31 1779.81s-10.69 12.61-8.96 34.81c0 0-17.24-24.13-5.25-42.51 15.02-23.05 14.21 7.7 14.21 7.7m-297.02-322.96c-12.35 58.64-61.7 97.89-110.217 87.67-48.521-10.22-77.842-66.04-65.491-124.68 12.352-58.63 61.697-97.88 110.217-87.67 48.52 10.22 77.84 66.05 65.49 124.68" fill="#371A45"/><path d="M209.123 1301.26c3.969 12.57 12.534 22.61 23.203 29.44 10.634 6.86 23.286 10.98 35.586 12.41 7.002.81 12.02 7.14 11.21 14.15-.81 7-7.143 12.02-14.15 11.21a13.36 13.36 0 0 1-2.212-.45l-.166-.06c-15.517-4.77-29.653-12.47-41.377-23.39-5.81-5.46-10.898-11.79-14.707-18.82a64.562 64.562 0 0 1-7.3-22.41 5.072 5.072 0 0 1 4.375-5.69 5.072 5.072 0 0 1 5.503 3.5l.035.11m-34.259 37.19c6.358 10.11 15.684 18.29 25.758 24.36 5.048 3.01 10.376 5.48 15.61 7.05 5.146 1.59 10.508 2.09 13.569 1.27 6.885-1.83 13.95 2.27 15.782 9.16 1.83 6.88-2.266 13.95-9.151 15.78-1.162.31-2.334.45-3.481.43l-1.231-.02c-9.931-.18-17.353-3.33-24.053-6.8-6.645-3.58-12.446-7.9-17.734-12.67-10.46-9.57-19.145-20.96-24.204-34.18a5.079 5.079 0 0 1 9.043-4.52l.093.14m-14.898 45.05c5.103 4.47 9.873 7.87 15.157 11.3 5.205 3.32 10.59 6.24 16.049 8.68 5.498 2.35 11.07 4.14 16.563 5.3 5.513 1.06 10.898 1.26 15.976.86l.088-.01c7.032-.55 13.179 4.71 13.73 11.74.553 7.03-4.701 13.18-11.738 13.73-.82.07-1.694.04-2.485-.05-7.851-.92-15.288-2.87-22.13-5.69-6.776-2.92-13.031-6.47-18.812-10.45-5.723-4.05-11.016-8.48-15.933-13.2-4.814-4.65-9.678-9.92-13.442-14.86l-.366-.48a5.05 5.05 0 0 1 .957-7.08 5.054 5.054 0 0 1 6.386.21" fill="#371A45"/><path d="M311.844 1371.22c-13.503 1.99-23.582 19.58-22.511 39.3 1.07 19.72 12.886 34.1 26.387 32.11 13.51-1.98 23.58-19.58 22.51-39.3-1.07-19.72-12.88-34.09-26.385-32.11" fill="#FFF"/><path d="M248.089 1506.89c-5.611 0-11.143-5.15-13.322-13.04-2.633-9.54.622-19.48 7.272-22.19a9.127 9.127 0 0 1 3.485-.69c5.61 0 11.143 5.15 13.322 13.04 2.634 9.54-.623 19.48-7.272 22.19a9.12 9.12 0 0 1-3.485.69" fill="#87768F"/><path d="M662.84 1496.21c-4.03 59.79 32.81 110.96 82.28 114.3 49.48 3.33 92.85-42.43 96.88-102.22 4.03-59.79-32.81-110.96-82.28-114.3-49.48-3.33-92.85 42.43-96.88 102.22" fill="#371A45"/><path d="M876.87 1397.08a64.53 64.53 0 0 1-13.11 19.58c-5.57 5.73-12.19 10.44-19.26 14.12-14.25 7.33-29.95 10.9-46.17 11.28l-.11.01c-7.05.16-12.9-5.42-13.06-12.47-.16-7.05 5.42-12.9 12.47-13.06.77-.02 1.59.05 2.32.16 12.23 1.97 25.52 1.43 37.62-2.29 12.12-3.67 23.09-11.01 30.32-22.03l.06-.09a5.082 5.082 0 0 1 8.92 4.79m21.51 47.09c-8.47 11.35-19.92 19.95-32.58 26.33-6.38 3.15-13.14 5.73-20.51 7.38-7.39 1.52-15.39 2.54-24.99.01l-1.13-.3c-6.89-1.81-11.01-8.86-9.2-15.76 1.81-6.89 8.87-11 15.76-9.19 1.17.31 2.3.8 3.29 1.38 2.73 1.61 8.03 2.59 13.41 2.45 5.47-.09 11.26-1.02 16.94-2.54 11.34-3.11 22.54-8.45 31.4-16.45l.13-.12a5.077 5.077 0 0 1 7.17.37 5.09 5.09 0 0 1 .31 6.44m-.78 49.67c-4.97 3.74-11.08 7.49-16.97 10.66-6.01 3.21-12.31 6.03-18.92 8.38-6.65 2.26-13.63 3.98-20.94 4.95-7.35.85-15.04.71-22.85-.53-6.97-1.11-11.71-7.66-10.6-14.62 1.11-6.97 7.66-11.72 14.62-10.61.82.13 1.6.34 2.34.61l.16.05c4.77 1.76 10.01 3.04 15.6 3.51 5.61.37 11.46.16 17.38-.61 5.92-.86 11.89-2.21 17.81-4 6.01-1.86 11.52-3.84 17.65-6.75 2.52-1.2 5.53-.13 6.73 2.39 1.05 2.21.36 4.8-1.52 6.21l-.49.36" fill="#371A45"/><path d="M724.1 1432.28c13.31 1.96 23.24 19.3 22.19 38.73-1.06 19.44-12.7 33.61-26.01 31.65-13.31-1.96-23.24-19.3-22.19-38.73 1.06-19.44 12.7-33.6 26.01-31.65" fill="#FFF"/><path d="M786.93 1565.99c-1.15 0-2.3-.22-3.43-.68-6.55-2.68-9.76-12.47-7.17-21.87 2.15-7.78 7.6-12.85 13.13-12.85 1.15 0 2.31.22 3.44.68 6.55 2.67 9.76 12.46 7.16 21.86-2.14 7.78-7.6 12.86-13.13 12.86" fill="#87768F"/><path d="m1004.09 2141.79-79.31 208.19c-1.79-1.27-3.55-2.5-5.3-3.74-29.55-20.21-56.51-30.87-73.31-36.17-11.14-3.55-17.85-4.71-17.85-4.71s35.73 147.81-71.93 168.53c-41.14 7.97-87.72-21.11-120.27-69.72-37.17-55.44-56.06-136.29-27.81-216.52 7.15-20.45 17.39-40.84 31.19-60.8 104.21-150.62 319.88-28.24 364.59 14.94" fill="#FFF"/><path d="M828.33 2305.35s35.71 147.84-71.95 168.56c-88.1 17-201.1-135.71-148.09-286.27 59.77-6.1 173.11.54 237.87 122.43-11.13-3.54-17.83-4.72-17.83-4.72" fill="#FFCEDA"/><path d="M998.6 2147.44c-18.49-10.14-37.44-20.09-56.27-29.89-18.74-10.03-38.08-19.04-58-26.22-19.86-7.26-40.15-13.22-60.67-16.6-20.46-3.54-41.13-4.96-61.21-3.02-20.04 2.08-39.33 7.61-56.76 16.7-17.5 9-32.66 22.24-45.32 37.86-2.99 4.1-6.29 7.81-9.08 12.2-2.8 4.35-5.7 8.66-8.41 13.07l-7.5 13.57-6.56 14.01c-8.13 18.95-13.7 38.93-16.42 59.33-5.58 40.82 1.07 83.14 17.38 121.04 8.09 18.99 18.85 36.82 31.89 52.48 12.89 15.74 28.45 29.13 45.51 38.02a84.366 84.366 0 0 0 26.33 8.65c4.45.79 8.82.7 13.15.61l6.4-.79 6.88-1.6c18.23-4.78 33.18-15.31 42.68-31.01 9.69-15.59 14.09-35.47 15.25-55.7.58-10.15.43-20.49-.45-30.82-.4-5.16-1.02-10.33-1.75-15.45-.72-5.01-1.67-10.46-2.67-14.82l-.07-.33c-1.93-8.46 3.37-16.87 11.82-18.8 2.11-.47 4.29-.49 6.29-.13 5.64 1.42 9.76 2.9 14.41 4.56 4.49 1.67 8.9 3.41 13.21 5.33 8.64 3.78 17.02 7.95 25.14 12.51 8.07 4.63 16.02 9.41 23.57 14.73 7.64 5.19 14.91 10.86 22.03 16.62a7.917 7.917 0 0 1 1.17 11.12 7.906 7.906 0 0 1-10.16 1.84l-.19-.12c-7.51-4.42-15.06-8.7-22.85-12.45-7.72-3.9-15.7-7.19-23.67-10.33-8-3.04-16.13-5.68-24.28-7.89-4.07-1.14-8.17-2.08-12.23-2.94-2.02-.41-4.05-.81-6.04-1.13-1.91-.32-4.18-.66-5.5-.75l18.04-19.26c1.45 6.39 2.35 11.82 3.23 17.71.82 5.78 1.51 11.57 1.96 17.4.99 11.63 1.18 23.39.51 35.24-1.45 23.54-6.3 48.25-19.88 70.4-6.73 10.98-15.76 20.99-26.46 28.66-10.67 7.73-22.77 13.03-34.96 16.31-3.08.72-6.09 1.5-9.23 2.14l-10.01 1.24c-6.65.26-13.35.24-19.8-.85a115.891 115.891 0 0 1-36.21-11.78c-22.07-11.5-40.41-27.7-55.46-45.97-15.16-18.24-27.36-38.56-36.58-60.12-18.54-42.98-25.93-90.94-19.81-137.63 2.96-23.32 9.2-46.23 18.33-67.85 2.45-5.32 4.83-10.69 7.36-15.98l8.4-15.42c3.02-4.99 6.24-9.86 9.35-14.81 3.09-4.94 7-9.63 10.49-14.44 14.81-18.75 33.35-35.41 54.97-46.88 21.5-11.69 45.4-18.32 69.17-20.85 47.85-4.53 94.4 5.79 136.94 22.4 21.34 8.38 41.97 18.23 61.63 29.87 9.76 5.94 19.18 12.47 27.97 19.95 8.71 7.56 17.15 15.62 23.96 25.7a8.06 8.06 0 0 1-2.17 11.19 8.047 8.047 0 0 1-8.38.4l-.41-.23" fill="#371A45"/><path d="M1758.8 2593.41c97.97 129.48 75.22 294.15-63.23 317.48-50.12 8.45-74.54-15.8-90.84-52.91-17.18-39.13-25.39-92.56-45.14-137.09-12.74-28.72-30.24-53.72-58.19-68.83-123.4-66.77-159.54-156.28-159.54-156.28l282.15-405.95c7.23 13.06 13.88 26.15 20.02 39.15 98.3 209.23 58.26 405.51 58.26 405.51 21.95 18.26 40.81 38.12 56.51 58.92" fill="#FFF"/><path d="M1695.57 2910.89c-102.92 17.33-97.48-103.23-135.98-190 48.63-6.19 132.23-31.51 199.21-127.48 97.97 129.48 75.22 294.15-63.23 317.48" fill="#FFCEDA"/><path d="M1717.13 2642.83c-20.42-28.85-46.01-58.2-70.44-89.68-31.17-40.25 46.2-126.02 21.68-313.1 6.3 22.52 11.48 45.37 15.47 68.44a721.57 721.57 0 0 1 10.6 111.82c.31 18.73-.07 37.47-1.27 56.13-.62 9.32-1.42 18.62-2.44 27.86-1.03 9.12-2.33 18.69-3.9 27.03l-.05.25c-1.01 5.44.87 11.26 5.43 15.05 21.29 17.71 40.55 37.88 56.85 60.1-10.37 13.54-21.08 25.52-31.93 36.1" fill="#C3B2D5"/><path d="M1676.9 2896.77c-9.15-.04-17.71-1.52-25.03-5.17-7.36-3.57-13.76-9.17-19.31-16.4-3.34-4.39-6.35-9.31-9.08-14.58 4.12.32 8.53.51 13.14.51 29.59 0 67.47-7.83 91.08-38.9 50.42-66.34 30.19-121.86-10.57-179.4 10.85-10.58 21.56-22.56 31.93-36.1 8.45 11.52 16.1 23.58 22.83 36.13 19.7 36.62 31.68 77.7 31.06 118.4-.38 20.26-3.97 40.3-11.48 58.52-7.5 18.2-18.93 34.44-33.77 46.87-14.75 12.53-32.78 21.13-52.08 26.01-9.76 2.39-19.63 4.07-28.72 4.11" fill="#C390BC"/><path d="M1349.17 2492.82c5.06 8.49 11.23 17.6 17.74 25.82 6.44 8.41 13.3 16.5 20.45 24.29 14.3 15.6 29.81 30.01 46.21 43.28 8.23 6.6 16.5 13.14 24.98 19.45 8.57 6.16 17.12 12.39 26.08 18.07 4.41 2.92 9.03 5.54 13.55 8.32l14.39 8.21c10.88 6.29 20.72 14.38 29.15 23.43 16.96 18.22 28.16 39.81 36.66 61.2 8.53 21.48 14.58 43.18 20.51 64.34 5.94 21.11 11.59 41.97 19.55 60.69 3.99 9.31 8.6 18.02 14.12 25.28 5.55 7.23 11.95 12.83 19.31 16.4 7.32 3.65 15.88 5.13 25.03 5.17 9.09-.04 18.96-1.72 28.72-4.11 19.3-4.88 37.33-13.48 52.08-26.01 14.84-12.43 26.27-28.67 33.77-46.87 7.51-18.22 11.1-38.26 11.48-58.52.62-40.7-11.36-81.78-31.06-118.4-19.72-36.78-47.36-69.34-79.68-96.23-4.56-3.79-6.44-9.61-5.43-15.05l.05-.25c1.57-8.34 2.87-17.91 3.9-27.03 1.02-9.24 1.82-18.54 2.44-27.86 1.2-18.66 1.58-37.4 1.27-56.13a721.57 721.57 0 0 0-10.6-111.82c-6.38-36.93-15.84-73.27-28.01-108.65a681.398 681.398 0 0 0-45.62-102.36l-.06-.09c-4.19-7.64-1.39-17.24 6.25-21.43 7.64-4.19 17.23-1.4 21.43 6.24a711.884 711.884 0 0 1 47.82 107.27c12.75 37.04 22.63 75.05 29.29 113.61a751.085 751.085 0 0 1 11.06 116.69c.33 19.56-.07 39.14-1.33 58.7-.64 9.79-1.48 19.57-2.57 29.36-1.13 9.9-2.37 19.33-4.34 29.81l-5.38-15.3c35.16 29.26 65.48 64.86 87.32 105.58 21.77 40.57 35.49 86.48 34.81 133.88-.43 23.62-4.61 47.56-13.86 70.02-9.19 22.4-23.7 43.15-42.6 58.95-18.78 15.97-41.49 26.65-64.71 32.5-5.87 1.42-11.6 2.64-17.65 3.55-6.04 1-12.35 1.41-18.72 1.52-12.74-.01-26.43-2.19-38.87-8.34-12.47-5.99-22.87-15.44-30.62-25.63-7.79-10.26-13.4-21.18-18.06-32.03-9.21-21.77-14.95-43.48-20.94-64.61-5.9-21.13-11.73-41.8-19.43-61.17-7.65-19.33-17.32-37.32-30.42-51.34-6.52-7-13.86-13.01-22-17.71l-3.12-1.8-11.19-6.15c-4.89-2.89-9.85-5.66-14.66-8.69-19.45-11.76-38.15-25.03-55.01-40.46-16.83-15.45-32.19-32.53-45.58-51.04-6.69-9.25-12.86-18.88-18.38-28.9-2.73-5.02-5.29-10.15-7.68-15.36-2.43-5.3-4.55-10.36-6.48-16.38a7.896 7.896 0 0 1 5.13-9.93c3.56-1.15 7.35.38 9.18 3.47l.33.55" fill="#371A45"/><path d="M787.66 2250.53s22.01 19.36 40.69 51.73l-40.69-51.73" fill="#FFF"/><path d="M792.87 2244.6c5 3.67 9.29 7.21 13.68 11.08 4.33 3.83 8.56 7.8 12.63 11.96 8.15 8.28 15.77 17.2 22.84 26.73l.09.12c5.23 7.06 3.75 17.02-3.31 22.26-7.06 5.23-17.02 3.74-22.25-3.31-.76-1.02-1.4-2.18-1.88-3.29-4-9.5-8.73-18.87-14.14-27.92-2.69-4.54-5.59-8.97-8.62-13.32-2.99-4.3-6.33-8.71-9.47-12.45l-.32-.39c-2.81-3.35-2.36-8.34.99-11.15 2.85-2.39 6.89-2.42 9.76-.32" fill="#371A45"/><path d="M903.88 2324.52c-6.5-4.37-13.25-8.4-20.08-12.32-8.12-4.56-16.5-8.73-25.14-12.51-4.31-1.92-8.72-3.66-13.21-5.33-1.59-.57-3.12-1.12-4.67-1.65a253.007 253.007 0 0 0-21.6-25.07c-1.76-1.8-3.54-3.56-5.35-5.28-22.42-26-47.65-43.56-73.16-55.21 5.48 1.6 11.92 4.19 18.79 6.78 11.06 4.18 23.21 8.36 34.18 8.36 12.52 0 23.51-5.44 29.58-22.57 2.45-6.88 5.22-9.92 8.29-9.92 16.05 0 40.54 82.95 72.37 134.72" fill="#C3B2D5"/><path d="M742.47 2459.31c-2.96 0-5.94-.13-8.96-.67a84.366 84.366 0 0 1-26.33-8.65c-17.06-8.89-32.62-22.28-45.51-38.02-1.15-1.38-2.27-2.77-3.38-4.17 1.95.1 3.94.16 5.98.16 21.82 0 48.12-6.52 78.17-25.78 93-59.58-29.5-160.67-16.68-174.45 1.42-1.52 3.48-2.16 6.06-2.16 2.51 0 5.5.61 8.85 1.58 25.51 11.65 50.74 29.21 73.16 55.21-2.38-2.28-4.81-4.5-7.28-6.68-4.39-3.87-8.68-7.41-13.68-11.08a7.934 7.934 0 0 0-4.69-1.52c-1.79 0-3.59.6-5.07 1.84-3.35 2.81-3.8 7.8-.99 11.15l.32.39c3.14 3.74 6.48 8.15 9.47 12.45 3.03 4.35 5.93 8.78 8.62 13.32 4.48 7.49 8.48 15.19 12 23 0 1.16.13 2.33.4 3.5l.07.33c1 4.36 1.95 9.81 2.67 14.82.73 5.12 1.35 10.29 1.75 15.45.88 10.33 1.03 20.67.45 30.82-1.16 20.23-5.56 40.11-15.25 55.7-9.5 15.7-24.45 26.23-42.68 31.01l-6.88 1.6-6.4.79c-1.39.03-2.79.06-4.19.06" fill="#C390BC"/><path d="M742.59 2475.2c-37.46 0-77.52-27.78-106.47-71.03 6.69 1.85 14.1 3.18 22.17 3.63 1.11 1.4 2.23 2.79 3.38 4.17 12.89 15.74 28.45 29.13 45.51 38.02a84.366 84.366 0 0 0 26.33 8.65c3.02.54 6 .67 8.96.67 1.4 0 2.8-.03 4.19-.06l6.4-.79 6.88-1.6c18.23-4.78 33.18-15.31 42.68-31.01 9.69-15.59 14.09-35.47 15.25-55.7.58-10.15.43-20.49-.45-30.82-.4-5.16-1.02-10.33-1.75-15.45-.72-5.01-1.67-10.46-2.67-14.82l-.07-.33c-.27-1.17-.4-2.34-.4-3.5.74 1.64 1.45 3.27 2.14 4.92.48 1.11 1.12 2.27 1.88 3.29 3.12 4.21 7.92 6.43 12.79 6.43.56 0 1.11-.03 1.66-.08 5.75 37.69 12.35 137.37-74.61 154.1-4.55.88-9.16 1.31-13.8 1.31m176.89-128.96c-29.55-20.21-56.51-30.87-73.31-36.17-.66-.21-1.29-.41-1.91-.6 1.78-4.86 1.17-10.5-2.15-14.98l-.09-.12-1.24-1.66c1.55.53 3.08 1.08 4.67 1.65 4.49 1.67 8.9 3.41 13.21 5.33 8.64 3.78 17.02 7.95 25.14 12.51 6.83 3.92 13.58 7.95 20.08 12.32 5.02 8.17 10.22 15.56 15.6 21.72" fill="#381253"/><path d="M829.34 2319.87c-4.87 0-9.67-2.22-12.79-6.43-.76-1.02-1.4-2.18-1.88-3.29-.69-1.65-1.4-3.28-2.14-4.92-3.52-7.81-7.52-15.51-12-23-2.69-4.54-5.59-8.97-8.62-13.32-2.99-4.3-6.33-8.71-9.47-12.45l-.32-.39c-2.81-3.35-2.36-8.34.99-11.15a7.863 7.863 0 0 1 5.07-1.84c1.66 0 3.31.51 4.69 1.52 5 3.67 9.29 7.21 13.68 11.08 2.47 2.18 4.9 4.4 7.28 6.68 1.81 1.72 3.59 3.48 5.35 5.28 7.67 7.8 14.88 16.16 21.6 25.07l1.24 1.66.09.12c3.32 4.48 3.93 10.12 2.15 14.98-9.99-3.08-15.94-4.11-15.94-4.11s1.32 5.46 2.68 14.43c-.55.05-1.1.08-1.66.08" fill="#381253"/><path d="M1755.96 1919.33c-74.97 158.67-237.99 189.25-330.84 206.42-102.37 18.94-108.25 92.18-132.32 147.86-34.01 78.77-174.02 153.39-264.83 50.24-25.41-28.85-17.91-56.24-.51-78.33 24.27-30.94 67.92-51.58 67.92-51.58-60.78-374.65 262.34-337.36 262.34-337.36l398.24 62.75" fill="#62ED2E"/><path d="M1190.53 2006.06c-14.59 0-25.9-9.31-23.3-27.59 4.74-33.35 50.86-83.95 128.89-83.95h.51c25.53.08-16.6 14.24-65.89 87.75-10.69 15.95-26.83 23.79-40.21 23.79" fill="#D0FAC0"/><path d="M1755.96 1919.33c-74.97 158.67-237.99 189.25-330.84 206.42-102.37 18.94-108.25 92.18-132.32 147.86-34.01 78.77-174.02 153.39-264.83 50.24-25.41-28.85-17.91-56.24-.51-78.33 4.11 15.9 16.22 36.3 47.95 54.69 83.81 48.5 165.38-1.5 185.7-82.2 16.26-64.52 37.3-146.4 73.76-176.87 30.61-25.58 84.28-21.11 144.68-16.65 97.6 7.21 212.74 14.43 276.41-105.16" fill="#32CC17"/><path d="M1356.82 1864.42c-20.2.12-41.22 2.32-61.28 5.92-10.09 1.8-20.07 3.98-29.83 6.76-9.79 2.64-19.4 5.79-28.71 9.5-18.7 7.23-36.24 16.78-51.95 28.48a178.19 178.19 0 0 0-40.33 41.98c-11.14 15.98-19.59 33.86-25.72 52.68-3.19 9.38-5.57 19.08-7.71 28.85-1.86 9.85-3.59 19.77-4.49 29.87-4.11 40.32-1.51 81.79 4.16 122.95l1.76 12.77-10.59 4.03c-9.09 4.48-18.94 10.3-27.77 16.31-8.94 6.1-17.39 12.76-24.8 20-7.39 7.23-13.72 15.14-17.72 23.23-4.03 8.14-5.42 16.07-3.88 23.69 1.47 7.68 5.9 15.39 12.51 22.69 7.03 7.88 14.73 15 23.07 21.1 16.65 12.24 36.04 19.95 56.37 22.38 40.85 4.9 83.95-11.25 116.8-38.03 16.41-13.42 30.66-29.8 39.58-47.88 4.3-8.98 8.25-19.93 12.07-30.6 3.85-10.84 7.77-22.03 12.49-33.29 4.74-11.23 10.24-22.57 17.33-33.3 6.98-10.78 15.7-20.79 25.62-29.4 10.01-8.51 21.21-15.49 32.88-20.88 11.69-5.39 23.8-9.19 35.93-12l9.11-1.89 8.53-1.6 16.9-3.22c11.23-2.2 22.36-4.54 33.42-7.08 22.09-5.12 43.83-11.2 65-18.6 42.22-14.91 82.3-35.48 116.13-63.72 33.98-28 61.1-63.65 79.98-103.53 3.72-7.88 13.13-11.25 21.01-7.53 7.88 3.73 11.26 13.13 7.53 21.01-20.64 43.73-50.86 83.48-88.35 114.33-37.33 31.15-80.95 53.38-125.82 69.22-22.5 7.87-45.39 14.25-68.36 19.57-11.48 2.64-22.99 5.06-34.46 7.31l-17.18 3.28-8.51 1.59-7.88 1.63c-20.84 4.71-40.12 13.07-55.31 26.08-15.23 13-26.03 30.75-34.39 50.94-4.23 10.09-7.97 20.73-11.87 31.68-4.01 11.09-7.79 21.99-13.45 33.89-11.66 23.46-28.7 42.6-47.97 58.45-19.37 15.77-41.38 28.19-65.2 36.33-23.78 8.07-49.63 11.65-75.31 8.58-25.64-3-50.61-13.01-71.21-28.21-10.35-7.55-19.7-16.23-28.05-25.62-8.84-9.77-17-22.51-19.94-37.67-1.49-7.52-1.52-15.4-.29-22.86 1.27-7.46 3.72-14.44 6.84-20.77 6.31-12.67 14.88-22.9 23.96-31.85 9.14-8.92 18.95-16.6 29.11-23.53 10.31-6.97 20.38-13.01 32.04-18.76l.01-.01-8.83 16.8c-4-21.41-6.68-43.15-8.11-65.1a388.782 388.782 0 0 1 1.01-66.38c.98-11.11 2.84-22.2 4.91-33.26 2.37-11.02 5.05-22.02 8.68-32.83 7.22-21.58 17.47-42.44 30.92-61.24 13.39-18.84 30.18-35.27 48.9-48.57 18.71-13.38 39.46-23.39 60.82-30.52 21.44-6.97 43.48-11.17 65.55-12.77 11.04-.78 22.07-1.07 33.08-.52 11.07.52 21.79 1.3 33.07 3.45 4.29.83 7.1 4.97 6.29 9.26-.72 3.77-4.02 6.41-7.72 6.43h-.38" fill="#371A45"/><path d="M1181.86 2265.27c-5.89.07-10.63-.46-15.83-1.24-5.05-.89-10.08-2.03-14.99-3.6-9.81-3.12-19.42-7.44-28.12-13.31-8.63-5.88-16.96-12.64-23.75-20.71-3.73-3.81-6.57-8.21-9.8-12.42-3.01-4.31-5.53-8.89-8.3-13.39-4.59-7.45-2.27-17.22 5.18-21.81 7.45-4.59 17.21-2.27 21.8 5.18.35.56.65 1.13.91 1.7l.73 1.61c1.7 3.75 3.15 7.72 5.01 11.41 2.06 3.54 3.75 7.44 6.23 10.71 4.36 7.09 10.06 13.11 16.18 18.76 6.17 5.62 13.35 10.15 21 13.85 3.83 1.86 7.83 3.38 11.9 4.71 3.96 1.22 8.51 2.28 12.01 2.76l.81.11c4.31.6 7.32 4.58 6.72 8.88a7.877 7.877 0 0 1-7.69 6.8" fill="#371A45"/><path d="M1306.42 2281.76c4.7-10.44 8.1-20.17 11.67-30.06 3.9-10.95 7.64-21.59 11.87-31.68 8.36-20.19 19.16-37.94 34.39-50.94 15.19-13.01 34.47-21.37 55.31-26.08l7.88-1.63 8.51-1.59 17.18-3.28c11.47-2.25 22.98-4.67 34.46-7.31 22.97-5.32 45.86-11.7 68.36-19.57 16.16-5.7 32.16-12.24 47.76-19.72 3.34 4.95 6.57 9.98 9.68 15.08l-39.28 56.51c-19.75-2.66-39.66-4-59.59-4-13.17 0-26.35.59-39.47 1.77-27 2.42-54.44 7.57-77.67 21.53-19.49 11.71-34.96 28.97-49.43 46.5a906.985 906.985 0 0 0-41.63 54.47" fill="#C3B2D5"/><path d="M1613.49 2104.98c-3.11-5.1-6.34-10.13-9.68-15.08 1.52-.72 3.03-1.46 4.54-2.21-.44 3.23.12 6.62 1.8 9.7l.06.09c1.25 2.28 2.49 4.57 3.71 6.87l-.43.63" fill="#381253"/><path d="M1647.67 2177.77a445.997 445.997 0 0 0-73.46-16.28l39.28-56.51.43-.63a681.02 681.02 0 0 1 33.75 73.42" fill="#C3B2D5"/><path d="M1665.72 2183.85c-5.97-2.16-11.99-4.18-18.05-6.08a681.02 681.02 0 0 0-33.75-73.42c-1.22-2.3-2.46-4.59-3.71-6.87l-.06-.09a15.754 15.754 0 0 1-1.8-9.7c2.57-1.27 5.14-2.57 7.69-3.89a824.005 824.005 0 0 0 49.68 100.05" fill="#381253"/><path d="m1297.74 2294.26 4.13-19.2c16.44-26.91 14.64-61.43 28.27-89.87 10.91-22.78 31.9-40.5 56.19-47.45 16.23-4.64 33.37-4.6 50.2-5.89 62.23-4.74 122.9-28.4 171.91-67.04 2.45 6.36 4.99 12.69 7.6 18.99-2.55 1.32-5.12 2.62-7.69 3.89-1.51.75-3.02 1.49-4.54 2.21-15.6 7.48-31.6 14.02-47.76 19.72-22.5 7.87-45.39 14.25-68.36 19.57-11.48 2.64-22.99 5.06-34.46 7.31l-17.18 3.28-8.51 1.59-7.88 1.63c-20.84 4.71-40.12 13.07-55.31 26.08-15.23 13-26.03 30.75-34.39 50.94-4.23 10.09-7.97 20.73-11.87 31.68-3.57 9.89-6.97 19.62-11.67 30.06-2.93 4.14-5.82 8.31-8.68 12.5m-689.42-477.91c-.05-.05-.1-.11-.15-.16-1.04-1.1-2.07-2.21-3.08-3.33 4.96-11.03 12.07-21.42 22.57-27.23 4.77-2.64 10.35-4.03 15.83-4.03 4.75 0 9.42 1.04 13.44 3.21-.01.22-.03.44-.04.65-20.33.98-38.96 12.69-48.57 30.89m66.99-36.56c0-.16.04-1.86-.09-4.1 3.03-3.07 6.24-5.99 9.43-8.87 6.2-5.61 12.7-11.39 20.74-13.68 2.78-.8 5.65-1.14 8.54-1.14 3.1 0 6.21.39 9.27 1.04-.06 2.79-.2 5.66-.43 8.59-1.69-.15-3.38-.22-5.06-.22-16.21 0-31.54 6.82-42.4 18.38" fill="#381253"/><path d="M716.63 1794.3c-6.27-6.02-14.9-9.63-23.6-9.63-.51 0-1.01.01-1.52.03-4.69.23-9.29 1.52-13.47 3.65-1.1-.36-2.22-.69-3.35-1-1.14-.29-2.31-.56-3.47-.79 2.11-4.42 4.09-6.75 4.09-6.75v-.02c10.86-11.56 26.19-18.38 42.4-18.38 1.68 0 3.37.07 5.06.22a158.34 158.34 0 0 1-2.45 18.02c-.64 3.35-1.81 8.57-3.69 14.65m-99.42 30.54c-3.22-2.79-6.19-5.67-8.89-8.49 9.61-18.2 28.24-29.91 48.57-30.89-.29 6.26 1.32 12.39 3.29 17.4a36.53 36.53 0 0 0-8.96-1.11c-6.1 0-12.21 1.49-17.56 4.42-7.43 4.06-13.33 10.81-16.45 18.67m50.55-28.53c.96-3.92 2.23-7.18 3.46-9.75 1.16.23 2.33.5 3.47.79 1.13.31 2.25.64 3.35 1-3.88 1.99-7.4 4.7-10.28 7.96" fill="#C34893"/><path d="M613.34 1830.12c-1.76-4.68-9.9-4.99-10.53-9.94-.17-1.36.33-2.7.85-3.97.45-1.12.93-2.24 1.43-3.35 1.01 1.12 2.04 2.23 3.08 3.33.05.05.1.11.15.16 2.7 2.82 5.67 5.7 8.89 8.49-.59 1.47-1.08 2.98-1.46 4.52l-2.41.76m108.53-29.33a32.418 32.418 0 0 0-5.24-6.49c1.88-6.08 3.05-11.3 3.69-14.65 1.21-6.2 2-12.24 2.45-18.02.23-2.93.37-5.8.43-8.59 1.37.29 2.74.64 4.08 1.02 1.97.56 4.09 1.34 5.13 3.1 1 1.68.75 3.78.43 5.71a167.023 167.023 0 0 1-10.97 37.92m-59.02 2.86c-.88-.3-1.77-.56-2.67-.79-1.97-5.01-3.58-11.14-3.29-17.4.01-.21.03-.43.04-.65 2.61 1.42 4.95 3.3 6.86 5.7 2.98-5.53 7.01-10.34 11.43-14.82.13 2.24.09 3.94.09 4.1v.02s-1.98 2.33-4.09 6.75c-1.23 2.57-2.5 5.83-3.46 9.75a32.359 32.359 0 0 0-4.91 7.34" fill="#381253"/><path d="M1164.08 149.379c21.61 36.606 74.12 19.502 88.61-19.873 13.16-10.133 263.53-125.435 311.04 109.367 5.5 27.298 8.29 59.358 7.63 96.863l96.02 4.144c1.26-2.672 1.02-46.6-12.95-101.755-16.89-66.546-53.85-149.309-132.42-195.326-120.68-70.652-287.68 25.4-302.71 32.903-39-4.794-82.36 27.767-55.22 73.677" fill="#62ED2E"/><path d="m1659.88 262.301-.03-.105a470.493 470.493 0 0 0-5.42-24.07 467.723 467.723 0 0 1 5.45 24.175" fill="#B1F697"/><path d="M1659.85 262.196c-20.71-66.665-60.56-142.136-135.9-186.26-35.19-20.609-72.07-28.234-107.5-28.234-95.59 0-180.51 55.555-192.35 61.463-5.03-3.713-11.47-5.158-18.42-5.158-18.66 0-41.03 10.424-49.97 15.344 1.4-26.71 28.54-44.113 55.92-44.113 2.56 0 5.12.153 7.67.464C1230.33 70.195 1323.2 17 1419.56 17c34.93 0 70.34 6.997 102.45 25.8 78.57 46.016 115.53 128.78 132.42 195.325 2.1 8.312 3.9 16.372 5.42 24.071" fill="#B1F697"/><path d="M1563.74 238.873c5.49 27.298 8.28 59.358 7.62 96.863 0 0 21.95 21.591 52.21 22.456 30.27.866 43.81-18.31 43.81-18.31 1.26-2.674 1.02-46.603-12.95-101.756-12.63 36.698-42.38 59.412-90.69.747" fill="#31C418"/><path d="M1660.49 336.549c-.76 1.808-.42 1.232-.5 1.154l.02-.91-.02-2.252-.21-4.865c-.2-3.299-.49-6.64-.83-9.984-.63-6.689-1.49-13.398-2.48-20.083-2.03-13.37-4.69-26.655-7.87-39.782-6.19-26.284-14.66-51.977-25.62-76.34-11.01-24.317-24.2-47.53-40.57-68.069-16.26-20.608-35.64-38.34-57.23-52.485-10.92-7.154-21.89-13.08-33.73-17.567-11.78-4.557-24.13-7.687-36.75-9.679-25.28-3.873-51.52-2.935-77.51.93-26.03 3.908-51.79 11.064-76.95 20.072-12.6 4.463-25.05 9.463-37.32 14.898a607.078 607.078 0 0 0-18.27 8.496l-9.06 4.446-9.48 4.785-.01.007a14.851 14.851 0 0 1-8.67 1.492c-14.32-1.855-30.73 3.49-39.55 13.298-4.39 4.864-6.74 10.381-6.98 16.411-.21 6.036 1.63 12.857 5.46 19.564 3.45 6.403 7.67 10.295 13.01 12.473 5.27 2.17 11.88 2.32 18.53.395 13.43-3.76 25.59-15.215 30.45-28.716l.01-.002.24-.649c1-2.59 2.69-4.692 4.79-6.19l1.7-1.22 1.25-.803 2.16-1.292 3.88-2.144c2.51-1.344 4.98-2.548 7.46-3.706 4.94-2.316 9.87-4.445 14.84-6.474 9.91-4.092 20.01-7.583 30.24-10.669 20.46-6.11 41.46-10.835 63.02-12.868 21.5-2.083 43.55-2.093 65.41 1.748 21.79 3.844 43.41 11.54 62.41 23.8 19.06 12.164 35 28.785 46.99 47.33 11.91 18.66 20 39.06 25.6 59.672 11.16 41.405 12.54 83.721 10.63 125.111a7.634 7.634 0 0 1-7.98 7.265 7.618 7.618 0 0 1-7.27-7.468v-.066c-.67-40.449-5.12-80.937-17.04-118.41-6.05-18.653-14.33-36.355-25.21-51.832-10.87-15.46-24.5-28.53-40.4-37.876-15.88-9.404-33.86-15.124-52.51-17.71-18.66-2.639-37.99-2.507-57.22-.195-19.22 2.381-38.44 6.465-57.27 12.034-9.39 2.858-18.72 5.983-27.87 9.421a284.192 284.192 0 0 0-13.48 5.486l-6.42 2.922-2.92 1.441-1.18.625-.38.205.12-.129 5.03-6.836v.005c-8.45 22.643-27.1 40.65-50.79 47.54-11.78 3.4-25.49 3.687-38.15-1.427-12.7-4.87-22.87-15.48-28.38-26.048-5.64-9.982-9.71-22.272-9.23-35.532.38-13.274 6.27-26.443 14.91-35.728 8.62-9.443 19.4-15.66 30.63-19.433 11.27-3.733 23.23-5.032 35.16-3.596l-8.65 1.49.01-.006 8.87-4.827 9.39-4.966c6.3-3.247 12.69-6.333 19.13-9.33 12.88-5.974 25.99-11.502 39.34-16.49 26.73-9.84 54.47-17.507 83.08-21.92 28.56-4.486 58.21-5.194 87.53-.264 14.62 2.511 29.14 6.396 43.06 12.002 13.94 5.485 27.29 12.956 39.33 21.157 24.38 16.523 45.34 37.612 62.6 60.884 17.23 23.354 31.01 48.864 41.41 75.44 10.39 26.588 17.9 54.042 22.99 81.82a467.095 467.095 0 0 1 5.44 41.973c.57 7.036 1.01 14.082 1.19 21.18.07 3.548.09 7.106.02 10.712l-.21 5.491-.23 2.922-.19 1.67c-.2.776.04 1.062-1.01 3.686a7.626 7.626 0 1 1-13.74-6.616" fill="#371A45"/><path d="M2538.93 393.015c-32.63 27.248-76.37-6.463-76.83-48.416-9-13.959-206.25-206.49-329.71-1.188-14.32 23.876-27.69 53.15-39.64 88.708l-91.854-28.27c-.286-2.94 14.654-44.252 46.304-91.533 38.21-57.039 100.76-122.633 190.21-139.66 137.38-26.13 262.54 120.333 274.19 132.44 38.34 8.552 68.29 53.76 27.33 87.92" fill="#62ED2E"/><path d="M2033.95 333.266c4.06-6.79 8.45-13.807 13.25-20.95a454.581 454.581 0 0 0-13.18 20.864c-.02.028-.05.058-.07.086" fill="#B1F697"/><path d="M2556.88 367.529c-8.35-9.403-33.1-33.509-54.05-33.509-2.39 0-4.72.312-6.97.994-11.48-11.926-104.68-135.375-233.5-135.375-12.32 0-24.95 1.126-37.88 3.587-85.78 16.326-148.61 74.083-190.46 129.954 4.01-6.745 8.4-13.736 13.18-20.864 38.21-57.039 100.76-122.633 190.21-139.66 11.21-2.133 22.35-3.116 33.34-3.116 123.72 0 230.15 124.437 240.85 135.555 29.24 6.536 53.63 34.401 45.28 62.433" fill="#B1F697"/><path d="M2132.39 343.411c-14.32 23.876-27.69 53.15-39.64 88.707 0 0-27.91 12.99-56.72 3.662-28.8-9.326-35.13-31.93-35.13-31.93-.29-2.942 14.65-44.252 46.3-91.534-.41 38.807 20.02 70.178 85.19 31.095" fill="#31C418"/><path d="M1993.34 404.646c-.11-2.825.21-3.015.28-3.813l.38-1.636.77-2.83 1.64-5.244c1.14-3.423 2.35-6.768 3.61-10.09 2.55-6.62 5.32-13.115 8.21-19.554a469.91 469.91 0 0 1 19.19-37.724c14.1-24.468 30.38-47.815 49.09-69.387 18.7-21.553 40.23-40.967 64.29-57.2 24.07-16.14 50.87-28.989 79.38-36.384 14.09-3.694 29.18-6.258 44.15-6.756 15-.617 29.97.59 44.6 3.123 29.26 5.178 56.97 15.784 82.37 29.58 25.48 13.743 49.04 30.261 70.94 48.494 10.91 9.172 21.4 18.772 31.54 28.715 5.05 4.984 10.04 10.033 14.89 15.204l7.19 7.827 6.73 7.52.01.01-7.66-4.308c11.73 2.647 22.57 7.881 31.94 15.173 9.31 7.318 17.38 16.787 22.34 28.574 5.03 11.644 6.16 26.024 2.08 38.658-3.99 12.654-11.95 22.87-20.61 30.383-8.73 8.113-21.87 14.7-35.47 15.032-13.65.576-26.46-4.287-36.42-11.44-20.01-14.429-31.54-37.639-31.92-61.809v-.005l2.45 8.127.07.164-.29-.325-.9-.982-2.27-2.336-5.07-4.902a284.852 284.852 0 0 0-10.86-9.688c-7.48-6.308-15.22-12.378-23.11-18.217-15.87-11.558-32.61-21.846-49.93-30.53-17.34-8.624-35.5-15.222-53.97-18.987-18.44-3.818-37.3-4.45-55.4-.908-18.13 3.471-35.34 11.218-50.76 22.143-15.44 10.938-29.17 24.844-41.12 40.388-23.79 31.312-41.56 67.964-55.74 105.855l-.01.037a7.629 7.629 0 0 1-9.82 4.47c-3.79-1.417-5.77-5.547-4.62-9.366 12.06-39.636 27.54-79.045 51.93-114.313 12.19-17.544 26.65-34.056 44.12-47.645 17.51-13.454 38.1-23.774 60.14-28.848 22-5.182 44.95-5.19 66.77-1.508 21.88 3.706 42.65 11.103 62.21 20.271 19.63 9.138 37.84 20.627 55.07 33.242 8.61 6.335 16.95 13.008 24.92 20.186 4 3.576 7.93 7.236 11.81 11.074 1.95 1.92 3.86 3.88 5.78 5.988l2.94 3.324 1.6 1.938.91 1.174 1.2 1.722a13.483 13.483 0 0 1 2.43 7.443l.02.687v.004c.05 14.348 7.67 29.214 19.07 37.261 5.62 4.04 11.9 6.115 17.59 5.835 5.76-.262 11.04-2.515 16.44-7.392 5.85-5.035 9.87-10.848 11.69-16.605 1.8-5.762 1.43-11.745-1.07-17.8-5.02-12.197-18.7-22.732-32.81-25.784a14.787 14.787 0 0 1-7.66-4.304l-.01-.014-7.33-7.684-7.05-7.226c-4.72-4.786-9.49-9.504-14.36-14.126-9.74-9.234-19.8-18.118-30.18-26.545-20.69-16.917-42.56-32.293-65.77-44.698-23.19-12.348-47.6-22.026-72.72-26.85-12.55-2.349-25.24-3.543-37.86-3.194-12.66.26-24.99 2.165-37.67 5.25-25.09 6.09-49.29 16.303-71.51 30.27-22.3 13.87-42.51 31.318-61.03 50.54-18.5 19.28-35.08 40.65-49.73 63.34-7.4 11.301-14.35 22.927-20.74 34.848-3.17 5.964-6.24 11.995-9.07 18.088a242.282 242.282 0 0 0-4.12 9.126l-1.83 4.515-.78 2.116-.28.867c-.11.044.02.701-.09-1.257.45 4.184-2.58 7.944-6.77 8.396-4.18.45-7.94-2.58-8.39-6.768" fill="#371A45"/></g></svg>