<?xml version="1.0" standalone="no"?>
<!DOCTYPE svg PUBLIC "-//W3C//DTD SVG 20010904//EN"
 "http://www.w3.org/TR/2001/REC-SVG-20010904/DTD/svg10.dtd">
<svg version="1.0" xmlns="http://www.w3.org/2000/svg"
 width="1736.000000pt" height="1736.000000pt" viewBox="0 0 1736.000000 1736.000000"
 preserveAspectRatio="xMidYMid meet">
<metadata>
Created by potrace 1.14, written by Peter Selinger 2001-2017
</metadata>
<g transform="translate(0.000000,1736.000000) scale(0.100000,-0.100000)"
fill="#000000" stroke="none">
<path d="M6728 14797 c-304 -104 -416 -464 -251 -806 103 -214 324 -360 528
-349 l64 3 21 -75 c31 -113 68 -303 79 -412 12 -110 15 -428 5 -517 l-6 -58
-142 50 c-251 87 -560 156 -841 189 -144 17 -636 17 -780 0 -348 -40 -715
-132 -1010 -252 -53 -22 -101 -38 -105 -35 -4 2 -15 26 -25 52 -30 80 -128
280 -200 413 -132 243 -300 488 -462 675 l-69 80 28 55 c83 164 76 373 -19
569 -37 78 -59 109 -127 176 -154 153 -336 208 -509 155 -308 -95 -427 -464
-260 -809 83 -174 250 -309 421 -342 80 -15 187 -6 248 21 58 25 49 31 185
-137 162 -201 307 -428 428 -671 72 -144 151 -320 151 -336 0 -7 -21 -22 -47
-35 -198 -94 -527 -321 -739 -507 -740 -651 -1197 -1527 -1321 -2534 -25 -204
-25 -686 0 -890 113 -913 491 -1706 1118 -2342 622 -630 1420 -1016 2314
-1120 144 -17 636 -17 780 0 278 32 580 100 827 184 70 24 124 40 121 35 -11
-17 -202 -155 -284 -205 -211 -126 -399 -202 -703 -283 -83 -22 -169 -51 -192
-64 -51 -30 -96 -80 -131 -148 -24 -45 -28 -63 -28 -142 0 -108 20 -159 91
-235 103 -110 205 -130 409 -81 591 143 1058 399 1431 783 l122 125 113 -114
c242 -245 497 -443 820 -638 176 -107 553 -293 749 -371 434 -171 911 -295
1379 -356 l174 -23 87 -100 c105 -120 254 -265 370 -358 226 -182 548 -363
799 -448 111 -37 132 -41 192 -37 273 20 412 332 245 551 -42 55 -110 100
-193 128 -155 51 -510 236 -490 255 2 2 42 9 88 14 46 6 155 22 242 36 l158
27 77 -36 c86 -40 177 -76 297 -115 115 -38 228 -38 306 1 67 32 142 109 172
175 23 51 30 164 14 233 l-9 36 102 53 c237 124 470 299 676 506 l132 132 88
-38 c197 -83 468 -262 688 -455 129 -113 159 -125 222 -86 55 33 60 63 40 235
-67 584 -234 1148 -449 1508 l-45 77 13 103 c175 1342 -317 2628 -1375 3596
-676 619 -1613 1077 -2517 1231 -416 72 -891 79 -1296 20 -132 -19 -385 -71
-433 -89 -21 -8 -27 0 -88 116 -389 738 -965 1311 -1694 1685 -91 46 -121 66
-118 78 16 55 28 288 23 451 -9 256 -59 563 -121 737 l-15 42 40 43 c96 106
144 251 136 413 -10 178 -74 322 -202 451 -62 62 -98 90 -155 117 -132 62
-247 73 -362 34z m249 -231 c101 -48 182 -144 223 -266 18 -53 21 -82 18 -160
-3 -84 -7 -102 -34 -150 -45 -80 -97 -113 -185 -118 -62 -4 -77 -1 -133 27
-82 40 -147 111 -194 209 -32 68 -37 87 -40 172 -3 79 0 105 17 151 24 62 77
124 125 145 51 22 143 17 203 -10z m-3820 -96 c79 -40 145 -112 191 -208 32
-68 37 -87 40 -172 3 -79 0 -105 -18 -153 -99 -264 -444 -183 -549 129 -19 56
-32 217 -18 230 3 3 3 12 0 20 -3 8 0 14 7 14 6 0 8 4 5 10 -16 26 73 124 136
149 13 5 51 10 85 10 48 1 73 -5 121 -29z m3123 -1889 c263 -40 495 -97 705
-173 160 -59 147 -45 124 -129 -11 -40 -31 -103 -44 -142 -30 -85 -31 -112 -5
-155 35 -57 108 -69 159 -26 24 20 39 50 71 149 22 68 40 131 40 140 0 20 1
20 73 -16 671 -338 1252 -921 1600 -1607 205 -402 320 -782 389 -1282 8 -63
13 -207 13 -425 0 -335 -3 -381 -46 -640 -42 -253 -139 -584 -244 -830 -469
-1100 -1434 -1905 -2575 -2149 -280 -60 -390 -71 -745 -71 -355 0 -465 11
-745 71 -1141 244 -2106 1049 -2575 2149 -105 246 -202 577 -244 830 -43 259
-46 305 -46 640 0 335 3 381 46 640 148 896 654 1743 1379 2306 497 386 1076
631 1700 718 202 29 210 29 535 26 237 -2 317 -7 435 -24z m4327 -2062 c180
-14 314 -35 323 -50 12 -18 67 -286 95 -454 144 -884 70 -1820 -210 -2685 -58
-176 -156 -434 -217 -569 l-33 -73 0 239 c0 330 -20 418 -116 514 -66 66 -137
94 -239 94 -76 0 -92 -3 -152 -33 -137 -67 -204 -196 -187 -357 4 -33 7 -122
8 -199 2 -270 -55 -524 -174 -771 -120 -250 -286 -453 -524 -643 -53 -43 -106
-94 -122 -121 -87 -136 -75 -300 31 -415 l42 -46 -123 -60 c-182 -87 -338
-135 -509 -155 l-55 -7 -110 95 c-130 111 -323 308 -418 427 -70 88 -187 256
-186 268 0 4 46 36 102 72 819 518 1432 1365 1678 2317 94 365 123 607 123
1008 0 321 -11 458 -60 723 -42 231 -127 530 -203 720 -16 39 -18 54 -8 57 83
30 404 88 572 104 133 12 525 13 672 0z m1963 -632 c271 -155 686 -463 848
-630 42 -43 44 -48 62 -153 171 -1001 -237 -2522 -1033 -3849 -114 -191 -254
-405 -264 -405 -9 0 -95 194 -124 282 -17 49 -39 131 -50 181 -11 50 -32 113
-46 140 -53 96 -163 165 -277 174 l-61 5 107 215 c536 1081 764 2501 633 3951
-8 89 -15 174 -15 188 l0 25 58 -32 c31 -18 104 -59 162 -92z m1999 -2453
c111 -393 147 -684 138 -1113 -5 -282 -23 -456 -73 -701 -46 -230 -74 -317
-150 -470 -233 -467 -604 -836 -1093 -1086 l-109 -56 -84 27 c-45 15 -86 29
-90 31 -3 2 25 34 64 71 504 486 941 1259 1167 2066 121 432 175 794 174 1166
-1 135 3 228 8 220 4 -9 26 -78 48 -155z m-4305 -136 c59 -26 77 -109 77 -357
0 -308 -47 -560 -156 -831 -131 -326 -343 -621 -610 -849 -157 -135 -182 -151
-232 -151 -38 0 -51 6 -79 34 -28 28 -34 42 -34 76 0 23 4 49 9 59 6 10 51 51
102 91 406 324 662 758 744 1260 22 134 30 376 16 487 -13 104 -3 146 40 177
27 19 87 21 123 4z m4671 -2143 c79 -220 168 -571 199 -794 l7 -43 -48 36
c-168 127 -502 329 -592 358 -10 3 -5 17 22 53 55 78 171 285 215 387 22 51
51 133 63 183 l23 90 33 -73 c18 -40 53 -129 78 -197z m-3207 229 c31 -22 39
-40 71 -166 172 -678 655 -1194 1301 -1389 98 -29 130 -60 130 -124 0 -40 -5
-52 -34 -81 -45 -45 -84 -45 -223 2 -529 176 -941 527 -1206 1024 -97 182
-203 485 -214 612 -6 67 -6 67 30 103 29 29 42 35 79 35 24 0 54 -7 66 -16z
m-4083 -148 l56 -78 -38 -46 c-67 -82 -207 -217 -308 -298 -291 -231 -623
-393 -1035 -505 -184 -50 -221 -50 -266 -5 -28 28 -34 41 -34 78 0 46 18 81
52 99 11 6 73 24 137 40 361 91 704 252 960 449 116 90 261 229 331 319 l55
70 17 -22 c9 -12 42 -57 73 -101z m3800 -422 c60 -152 151 -330 227 -447 l61
-92 -125 -120 c-190 -184 -352 -306 -522 -391 -51 -26 -102 -44 -121 -44 -95
0 -551 90 -785 156 -119 33 -366 111 -384 122 -4 2 45 22 110 44 155 51 408
176 559 275 290 191 580 469 810 776 l58 78 33 -119 c18 -66 54 -173 79 -238z
m344 -1412 c179 -152 471 -320 696 -398 104 -36 135 -66 135 -129 0 -40 -5
-52 -34 -81 -48 -48 -88 -46 -234 12 -319 124 -593 299 -831 530 l-116 113
164 1 163 0 57 -48z"/>
<path d="M3946 9669 c-251 -62 -468 -372 -517 -736 -17 -129 -6 -326 24 -444
61 -234 183 -401 353 -482 64 -29 77 -32 169 -32 119 0 171 16 272 85 177 121
317 380 354 657 17 129 6 326 -24 444 -61 234 -184 402 -353 481 -58 27 -82
32 -154 35 -47 1 -102 -2 -124 -8z m190 -580 c148 -71 113 -375 -58 -499 -85
-62 -169 -60 -227 5 -118 135 -18 435 166 501 52 18 70 17 119 -7z"/>
<path d="M6466 9629 c-251 -62 -468 -372 -517 -736 -17 -129 -6 -326 24 -444
61 -234 183 -401 353 -482 64 -29 77 -32 169 -32 119 0 171 16 272 85 177 121
317 380 354 657 17 129 6 326 -24 444 -61 234 -184 402 -353 481 -58 27 -82
32 -154 35 -47 1 -102 -2 -124 -8z m190 -580 c148 -71 113 -375 -58 -499 -85
-62 -169 -60 -227 5 -118 135 -18 435 166 501 52 18 70 17 119 -7z"/>
<path d="M6009 7363 c-8 -10 -37 -51 -64 -92 -61 -92 -162 -195 -240 -246 -32
-21 -97 -52 -144 -68 -155 -54 -363 -36 -522 43 -127 64 -237 158 -303 257
-32 48 -50 58 -66 38 -26 -31 18 -173 86 -276 139 -210 384 -330 649 -316 333
17 584 242 646 580 7 36 9 72 6 81 -8 21 -30 20 -48 -1z"/>
</g>
</svg>
