<?xml version="1.0" standalone="no"?>
<!DOCTYPE svg PUBLIC "-//W3C//DTD SVG 20010904//EN"
 "http://www.w3.org/TR/2001/REC-SVG-20010904/DTD/svg10.dtd">
<svg version="1.0" xmlns="http://www.w3.org/2000/svg"
 width="1112.000000pt" height="1112.000000pt" viewBox="0 0 1112.000000 1112.000000"
 preserveAspectRatio="xMidYMid meet">
<metadata>
Created by potrace 1.14, written by Peter Selinger 2001-2017
</metadata>
<g transform="translate(0.000000,1112.000000) scale(0.100000,-0.100000)"
fill="#000000" stroke="none">
<path d="M3743 10135 c-81 -18 -153 -57 -223 -122 -126 -116 -169 -287 -120
-477 61 -239 219 -358 506 -381 l82 -7 65 -86 c83 -112 133 -193 196 -317 43
-86 48 -101 34 -110 -256 -168 -343 -235 -497 -385 -295 -287 -497 -613 -625
-1009 -21 -64 -43 -140 -50 -169 -7 -28 -17 -54 -21 -57 -5 -3 -73 43 -151
101 -358 267 -534 356 -826 418 -176 37 -343 49 -492 37 -244 -22 -423 -71
-636 -176 -333 -163 -589 -412 -759 -737 -265 -504 -258 -1095 18 -1643 113
-223 220 -373 399 -554 331 -336 731 -551 1183 -635 176 -33 595 -63 1394
-102 184 -9 338 -19 342 -22 4 -4 21 -72 38 -152 73 -347 130 -505 246 -690
164 -262 259 -369 808 -915 249 -247 483 -488 520 -535 37 -47 108 -146 158
-220 100 -149 130 -185 170 -206 38 -20 107 -17 144 5 37 22 37 23 151 196
201 307 308 424 872 966 135 129 286 283 338 343 271 317 452 685 538 1095 13
62 26 115 28 117 10 10 619 47 1077 64 602 23 815 60 1126 196 688 299 1172
878 1284 1536 106 627 -96 1273 -510 1634 -279 242 -564 384 -879 439 -109 19
-340 19 -461 0 -346 -56 -727 -239 -1089 -525 -51 -40 -93 -71 -95 -69 -2 2
-11 45 -20 94 -107 548 -416 1008 -966 1436 -54 42 -117 89 -139 105 -37 25
-41 33 -36 58 15 81 121 286 209 403 l51 68 92 7 c235 18 383 102 475 268 55
99 71 167 66 277 -4 79 -10 103 -38 159 -40 82 -129 178 -210 226 -133 78
-324 91 -454 30 -127 -59 -235 -202 -282 -371 -16 -55 -24 -66 -111 -146 -176
-163 -319 -355 -425 -572 -33 -68 -60 -123 -61 -123 -1 0 -47 9 -102 19 -187
36 -310 44 -592 38 -172 -4 -300 -11 -358 -21 -155 -27 -185 -30 -185 -17 0
29 -107 236 -177 341 -55 83 -112 150 -202 241 -70 69 -139 136 -154 147 -22
16 -33 38 -47 94 -27 102 -76 193 -140 258 -70 71 -130 106 -227 130 -88 23
-161 24 -250 5z m1965 -1886 c319 -35 685 -167 917 -330 116 -83 285 -250 364
-362 323 -459 415 -988 247 -1430 -139 -367 -447 -730 -781 -920 -341 -194
-837 -262 -1282 -176 -471 91 -876 380 -1183 845 -105 159 -145 289 -171 554
-21 221 -2 460 52 643 101 342 345 649 709 890 350 233 733 330 1128 286z
m3807 -1410 c509 -70 873 -547 816 -1069 -26 -247 -118 -491 -248 -665 -238
-319 -633 -527 -1148 -604 -272 -41 -1003 -107 -1260 -113 l-110 -3 -21 90
c-12 50 -45 195 -74 323 -45 201 -50 235 -39 251 8 10 50 67 94 125 145 192
299 461 389 676 15 36 42 86 61 111 44 61 678 589 835 696 235 160 456 217
705 182z m-7570 -14 c176 -31 285 -80 447 -203 208 -157 680 -566 751 -650 29
-34 75 -114 116 -197 110 -227 302 -545 414 -688 16 -21 29 -48 29 -60 0 -12
-23 -137 -50 -277 -28 -140 -53 -276 -57 -301 -4 -25 -10 -51 -14 -58 -16 -25
-928 43 -1341 99 -459 64 -829 231 -1094 495 -308 307 -419 711 -314 1145 22
92 87 240 139 317 48 71 156 180 223 225 103 71 280 138 411 157 98 14 246 12
340 -4z m2480 -2587 c332 -127 521 -180 775 -220 123 -19 184 -22 410 -22 397
0 549 28 1018 183 134 45 252 81 262 81 28 0 32 -40 20 -226 -15 -246 -49
-440 -80 -469 -9 -9 -59 -33 -111 -54 -641 -260 -1285 -299 -1927 -116 -135
38 -341 113 -422 153 l-55 27 -31 95 c-47 140 -66 271 -68 445 0 83 2 158 6
168 10 24 37 19 203 -45z m510 -1538 c200 -36 337 -50 545 -57 233 -7 420 5
658 43 174 27 185 28 180 15 -8 -24 -733 -811 -744 -809 -17 4 -804 816 -804
830 0 6 11 8 28 4 15 -3 77 -14 137 -26z"/>
<path d="M4657 7130 c-104 -27 -198 -105 -244 -206 -22 -49 -24 -66 -21 -147
4 -109 25 -162 94 -233 127 -130 343 -137 476 -15 31 28 66 74 83 108 27 52
30 68 30 153 0 89 -2 99 -34 158 -39 72 -92 121 -168 158 -60 28 -156 39 -216
24z"/>
<path d="M6276 7124 c-166 -53 -271 -212 -251 -379 9 -75 58 -166 116 -219
153 -138 403 -109 519 59 46 66 62 121 63 205 1 92 -29 165 -97 238 -87 93
-234 133 -350 96z"/>
<path d="M5859 6405 c-15 -8 -41 -39 -57 -69 -38 -67 -92 -112 -156 -131 -111
-33 -182 -7 -284 106 -71 77 -116 103 -160 93 -103 -26 -131 -122 -66 -230 97
-161 258 -256 437 -256 100 0 171 24 255 86 117 86 188 206 180 303 -4 41 -11
61 -29 79 -31 31 -85 39 -120 19z"/>
</g>
</svg>
